<?xml version="1.0" standalone="no"?>
<!DOCTYPE svg PUBLIC "-//W3C//DTD SVG 1.1//EN" "http://www.w3.org/Graphics/SVG/1.1/DTD/svg11.dtd" >
<svg>
<metadata>
Created by FontForge 20090914 at Tue Oct  2 08:24:08 2012
 By www-data
(c) Hans J. Zinken 1994-96 &#38; Lurex 2001
</metadata>
<defs>
<font id="HansHand-_cyr" horiz-adv-x="405" >
  <font-face 
    font-family="HansHand"
    font-weight="400"
    font-style="italic"
    font-stretch="normal"
    units-per-em="1000"
    panose-1="2 0 5 0 0 0 0 0 0 0"
    ascent="800"
    descent="-200"
    x-height="449.999"
    cap-height="839.001"
    bbox="-437.998 -647 1252 1117"
    underline-thickness="50"
    underline-position="-75"
    slope="-15"
    unicode-range="U+0020-U+2122"
  />
<missing-glyph horiz-adv-x="500" 
d="M63 0v862h375v-862h-375zM125 63h250v737h-250v-737z" />
    <glyph glyph-name=".notdef" horiz-adv-x="500" 
d="M63 0v862h375v-862h-375zM125 63h250v737h-250v-737z" />
    <glyph glyph-name="space" unicode=" " horiz-adv-x="500" 
 />
    <glyph glyph-name="exclam" unicode="!" horiz-adv-x="381" 
d="M75 50c-10.667 -3.33301 -20.8301 -11.3301 -30.4971 -23.9971s-14.5 -24.334 -14.5 -35.001c0 -13.333 9.33301 -20 28 -20c18 0 34 5.16699 48 15.5s22.667 24.166 26 41.499l1 2c2 8.66699 3 14.667 3 18c0 7.33301 -5.33301 11.666 -16 12.999
c-2.66699 0 -6.83398 0.833008 -12.501 2.5s-9.16699 2.5 -10.5 2.5c-2.66699 0 -5.83398 -2.33301 -9.50098 -7s-7.83398 -7.66699 -12.501 -9zM150.004 216.003c0 -10 7.66797 -14.998 23.001 -14.998c9.33301 0 20.666 1.33301 33.999 4
c8 1.33301 16.333 10.666 25 27.999c6 13.333 12.333 26.666 19 39.999c24.667 145.333 104.667 321.333 240 528c-8 8.66699 -14.333 13 -19 13c-2 0 -5.66699 -1.33301 -11 -4s-9.66602 -4 -12.999 -4c-1.33301 0 -3.33301 0.333008 -6 1h-6
c-8.66699 0 -18.334 -5 -29.001 -15c-143.333 -210.667 -229 -402.667 -257 -576z" />
    <glyph glyph-name="quotedbl" unicode="&#x22;" horiz-adv-x="351" 
d="M495 721c-14 -19.333 -28.3311 -40.999 -42.998 -64.999c-4.66699 -7.33301 -7 -15 -7 -23c-0.666992 -9.33301 1.66602 -14 6.99902 -14c1.33301 0 4.33301 1 9 3s8 3 10 3h6c8.66699 1.33301 15.667 6 21 14c10 8.66699 24 24.167 42 46.5s39.333 54.166 64 95.499
c1.33301 4 6.66602 11.5 15.999 22.5s14 17.833 14 20.5c0 6 -3.66699 9 -11 9c-30 0 -61 -21.333 -93 -64zM556.002 850.001c-26 0 -47.998 -7.33301 -65.998 -22c-8.66699 -7.33301 -24.334 -25.333 -47.001 -54c-0.666992 -0.666992 -5.66699 -6.66699 -15 -18
c-22.667 -28 -38.334 -48.333 -47.001 -61c-17.333 -24 -31.333 -45.667 -42 -65c-3.33301 -4 -5 -7.33301 -5 -10c0 -3.33301 2.66699 -5 8 -5c8 0 19.333 3.33301 34 10c18 8 47.333 39.667 88 95l55 74c26 34.667 39 53 39 55c0 0.666992 -0.666992 1 -2 1z" />
    <glyph glyph-name="numbersign" unicode="#" horiz-adv-x="903" 
d="M561 362c4.66699 4.66699 20.0029 8.33301 46.0029 11c19.333 5.33301 48.333 8.66602 87 9.99902c9.33301 0.666992 33.333 2 72 4l5 1c6.66699 1.33301 12 2.33301 16 3c14 5.33301 21 13.666 21 24.999c0 4 -11.667 8 -35 12l-41 6
c-50.667 8.66699 -86.334 13 -107.001 13l36 46c26.667 33.333 46 50 58 50c7.33301 4 38.333 6.66699 93 8c18 0.666992 39 2 63 4c14.667 -11.333 27.334 -17 38.001 -17c6 0 19 3.33301 39 10c21.333 9.33301 32 18.333 32 27c0 3.33301 -2 11 -6 23
c2 5.33301 3 9.33301 3 12c0 5.33301 -6 8.33301 -18 9c-81.333 13.333 -139.666 20 -174.999 20h-18h-18c-4 -0.666992 -4.33301 -1 -1 -1c14 16 21 41.667 21 77c0 18 -7.66699 27 -23 27c-14.667 0 -31.834 -5.33301 -51.501 -16s-34.167 -22 -43.5 -34
c-5.33301 -8.66699 -8 -17 -8 -25c0 -2.66699 0.5 -6.5 1.5 -11.5s1.5 -8.83301 1.5 -11.5c0 -8 -5 -16 -15 -24c-1.33301 -1.33301 -3.33301 -2 -6 -2s-7.33398 1.66699 -14.001 5c-8.66699 3.33301 -15 5 -19 5c-3.33301 -1.33301 -6 -2 -8 -2c-2.66699 0 -4 1.66699 -4 5
c0 2 1.33301 7.66699 4 17c5.33301 18.667 8.33301 34.334 9 47.001l4 12c4 12 6 19.667 6 23c0 4 -2 6 -6 6c-2.66699 0 -11 -2.33301 -25 -7c-2 -0.666992 -3.33301 -1 -4 -1c-10 -2 -17.667 -5.66699 -23 -11c-2 -2.66699 -4.33301 -5 -7 -7
c-8 -24 -22.667 -59.333 -44 -106c-1.33301 0 -3 0.333008 -5 1h-6c-8.66699 0 -28.334 -4.33301 -59.001 -13c-10.667 -3.33301 -43.334 -11.666 -98.001 -24.999c-8.66699 -2.66699 -25.334 -7 -50.001 -13l-32 -7c-56 -12 -85 -37 -87 -75
c0 -1.33301 2.5 -6.66602 7.5 -15.999s7.5 -16.333 7.5 -21c0 -8.66699 4 -13.667 12 -15c4.66699 -2 9.33398 -3 14.001 -3c16 0 24 9.66699 24 29c0 23.333 7 38 21 44c62 27.333 133.333 43 214 47c-14.667 -18.667 -31 -43.667 -49 -75
c-15.333 -26.667 -26.666 -43.667 -33.999 -51c-6.66699 -4 -40.167 -9.66699 -100.5 -17s-98.166 -11 -113.499 -11c-12.667 4 -26.334 6 -41.001 6c-26 0 -67 -9.66699 -123 -29l-22 -7c-2.66699 1.33301 -5 2 -7 2c-5.33301 0 -10 -3.33301 -14 -10
c-1.33301 -0.666992 -2 -1.33398 -2 -2.00098c-13.333 -13.333 -20 -26.666 -20 -39.999c0 -6.66699 6.33301 -10.334 19 -11.001c-13.333 0.666992 -4.66602 1 26.001 1c72 0 120 4.33301 144 13c77.333 28 150.333 42 219 42l-98 -164c-8.66699 -14.667 -13 -25 -13 -31
c2 -4.66699 6 -7 12 -7h6c2.66699 0.666992 5 1 7 1c1.33301 0 2.33301 -0.333008 3 -1h4c19.333 0 32.666 4.33301 39.999 13c30.667 36 60 78.333 88 127l35 63c2 2 9 3 21 3c14.667 0 22 -1 22 -3c-4.66699 -12 -17.334 -38.667 -38.001 -80
c-48 -97.333 -72 -168.333 -72 -213c0 -2.66699 0.333008 -5.66699 1 -9v-9c0.666992 -4.66699 3.66699 -7 9 -7c4 0 9.83301 1 17.5 3s13.167 3 16.5 3c13.333 0 23.333 5.33301 30 16c4 6 8 17.667 12 35c17.333 72.667 56 164 116 274zM550.003 458.999
c-14 -14 -23.334 -21.001 -28.001 -21.001h-4c-2.66699 0.666992 -4.66699 1 -6 1c-4 0 -9.83301 -1.33301 -17.5 -4s-13.167 -4 -16.5 -4c-2 0 -3 0.666992 -3 2c0 3.33301 11 21.333 33 54c6.66699 10.667 19 29 37 55c4.66699 8.66699 10.334 13 17.001 13
c-2.66699 0 5.33301 -2.33301 24 -7c2 0 5 -0.333008 9 -1c8.66699 -0.666992 13 -2.66699 13 -6c0 -7.33301 -14.333 -29.666 -43 -66.999z" />
    <glyph glyph-name="dollar" unicode="$" horiz-adv-x="732" 
d="M322 141c-1.33301 0 -2 0.666016 -2 1.99902c0 3.33301 8 20 24 50c27.333 50 49.333 96.333 66 139c2 7.33301 5.66699 11 11 11c3.33301 0 11.333 -2.33301 24 -7c1.33301 0 2.66602 -0.333008 3.99902 -1c26.667 -9.33301 65.667 -24.666 117 -45.999
c18.667 -10 30.334 -20 35.001 -30l8 -16c3.33301 -6.66699 5 -11.667 5 -15c0 -47.333 -62.333 -74.666 -187 -81.999c-41.333 -2.66699 -76.333 -4.33398 -105 -5.00098zM236 157.999c-56 10.667 -99.665 21.666 -130.998 32.999c-41.333 14.667 -80.333 37 -117 67
c-4 0 -9.33301 0.333008 -16 1h-12c-20.667 0 -33.834 -3.33301 -39.501 -10s-8.5 -20.667 -8.5 -42c0 -26.667 22 -50 66 -70c20.667 -8.66699 54.334 -19.334 101.001 -32.001l118 -30c-16.667 -26.667 -28.334 -52.334 -35.001 -77.001l-16 -58l-9 -30
c-0.666992 -5.33301 -3.5 -15.333 -8.5 -30s-7.5 -23.667 -7.5 -27c0 -8.66699 7.66699 -21.334 23 -38.001c2 -4.66699 3.66699 -7 5 -7c5.33301 0 17.666 20.333 36.999 61c27.333 58 45 93.667 53 107c22.667 38.667 41.667 73 57 103
c91.333 2.66699 155.666 6.66699 192.999 12c74.667 10.667 134.667 31.334 180 62.001c28.667 19.333 43.667 38.333 45 57c0 2.66699 0.333008 7.33398 1 14.001v14c0 63.333 -37.667 114.333 -113 153c-28.667 14.667 -75 33 -139 55c22.667 25.333 42 55.666 58 90.999
l5 11c12.667 28 22.334 42 29.001 42c2 0 8 -2 18 -6l16 -8c8.66699 -2 15 -3 19 -3s10 3.66699 18 11s12 12.333 12 15c8 13.333 12 25.333 12 36c0 20.667 -13.667 37.334 -41 50.001c-5.33301 2.66699 -8 6 -8 10c0 4.66699 5.66699 14.667 17 30l10 18l66 118
c35.333 63.333 53 106.666 53 129.999v8c-0.666992 4 -1 7 -1 9c-0.666992 26.667 -16.667 41.334 -48 44.001c-3.33301 0.666992 -5.66602 1 -6.99902 1c-4 0 -9.33301 -4 -16 -12c-10.667 -12 -20.334 -19.333 -29.001 -22c-17.333 -5.33301 -30.333 -27 -39 -65
c-2.66699 -13.333 -6.33398 -40 -11.001 -80c-3.33301 -30.667 -6.33301 -51.667 -9 -63c-5.33301 -23.333 -13 -42.666 -23 -57.999c-2.66699 -4 -11 -15.667 -25 -35c-5.33301 -12 -15.666 -18 -30.999 -18h-7c-4 0.666992 -7 1 -9 1c-35.333 0 -82.333 -6.66699 -141 -20
c-74 -16.667 -132.333 -38.667 -175 -66c-20.667 -13.333 -41 -33.666 -61 -60.999c-22 -30 -32.667 -55.667 -32 -77c0.666992 -24 10.667 -41 30 -51c12.667 -6.66699 62.667 -21.667 150 -45l71 -19c-4.66699 -8 -20 -38.667 -46 -92zM476.002 614.998
c-33.333 -50 -61.002 -97 -83.002 -141v-1c-3.33301 -6 -6 -9 -8 -9s-11.333 2.33301 -28 7l-25 7l-76 22c-36 14 -54 29.333 -54 46c0 6.66699 3.33301 12 10 16c50 37.333 110.333 56 181 56c8.66699 0 21.834 -0.5 39.501 -1.5s30.834 -1.5 39.501 -1.5h4z" />
    <glyph glyph-name="percent" unicode="%" horiz-adv-x="548" 
d="M363 94c2 9.33301 3.33301 15.667 4 19c4 18 8.66699 35 14 51c3.33301 6.66699 12.333 14 27 22c10 8 17.333 12 22 12s10.167 -2.33301 16.5 -7s9.5 -9.33398 9.5 -14.001c0 -2.66699 -3.66699 -10.667 -11 -24l-7 -13c-9.33301 -17.333 -18.833 -28.666 -28.5 -33.999
s-25.167 -9.33301 -46.5 -12zM334 9.00098c18 7.33301 44.334 18.666 79.001 33.999c17.333 8.66699 36.333 21.334 57 38.001c11.333 19.333 22 40.333 32 63c8 18 16.333 35.333 25 52c14 22 21 38.667 21 50c0 13.333 -9.66699 21.333 -29 24h-5
c-2 0.666992 -3.66699 1 -5 1c-6 0 -15.167 -1.33301 -27.5 -4s-21.5 -4 -27.5 -4c-6.66699 0 -12.334 1.66699 -17.001 5c-10 5.33301 -21.667 8 -35 8c-16.667 0 -28.334 -3 -35.001 -9c-11.333 -12.667 -23 -21 -35 -25c-17.333 -6 -37.666 -29.667 -60.999 -71
c4 0 9 1.33301 15 4c2.66699 2 4.66699 3 6 3c-3.33301 -12.667 -10 -35.334 -20 -68.001l-14 -41c-6 -17.333 -9 -30.666 -9 -39.999c0 -18.667 11.333 -28 34 -28c12 0 29 2.66699 51 8zM229.001 669.001c-18.667 -18.667 -55.001 -37.667 -109.001 -57
c-14 -2.66699 -24.333 -4 -31 -4c-8 0 -12 1.66699 -12 5c0 2.66699 2.66699 8 8 16l1 1c14 30 35.667 52.667 65 68c16 10.667 26.333 16 31 16c10.667 0 26.334 -15 47.001 -45zM558 648.001c14 17.333 20.999 31.6689 20.999 43.002s-9.33301 28.333 -28 51
c-7.33301 11.333 -15.666 17 -24.999 17c-10 0 -24.667 -7 -44 -21c-0.666992 -2 -4 -3 -10 -3c-33.333 -1.33301 -88 -9.33301 -164 -24c-4.66699 15.333 -9.83398 30.166 -15.501 44.499s-18.5 21.5 -38.5 21.5c-16.667 -6 -30.667 -9 -42 -9
c-10 0 -19.167 2.66699 -27.5 8s-13.5 8 -15.5 8c-4 0 -8.66699 -2.66699 -14 -8c-31.333 -24 -63.333 -51 -96 -81c-10.667 -10 -23 -29 -37 -57l-3 -6c-15.333 -30.667 -23 -49 -23 -55c0 -12 7 -21.667 21 -29c11.333 -5.33301 24 -8 38 -8c36 0 79.333 11 130 33
c10 4 29 15.333 57 34c21.333 14 42.333 23 63 27c14.667 2.66699 42.334 8.66699 83.001 18c32.667 8 53.334 12 62.001 12c1.33301 0 3.66602 -0.333008 6.99902 -1h6l-107 -124l-74 -86c-45.333 -52.667 -91.666 -118.334 -138.999 -197.001l-110 -175
c-22 -33.333 -33 -53 -33 -59v-3c0.666992 -0.666992 1 -1.33398 1 -2.00098c3.33301 -6.66699 10.666 -10 21.999 -10c24 0 47.667 6.66699 71 20c27.333 14.667 41 33 41 55v2c-1.33301 7.33301 -10 11.333 -26 12l119 169c44 60.667 86 115.334 126 164.001
c62.667 75.333 130.667 148.333 204 219z" />
    <glyph glyph-name="ampersand" unicode="&#x26;" horiz-adv-x="761" 
d="M458 135c10 3.33301 23.666 9.99707 40.999 19.9971c9.33301 8 21.333 17 36 27c27.333 16 67.333 40.667 120 74c3.33301 2.66699 11 6.66699 23 12c8.66699 4.66699 15 10.334 19 17.001c35.333 20 53 30.667 53 32c-2.66699 0 -18.334 -6.33301 -47.001 -19l-48 -21
l-79 -35c-10.667 -5.33301 -22 -10.333 -34 -15c-20 -8 -46.333 -23 -79 -45c-20 -13.333 -33.667 -21.333 -41 -24c-15.333 11.333 -38.666 27.333 -69.999 48c-14.667 12.667 -39 29.667 -73 51c116.667 78 175 151 175 219c0 14.667 -2.66699 29 -8 43
c-13.333 25.333 -43.666 38 -90.999 38c-67.333 0 -131 -25.667 -191 -77c-22 -18.667 -36.667 -42 -44 -70c-5.33301 -19.333 -8 -47 -8 -83c0 -37.333 13.333 -73.666 40 -108.999c-102 -90.667 -153 -160.667 -153 -210c0 -36 15.333 -55 46 -57
c3.33301 0 6.66602 -0.333008 9.99902 -1h8c24.667 0 65.334 17 122.001 51l56 28c10.667 6 30.334 16.333 59.001 31c17.333 6 34.666 15 51.999 27c20.667 -14 42 -25 64 -33c15.333 -8 39.666 -17 72.999 -27c23.333 -2 56 -7 98 -15c9.33301 -3.33301 20 -5 32 -5
c24.667 0 53.334 8.33301 86.001 25c14.667 7.33301 23.667 12.333 27 15c13.333 10 20 24.333 20 43c0 6 -1.66699 9 -5 9c-1.33301 0 -3.5 -0.833008 -6.5 -2.5s-5.5 -2.5 -7.5 -2.5c-16.667 -7.33301 -31.667 -11 -45 -11s-39 3.33301 -77 10l-23 4l-67 12
c-25.333 4.66699 -46.333 13.334 -63 26.001zM315.999 111.997l-72 -40.9971c-62.667 -32.667 -108.334 -49 -137.001 -49c-8 1.33301 -12.833 3.16602 -14.5 5.49902s-3.16699 8.16602 -4.5 17.499c-0.666992 1.33301 -1 2.66602 -1 3.99902v11c0 24.667 12.333 50 37 76
c10 10.667 32.333 29.334 67 56.001c28.667 -24.667 70.334 -51.334 125.001 -80.001zM349.999 464c4 -10.667 6.00195 -21 6.00195 -31c0 -20.667 -11.667 -48 -35 -82l-84 -64c-22.667 14 -34 38.333 -34 73c0 22 2.33301 50.333 7 85
c1.33301 8.66699 5.66602 15.667 12.999 21c13.333 8 20.666 12.667 21.999 14c4 2.66699 11.333 4 22 4c12 0 27 -1.66699 45 -5c23.333 -4.66699 36 -9.66699 38 -15z" />
    <glyph glyph-name="quotesingle" unicode="'" horiz-adv-x="182" 
d="M318 538c64.667 88 102.666 169.333 113.999 244l-7 11c-7.33301 11.333 -13.333 17 -18 17c-23.333 -22 -36.666 -35 -39.999 -39c-14 -16.667 -21.667 -33 -23 -49c-3.33301 -44 -23 -92.667 -59 -146c-6.66699 -10 -10 -20.667 -10 -32c0 -10.667 5.66699 -16 17 -16
c2.66699 0.666992 6 1 10 1c6.66699 0.666992 12 3.66699 16 9z" />
    <glyph glyph-name="parenleft" unicode="(" horiz-adv-x="342" 
d="M38 205c-16 -36.667 -24 -66.332 -24 -88.999c0 -4 1 -14 3 -30c5.33301 -42.667 8.33301 -65.667 9 -69c4 -28 9.66699 -50.5 17 -67.5s21.666 -33.167 42.999 -48.5c4 -1.33301 11 -2 21 -2c60 0 99.333 10 118 30c13.333 29.333 20.333 45 21 47
c0 4.66699 -10.667 8 -32 10c-9.33301 0.666992 -19 1.5 -29 2.5s-19.667 4.16699 -29 9.5c-41.333 22 -62 60.667 -62 116c0 19.333 1.66699 35.333 5 48c22.667 86.667 42.667 150 60 190c12.667 28.667 42 77.334 88 146.001c14.667 22 31.667 45.667 51 71
c11.333 11.333 28.333 30.666 51 57.999c30 44 62 80 96 108c16.667 13.333 30.667 27 42 41c24.667 29.333 43 47 55 53c22 6.66699 35.667 11 41 13c12.667 5.33301 25.334 12.666 38.001 21.999c17.333 12.667 26 24.667 26 36c0 18 -15 27 -45 27
c-14.667 0 -33.667 -6.66699 -57 -20l-18 -10c-57.333 -40.667 -133.333 -110.667 -228 -210l-44 -46c-6.66699 -6.66699 -13.334 -18 -20.001 -34l-3 -7l-37 -72c-13.333 -25.333 -28.666 -51.333 -45.999 -78c-12 -18 -28.5 -51.833 -49.5 -101.5z" />
    <glyph glyph-name="parenright" unicode=")" horiz-adv-x="417" 
d="M335 255c33.333 36 59.6621 95.6641 78.9951 178.997c5.33301 22.667 16.666 88 33.999 196l13 78c0.666992 2.66699 2.33398 9 5.00098 19c8.66699 36 13 63.333 13 82c0 44.667 -5.33301 76 -16 94c-9.33301 15.333 -34.666 32.333 -75.999 51c-4 2.66699 -7 4 -9 4
c-6 0 -17 -10.333 -33 -31c-13.333 -16.667 -20 -31.667 -20 -45c0 -14.667 5.33301 -32.667 16 -54c18 -36 27 -76.333 27 -121c0 -18 -2 -39 -6 -63l-33 -200c-47.333 -129.333 -131.333 -240.666 -252 -333.999c-9.33301 -7.33301 -32.666 -37.666 -69.999 -90.999
c-44 -63.333 -68.833 -98.5 -74.5 -105.5s-8.5 -11.5 -8.5 -13.5s1.66699 -4.16699 5 -6.5s5.33301 -4.16602 6 -5.49902s1.33398 -2.33301 2.00098 -3c3.33301 -6.66699 6 -10 8 -10c3.33301 0 9 4.33301 17 13c20.667 9.33301 48.334 34 83.001 74
c44.667 51.333 71.667 81 81 89c42.667 38 97.334 90.667 164.001 158z" />
    <glyph glyph-name="asterisk" unicode="*" horiz-adv-x="476" 
d="M527 684c-64 0 -101.998 -1.66797 -113.998 -5.00098c-21.333 -6 -35.333 -10.333 -42 -13c-18.667 -8 -28.334 -17.667 -29.001 -29c-0.666992 -14 9.33301 -21 30 -21c8 0 18 1 30 3l30 5c12.667 1.33301 30 2 52 2c-8.66699 -3.33301 -19.334 -11 -32.001 -23
s-19.667 -22 -21 -30c-7.33301 -16.667 -11 -27 -11 -31c0 -1.33301 0.333008 -2 1 -2c2.66699 0 6.33398 1.66699 11.001 5c10 6.66699 17 10 21 10c13.333 0 28 6.66699 44 20c4 3.33301 11.333 9 22 17l5 4l-7 -81c0 -12.667 3.66699 -19 11 -19
c15.333 0 31.333 3.33301 48 10c28 12 42.333 18 43 18c3.33301 24.667 5.66602 40.334 6.99902 47.001c5.33301 24.667 11 39 17 43l74 12c12 2 22.667 5.66699 32 11c14 4.66699 21 9.66699 21 15s-9.33301 12.333 -28 21c-6.66699 -1.33301 -19 -2 -37 -2
s-39 0.666992 -63 2c14 6 44 24.667 90 56c21.333 18 32 30 32 36c0 5.33301 -6.66699 9 -20 11c-4.66699 2 -8.66699 3 -12 3c-8 0 -37.667 -13.667 -89 -41c6 30 9 50.333 9 61s-10 16 -30 16c-14 0 -27.667 -5.66699 -41 -17l-32 -33c-6 -4 -10.667 -15.667 -14 -35
c-1.33301 -8.66699 -4 -24 -8 -46z" />
    <glyph glyph-name="plus" unicode="+" horiz-adv-x="420" 
d="M1 299c-5.33301 -6 -8.00195 -11.999 -8.00195 -17.999c0 -11.333 11.333 -17 34 -17c2 0 7.66699 0.333008 17 1c27.333 2 46 3 56 3c12.667 0 19 -2 19 -6c0 -1.33301 -0.666992 -3 -2 -5c-23.333 -64.667 -35 -101.667 -35 -111c0 -4.66699 1.33301 -8 4 -10
c1.33301 -6 7.33301 -9 18 -9c6.66699 0 23.667 1.66699 51 5h5c0.666992 -0.666992 1.66699 -1 3 -1c4.66699 0 8.33398 3 11.001 9l4 8c20 36 35.333 67.667 46 95c6 15.333 12.667 23 20 23c27.333 1.33301 68.333 5.33301 123 12c12.667 1.33301 27 6 43 14
c2.66699 1.33301 6.66699 2.66602 12 3.99902c9.33301 1.33301 14 7 14 17c0 14.667 3.66699 25 11 31c-40 0 -87.333 -1.66699 -142 -5c-10.667 -0.666992 -18.667 -1 -24 -1c-6.66699 0 -10 1 -10 3s1 4 3 6l26 43c34 56 51 88.667 51 98
c0 0.666992 -0.333008 1.66699 -1 3v3c-5.33301 6.66699 -10.666 10 -15.999 10s-13.333 -1.66699 -24 -5c-5.33301 2 -10.333 3 -15 3c-18 0 -39.667 -16.333 -65 -49c-4.66699 -6 -21 -30 -49 -72l-28 -42c-15.333 3.33301 -29.333 5 -42 5c-40 0 -76.667 -15 -110 -45z
" />
    <glyph glyph-name="comma" unicode="," horiz-adv-x="352" 
d="M209 127c0 4 -2.99902 6 -8.99902 6c-17.333 0 -33.5 -6.5 -48.5 -19.5s-22.5 -27.833 -22.5 -44.5c6.66699 -40.667 10 -68.667 10 -84c0 -30.667 -15 -58.667 -45 -84c-7.33301 -9.33301 -18.333 -20 -33 -32c-8.66699 -2.66699 -19 -9.66699 -31 -21l-28 -26
c10.667 -2 19 -3 25 -3c15.333 0 43.666 11.667 84.999 35l56 32c6 4.66699 10.667 10.334 14 17.001c14.667 22 23.667 37.333 27 46c6.66699 15.333 10 32.666 10 51.999c0 14.667 -0.666992 30.667 -2 48z" />
    <glyph glyph-name="hyphen" unicode="-" horiz-adv-x="336" 
d="M332 250c2.66699 4 8.33496 8 17.002 12c6.66699 2.66699 10 7.33398 10 14.001c0 4.66699 0.333008 10.334 1 17.001v5c0 3.33301 -0.666992 5 -2 5c-0.666992 0 -1.33398 -0.333008 -2.00098 -1c-3.33301 -0.666992 -6 -1 -8 -1
c-8.66699 -0.666992 -21.667 -2.33398 -39 -5.00098c-42 -6 -79.667 -9 -113 -9c-74 -0.666992 -120.667 -15.667 -140 -45c-0.666992 -2 -3.5 -6.33301 -8.5 -13s-7.5 -10.334 -7.5 -11.001c0 -10.667 9.33301 -16 28 -16c13.333 0 50.333 6.33301 111 19
c4.66699 0.666992 12 2 22 4c23.333 2.66699 46.666 5 69.999 7c36.667 4.66699 57 10.667 61 18z" />
    <glyph glyph-name="hyphen" unicode="&#x2010;" horiz-adv-x="336" 
d="M332 250c2.66699 4 8.33496 8 17.002 12c6.66699 2.66699 10 7.33398 10 14.001c0 4.66699 0.333008 10.334 1 17.001v5c0 3.33301 -0.666992 5 -2 5c-0.666992 0 -1.33398 -0.333008 -2.00098 -1c-3.33301 -0.666992 -6 -1 -8 -1
c-8.66699 -0.666992 -21.667 -2.33398 -39 -5.00098c-42 -6 -79.667 -9 -113 -9c-74 -0.666992 -120.667 -15.667 -140 -45c-0.666992 -2 -3.5 -6.33301 -8.5 -13s-7.5 -10.334 -7.5 -11.001c0 -10.667 9.33301 -16 28 -16c13.333 0 50.333 6.33301 111 19
c4.66699 0.666992 12 2 22 4c23.333 2.66699 46.666 5 69.999 7c36.667 4.66699 57 10.667 61 18z" />
    <glyph glyph-name="period" unicode="." horiz-adv-x="410" 
d="M229 96c0 13.333 -0.334961 21.666 -1.00195 24.999c-2.66699 6.66699 -9 10.667 -19 12c-1.33301 0 -3.66602 0.333008 -6.99902 1h-5c-10 0 -19.333 -4.33301 -28 -13c-3.33301 -3.33301 -13 -9 -29 -17c-12 -5.33301 -20.667 -14.666 -26 -27.999
c-7.33301 -15.333 -18 -39 -32 -71c-3.33301 -7.33301 -5 -13.333 -5 -18c0 -3.33301 0.666992 -6.33301 2 -9c2 -5.33301 9.33301 -8 22 -8s26.834 2.66699 42.501 8s26.5 12.333 32.5 21l13 17c26.667 34 40 60.667 40 80z" />
    <glyph glyph-name="slash" unicode="/" horiz-adv-x="548" 
d="M171 191c120 185.333 264.334 362.999 433.001 532.999c2.66699 2.66699 12 17.667 28 45c-2 13.333 -6.66699 29.333 -14 48c-4.66699 12 -7 20 -7 24c-4.66699 10 -14.667 15 -30 15c-13.333 0 -25 -13.333 -35 -40c-4.66699 -12 -10.667 -24.333 -18 -37
c-15.333 -25.333 -48.333 -68 -99 -128l-107 -127l-105 -131c-16 -20 -29 -38.667 -39 -56l-74 -127l-49 -86c-12 -21.333 -42 -71.666 -90 -150.999c-8.66699 -14 -19 -29.667 -31 -47c3.33301 -11.333 7.5 -18.333 12.5 -21s13.833 -4 26.5 -4
c16 0 38.167 8.83301 66.5 26.5s44.166 33.5 47.499 47.5c0 16 -1.33301 26 -4 30c-4 6.66699 -13 10 -27 10z" />
    <glyph glyph-name="zero" unicode="0" horiz-adv-x="660" 
d="M596 713c-18.667 10.667 -36 16.001 -52 16.001c-7.33301 0 -18 -1 -32 -3s-24.333 -3 -31 -3c-63.333 -2 -112.666 -20.667 -147.999 -56c-27.333 -3.33301 -52 -21 -74 -53c-1.33301 -2 -4 -5.33301 -8 -10c-8 -11.333 -19.667 -29 -35 -53
c-1.33301 -6 -6.33301 -18.667 -15 -38c-11.333 -19.333 -21.666 -35.333 -30.999 -48l-8 -11c-8 -10.667 -15 -21.334 -21 -32.001c-64.667 -111.333 -97 -209.333 -97 -294c0 -28.667 2 -50 6 -64c4.66699 -16.667 15.334 -33.667 32.001 -51s33 -26 49 -26
c55.333 0 128 17 218 51c13.333 4.66699 30.666 15 51.999 31s37.833 26.5 49.5 31.5s25.5 11.5 41.5 19.5c11.333 7.33301 22.666 18 33.999 32c6 10.667 25.667 35 59 73l86 97l31 34c25.333 50 38 103 38 159c0 30.667 -2.33301 53.667 -7 69
c-12.667 41.333 -58.334 84.333 -137.001 129zM143 87.001c-10.667 18.667 -16.001 37.999 -16.001 57.999c0 6.66699 1.33301 23.5 4 50.5s4.5 41.833 5.5 44.5s2.5 5 4.5 7c20 30.667 49.333 81.334 88 152.001l69 132c8.66699 16.667 16 25 22 25
c2 0 4.66699 -0.5 8 -1.5s5.66602 -1.5 6.99902 -1.5c6.66699 -2 12.834 -10.5 18.501 -25.5s12.834 -22.5 21.501 -22.5s14.667 3.33301 18 10c0.666992 2.66699 2 10.334 4 23.001c2.66699 17.333 6.66699 29.666 12 36.999c8 10.667 12 22 12 34
c0 22.667 -7.66699 36.667 -23 42c38 0 77.667 -3.66699 119 -11c53.333 -9.33301 89.333 -23.333 108 -42c12.667 -12.667 19 -20.667 19 -24s-0.5 -7.83301 -1.5 -13.5s-1.5 -10.167 -1.5 -13.5c0 -17.333 4.33301 -41.333 13 -72v-8l1 -8
c0 -65.333 -34.333 -137.333 -103 -216c-31.333 -36 -80.333 -73.667 -147 -113c-44 -26 -74 -41.667 -90 -47c-22 -7.33301 -54.333 -11 -97 -11s-67.667 5 -75 15z" />
    <glyph glyph-name="one" unicode="1" horiz-adv-x="371" 
d="M261 769c-7.33301 -9.33301 -10.999 -24.001 -10.999 -44.001c0 -10 2.66699 -15 8 -15c2 0 4.33301 0.666992 7 2c24 19.333 45 31.666 63 36.999h1c8 1.33301 14 2 18 2c8 0 12 -2.66699 12 -8c0 -2 -11.667 -29 -35 -81c-29.333 -66 -67.333 -139.333 -114 -220
c-42 -72.667 -72 -126.667 -90 -162c-4 -8 -13.333 -33 -28 -75l-18 -52c-6.66699 -22 -17.334 -54.333 -32.001 -97c-9.33301 -23.333 -14 -38 -14 -44c0 -3.33301 1 -5.66602 3 -6.99902c3.33301 -3.33301 10.333 -5 21 -5h9c1.33301 0.666992 4.33301 1 9 1
c39.333 2.66699 61.333 26 66 70c6 58.667 26.667 124.667 62 198c20 41.333 54.333 102 103 182c39.333 64 66 109.333 80 136c44.667 83.333 73 158.333 85 225c0 4 -9.33301 10.333 -28 19c-2 0.666992 -3.66699 1.33398 -5 2.00098c-9.33301 6 -16.333 9 -21 9
c-2.66699 0 -8.66699 -1 -18 -3c-40.667 0 -75.667 -13.333 -105 -40l-12 -11c-2 -2 -6 -6.66699 -12 -14z" />
    <glyph glyph-name="two" unicode="2" horiz-adv-x="725" 
d="M567 599c-15.333 -44.667 -46.666 -88.333 -93.999 -131c-33.333 -30 -82.666 -68 -147.999 -114l-50 -35c-51.333 -36 -89.666 -65.667 -114.999 -89c-27.333 -25.333 -69.333 -70.333 -126 -135c-5.33301 -6 -8 -12 -8 -18c0 -8.66699 14 -26 42 -52
c8 -8 34.333 -12 79 -12c52 0 118.667 1.33301 200 4l201 6c18.667 0 31.667 -3.66699 39 -11c5.33301 -5.33301 14 -8 26 -8c26.667 0.666992 51.334 19.667 74.001 57c5.33301 11.333 8 21 8 29c0 24 -31 36 -93 36c-58.667 0 -121.667 -3 -189 -9
c-52 -4.66699 -86.333 -7 -103 -7c-5.33301 0 -19 0.666992 -41 2l-49 3c-58.667 3.33301 -88 6.33301 -88 9c0.666992 2 3.66699 4.66699 9 8l6 3c28.667 27.333 58.667 54.333 90 81c13.333 11.333 35.666 26.666 66.999 45.999c79.333 49.333 142.666 98.333 189.999 147
c16 11.333 38.333 30.333 67 57c23.333 26.667 55.666 67.334 96.999 122.001c11.333 18.667 17.333 39 18 61c0.666992 22.667 -25 53.334 -77 92.001c-24.667 22 -44.334 33.667 -59.001 35h-10c-3.33301 0.666992 -6.66602 1 -9.99902 1c-56 0 -128.667 -22.667 -218 -68
c-10 -5.33301 -27.333 -18 -52 -38c-4.66699 -3.33301 -12.334 -9.33301 -23.001 -18c-24 -20 -36 -41 -36 -63c0 -1.33301 0.333008 -4 1 -8v-8c0 -39.333 15.667 -59 47 -59c2 0 4 0.333008 6 1h9c14.667 2.66699 24.5 6.66699 29.5 12s7.5 15.333 7.5 30
c0 6 -0.833008 14.667 -2.5 26s-2.5 20 -2.5 26c0 11.333 4.66699 19.666 14 24.999c54 30.667 103.667 46 149 46c12.667 0 25 -0.5 37 -1.5s21.667 -4.5 29 -10.5c35.333 -28 53 -50 53 -66l-1 -2v-2z" />
    <glyph glyph-name="three" unicode="3" horiz-adv-x="696" 
d="M642 651l0.00488281 2.00195l1 3c0 24.667 -17.333 42.667 -52 54l-94 33c-39.333 13.333 -71.666 19.666 -96.999 18.999c-32.667 -1.33301 -58.667 -15.333 -78 -42l-1 -2c-0.666992 -2 -2.33398 -4.66699 -5.00098 -8c-4 -6.66699 -6 -11.667 -6 -15
c0 -8 4.66699 -15.667 14 -23c11.333 -18.667 23 -28 35 -28c7.33301 0 17 4.33301 29 13s21.333 13.334 28 14.001h1c9.33301 4 18.666 6 27.999 6c12 0 27.333 -4.66699 46 -14c30 -14.667 45 -28.667 45 -42c0 -12 -15 -27 -45 -45c-17.333 -7.33301 -42 -20.333 -74 -39
c-26 -15.333 -62.333 -34 -109 -56c-18.667 0 -33.667 -10 -45 -30c-4.66699 -8 -11.334 -26.333 -20.001 -55v-2c0 -4.66699 11 -8.33398 33 -11.001c14 -2 26.667 -4.66699 38 -8c14.667 -4.66699 38 -10.334 70 -17.001c86 -18 148.667 -43.333 188 -76
c4.66699 -5.33301 7 -11.666 7 -18.999c0 -34.667 -47.667 -80.334 -143 -137.001c-52.667 -31.333 -95 -50.666 -127 -57.999c-42.667 -10 -75 -15 -97 -15c-32.667 0 -70.334 19.667 -113.001 59c-16.667 15.333 -27 32.666 -31 51.999c-2 9.33301 -5.33301 14 -10 14
c-2.66699 0 -6.66699 -1 -12 -3h-16c-6.66699 0 -13.334 -7 -20.001 -21c-10.667 -17.333 -20 -31.666 -28 -42.999c-15.333 -22.667 -23 -36 -23 -40c0 -6 12.667 -15.667 38 -29c6 -2 24.333 -13 55 -33c26 -16 43.667 -23.667 53 -23c6 0.666992 18 1.66699 36 3
c88 6 151 17.667 189 35c78 22 167.667 76 269 162c10 2.66699 24 11 42 25c29.333 39.333 44 64.666 44 75.999c0 4 -3.33301 11.167 -10 21.5s-10.667 17.833 -12 22.5s-5 10.334 -11 17.001c-19.333 22 -41.333 36.667 -66 44c-11.333 3.33301 -36 12 -74 26
c-32.667 12 -74.334 25.333 -125.001 40l45 23c60.667 30.667 101 53 121 67c41.333 29.333 71 63.666 89 102.999z" />
    <glyph glyph-name="four" unicode="4" horiz-adv-x="765" 
d="M427 15c3.33301 71.333 37.3301 160.664 101.997 267.997c1.33301 1.33301 4 2 8 2c12.667 0 31.667 -3 57 -9s44.333 -9 57 -9c18.667 -0.666992 36.167 4.5 52.5 15.5s24.5 25.5 24.5 43.5c0 4.66699 -0.666992 9.33398 -2 14.001c-12 14.667 -56 22 -132 22h-6
c-5.33301 0.666992 -12.666 1 -21.999 1c-6 0 -9 2 -9 6s2.33301 11.667 7 23c41.333 71.333 82.333 179.666 123 324.999l16 56c0 3.33301 -5 9.33301 -15 18c-12 10.667 -18.667 17 -20 19c-2.66699 8 -12.334 12 -29.001 12c-31.333 0 -58 -16 -80 -48
c-12 -17.333 -45.667 -51.666 -101 -102.999c-31.333 -28.667 -67.666 -59.334 -108.999 -92.001c-17.333 -13.333 -34.666 -29.666 -51.999 -48.999c-26.667 -29.333 -53.667 -52.333 -81 -69c-4.66699 -2.66699 -23 -18.667 -55 -48l-113 -103
c-6 -5.33301 -18.667 -20.333 -38 -45c-4.66699 -6 -7 -10.667 -7 -14c0 -2.66699 1.83301 -6 5.5 -10s5.5 -7.33301 5.5 -10s-1 -5.66699 -3 -9s-3 -6 -3 -8c0 -9.33301 10.333 -14 31 -14c17.333 0 40.333 3.33301 69 10l69 16c36.667 8 75.334 15.333 116.001 22l72 11
l30 5l3 1c13.333 2 21.333 3 24 3c3.33301 0 5 -1 5 -3s-6.33301 -12.667 -19 -32c-2.66699 -6 -8 -18.667 -16 -38c-34.667 -79.333 -52 -139.666 -52 -180.999c0 -1.33301 0.333008 -4.66602 1 -9.99902v-10c1.33301 -11.333 11 -17 29 -17c10.667 6 21.667 11.667 33 17
c16 9.33301 24 16.333 24 21zM474.997 367.998c-2.66699 -4 -17.668 -8.33203 -45.001 -12.999c-36 -6 -72.667 -13.667 -110 -23l-67 -18c-7.33301 -2 -16.333 -4.33301 -27 -7c-1.33301 0 -14 -1 -38 -3c-31.333 -2.66699 -50.666 -4 -57.999 -4c-10 0 -15 1.33301 -15 4
c0.666992 2 3.33398 5 8.00098 9c14 11.333 70.667 62.333 170 153c8 7.33301 24 19.333 48 36c17.333 12 48.666 38.333 93.999 79c16 14 45.667 41.333 89 82c28 26.667 45.333 40 52 40c3.33301 0 5 -2.66699 5 -8c0 -52 -11.333 -108.333 -34 -169
c-13.333 -36.667 -37.333 -89.334 -72 -158.001z" />
    <glyph glyph-name="five" unicode="5" horiz-adv-x="746" 
d="M66 104c5.33301 8.66699 12.335 14.3252 21.002 16.9922c11.333 4 21 13 29 27l1 1c12.667 19.333 19 31.666 19 36.999c0 4 -2 6 -6 6c-2 0 -6.33301 -1 -13 -3c-26.667 -8 -46.167 -15.667 -58.5 -23s-27.833 -21 -46.5 -41
c-2.66699 -2.66699 -4.33398 -4.66699 -5.00098 -6c-30.667 -36.667 -46 -60 -46 -70c0 -9.33301 5.33301 -15.666 16 -18.999l6 -2c64 -21.333 121.667 -32 173 -32c30 0 54.667 1 74 3c22 2.66699 64.667 7 128 13l13 1c10 0.666992 20.667 3.33398 32 8.00098
c8 8 22.667 15 44 21c101.333 50.667 181 123.334 239 218.001c6 10 9 24.667 9 44c0 24 -4 47.333 -12 70c-10.667 31.333 -63.334 59.333 -158.001 84c-16.667 4.66699 -78.667 17.667 -186 39c-12.667 2.66699 -19 8.66699 -19 18c0 10 15 31 45 63l30 33
c14 -17.333 25.333 -26 34 -26c4.66699 0 12.667 3.33301 24 10l4 3c6.66699 4.66699 19 9.33398 37 14.001c29.333 7.33301 62 18.333 98 33c27.333 6 62.666 17 105.999 33c54.667 20.667 107.334 37.334 158.001 50.001c4 2 11.667 12 23 30
c3.33301 5.33301 5 10.333 5 15c0 7.33301 -4.33301 11 -13 11c-0.666992 0 -2.33398 -0.333008 -5.00098 -1s-4.66699 -1 -6 -1c-49.333 -14.667 -114.333 -31.667 -195 -51c-63.333 -15.333 -117 -29 -161 -41l3 8c3.33301 8.66699 5 14.667 5 18
c0 2 -7.33301 5.66699 -22 11c-16.667 6 -28.667 9 -36 9c-5.33301 0 -18.666 -8.33301 -39.999 -25c-97.333 -75.333 -158.333 -144.666 -183 -207.999c-2 -5.33301 -3 -10.666 -3 -15.999c0 -42 70.667 -73.667 212 -95c98 -14.667 147 -52.334 147 -113.001
c0 -21.333 -6.33301 -46.666 -19 -75.999c-3.33301 -7.33301 -15.333 -18.666 -36 -33.999c-12.667 -9.33301 -23 -17.666 -31 -24.999c-76.667 -55.333 -158 -83 -244 -83c-62 0 -125.667 14.333 -191 43z" />
    <glyph glyph-name="six" unicode="6" horiz-adv-x="675" 
d="M425 310c30 0.666992 54.666 -6.00195 73.999 -20.002c22 -16 33 -38.667 33 -68c0 -19.333 -4.66699 -36 -14 -50c-34.667 -37.333 -86.667 -67.333 -156 -90c-7.33301 -2.66699 -21 -6.66699 -41 -12c-9.33301 -2 -25.333 -3 -48 -3
c-87.333 0.666992 -137.333 18 -150 52c-1.33301 6.66699 -2 12.334 -2 17.001c0 10.667 9.33301 25.334 28 44.001l41 40.5c13.333 13.667 22 21.5 26 23.5c88.667 42.667 158.334 64.667 209.001 66zM558.999 889.998c-18.667 -15.333 -51.333 -45.0029 -98 -89.0029
c-24.667 -25.333 -61.334 -68.333 -110.001 -129c-32 -40 -53.667 -66.333 -65 -79c-7.33301 -26 -18.333 -51.667 -33 -77c-4.66699 -8 -37 -55.667 -97 -143l-54 -70c-20.667 -28 -35.334 -53.667 -44.001 -77c-10.667 -30.667 -16 -52.667 -16 -66
c-44 -45.333 -66.333 -82 -67 -110c0 -11.333 3 -17 9 -17c2 0 6 1.33301 12 4l3 1c33.333 6 55 16.667 65 32l8 -17c12.667 -27.333 26.334 -45 41.001 -53c12.667 -6.66699 34.667 -10 66 -10h16c6.66699 0 16.667 -0.5 30 -1.5s23.333 -1.5 30 -1.5c8 0 14 1 18 3
c4.66699 4.66699 27 12.667 67 24c30 8.66699 52.667 15.667 68 21c30 10.667 51 21.334 63 32.001c12.667 7.33301 31 20 55 38c13.333 13.333 24.333 22.333 33 27c41.333 22.667 62 72.667 62 150c0 21.333 -5 37.333 -15 48c-16 17.333 -33.667 32.333 -53 45
c-8 5.33301 -14.333 8 -19 8c-22.667 2.66699 -43 4 -61 4c-54 0 -100 -10.333 -138 -31c-0.666992 -0.666992 -7.66699 -4 -21 -10c-60 -27.333 -112.667 -55.666 -158 -84.999c37.333 50 75 107.667 113 173c15.333 26.667 47.333 71.334 96 134.001
c61.333 79.333 126 154.666 194 225.999c-2.66699 -13.333 -4 -22.666 -4 -27.999c0 -8.66699 4.66699 -14 14 -16c12 0 28 15 48 45c14.667 23.333 28.334 52 41.001 86c2.66699 5.33301 4 9 4 11c0 4 -6.33301 6.33301 -19 7c-4.66699 0.666992 -12.834 2.5 -24.501 5.5
s-20.167 4.5 -25.5 4.5c-7.33301 0 -16.666 -4.66699 -27.999 -14z" />
    <glyph glyph-name="seven" unicode="7" horiz-adv-x="534" 
d="M520 690c-50 -62 -98.3379 -113.67 -145.005 -155.003c-11.333 -10 -28.666 -24.333 -51.999 -43c-21.333 -4.66699 -36.333 -7 -45 -7c-8 0 -20.333 3.33301 -37 10c-1.33301 0 -4 0.666992 -8 2s-7 2 -9 2c-4 0 -9.33301 -2 -16 -6s-11.667 -6 -15 -6
c-8.66699 0 -15.667 -4.16699 -21 -12.5s-8 -17.166 -8 -26.499c0 -14 6.33301 -24.333 19 -31c16.667 0 40.334 -2.66699 71.001 -8c-6.66699 -3.33301 -21 -18.333 -43 -45c-18 -21.333 -30.333 -37.666 -37 -48.999c-11.333 -25.333 -35.666 -62.666 -72.999 -111.999
c-27.333 -36 -46.333 -63 -57 -81c-20 -34.667 -30 -65.334 -30 -92.001c0 -18 4 -35.667 12 -53c36.667 1.33301 59 10.333 67 27c8 10 12 17.667 12 23c0 4 -5 7.33301 -15 10c-6 1.33301 -9 2.66602 -9 3.99902c0 5.33301 15.333 32.333 46 81l40 64c18 30 29 52 33 66
c5.33301 18 27.666 47.333 66.999 88l75 79c58 0 98.667 5.33301 122 16c10 4.66699 18.333 7.33398 25 8.00098c40.667 15.333 61 27 61 35c0 6 -4.33301 9 -13 9c-4 0 -9.5 -1.16699 -16.5 -3.5s-12.167 -3.5 -15.5 -3.5c-2.66699 0 -9.66699 2.33301 -21 7
s-20.333 7.33398 -27 8.00098c-17.333 1.33301 -30 3.33301 -38 6c44 39.333 82.667 76.333 116 111l28 29c1.33301 2 6 7.33301 14 16c23.333 32 35 60.667 35 86c0 32 -18 48 -54 48s-87 3.66699 -153 11c-71.333 7.33301 -122.666 11.333 -153.999 12
c-3.33301 1.33301 -6 2 -8 2c-6 0 -10.333 -7.33301 -13 -22c-6.66699 -11.333 -16.334 -25 -29.001 -41c-4 -4.66699 -6.33301 -8.33398 -7 -11.001c0 -2.66699 5.66699 -7 17 -13c8.66699 -3.33301 20.334 -5 35.001 -5h20l35 1h8c4.66699 -0.666992 8.33398 -1 11.001 -1
h24c52.667 -1.33301 111.334 -12.666 176.001 -33.999z" />
    <glyph glyph-name="eight" unicode="8" horiz-adv-x="732" 
d="M564 97c-58 -23.333 -148.334 -35 -271.001 -35c-14 0 -29.667 4 -47 12c-2 1.33301 -7 3.33301 -15 6c-51.333 19.333 -91.666 47.333 -120.999 84c-6.66699 12 -10 20.667 -10 26c0 -1.33301 2 4 6 16c8.66699 26 43 56.667 103 92c40 24 84 46 132 66
c21.333 -20 48.666 -43.667 81.999 -71c3.33301 -2.66699 17 -12 41 -28c0.666992 -1.33301 11.334 -8.33301 32.001 -21c38.667 -24 63 -40 73 -48c30.667 -24 45.667 -47 45 -69c0 -12.667 -8.33301 -20.334 -25 -23.001c-8 -1.33301 -16.333 -3.66602 -25 -6.99902z
M502.999 533c-14 -11.333 -35.333 -27.665 -64 -48.998c-16.667 -7.33301 -41.667 -17 -75 -29c-22.667 33.333 -34 65.666 -34 96.999c0 30 11.333 62.667 34 98c32 49.333 90 75.333 174 78h16c52.667 -1.33301 83.667 -16.333 93 -45v-2l1 -2
c0 -20.667 -19.333 -48.334 -58 -83.001c-30.667 -27.333 -59.667 -48.333 -87 -63zM139.999 21.001c27.333 -15.333 69 -24.0029 125 -26.0029c16 -0.666992 49.333 -1 100 -1c23.333 0 55 3.66699 95 11l97 19c16.667 0.666992 28.667 5.33398 36 14.001
c4.66699 5.33301 11.334 9 20.001 11c32 6.66699 53.667 20 65 40c9.33301 16 13.666 41.667 12.999 77c-0.666992 23.333 -20.334 50.666 -59.001 81.999c-33.333 26.667 -64.333 44.334 -93 53.001c-7.33301 2 -13.166 6.16699 -17.499 12.5s-7.5 10.166 -9.5 11.499
c-27.333 18 -59.666 43 -96.999 75l-7 6c20.667 8.66699 48 24.667 82 48l19 13c12.667 6 31.334 16.667 56.001 32c75.333 56.667 131 118.334 167 185.001c16.667 30.667 25 54.334 25 71.001c0 26.667 -20 43.667 -60 51c-21.333 4 -45.333 6 -72 6
c-37.333 0 -68.333 -3 -93 -9c-126.667 -30.667 -214.334 -85.667 -263.001 -165c-14.667 -24 -22 -51.667 -22 -83c0 -43.333 16.333 -92.666 49 -147.999c-20 -8.66699 -49 -24 -87 -46l-39.5 -21.5c-13 -7 -25.167 -15.833 -36.5 -26.5
c-13.333 -12.667 -26 -19.334 -38 -20.001c-22 -12.667 -41.667 -30 -59 -52c-20 -26 -30 -50 -30 -72c0 -26 18.333 -56 55 -90c27.333 -25.333 53.666 -44.666 78.999 -57.999z" />
    <glyph glyph-name="nine" unicode="9" horiz-adv-x="488" 
d="M26 -120c1.33301 -15.333 7.66602 -22.9971 18.999 -22.9971c2 0 15 5.33301 39 16c13.333 6 21.666 23.333 24.999 52c2.66699 21.333 13.667 46.333 33 75c3.33301 5.33301 20.333 27 51 65l51 64c15.333 15.333 37.333 46.666 66 93.999l28 44l24 37
c30 46 50.333 80.333 61 103c19.333 40.667 29 79 29 115c29.333 13.333 55.666 35.666 78.999 66.999c11.333 15.333 30 45.333 56 90c16 28 24.333 47 25 57l2 36c0 20 -11 35 -33 45c-6 7.33301 -12 11 -18 11s-13.333 -2.66699 -22 -8
c-21.333 -0.666992 -48 -4.33398 -80 -11.001c-5.33301 -2.66699 -19.333 -5.66699 -42 -9c-15.333 -2 -25.666 -4 -30.999 -6c-4 0 -9.33301 0.333008 -16 1h-11c-17.333 0 -32.333 -4.33301 -45 -13c-5.33301 -3.33301 -13.333 -8.66602 -24 -15.999
c-2 -1.33301 -9.66699 -8 -23 -20l-89 -79c-35.333 -31.333 -59 -59 -71 -83c-17.333 -34.667 -31.333 -70 -42 -106c-4.66699 -15.333 -7 -27.666 -7 -36.999c0 -11.333 4.66699 -26 14 -44c4.66699 -6.66699 7 -11.334 7 -14.001c3.33301 -6 8 -9 14 -9
c6.66699 0 17.667 1 33 3l15 2c22.667 2.66699 54.334 12 95.001 28l102 37c-7.33301 -16.667 -38 -72 -92 -166l-47 -82c-21.333 -36 -38.666 -61.667 -51.999 -77c-80.667 -90.667 -121.667 -170.334 -123 -239.001zM409 549.003c-8 -8 -20.998 -18.6641 -38.998 -31.9971
l-58 -27l-54 -27c-22.667 -10.667 -41.334 -16 -56.001 -16s-27.667 3 -39 9c-14.667 7.33301 -22 17.666 -22 30.999c0 29.333 35.333 86.333 106 171c9.33301 11.333 23 22.666 41 33.999l29 19c5.33301 4.66699 10.666 7 15.999 7c10.667 0 16 -8.33301 16 -25
c0 -2 2.33301 -3 7 -3c10 0 24 3.83301 42 11.5s28.333 15.167 31 22.5l1 3v2c0 3.33301 -2 7.83301 -6 13.5s-6 8.83398 -6 9.50098c6 2.66699 12.333 4 19 4s16 -2 28 -6l3 -1c14.667 -4.66699 24.667 -9.83398 30 -15.501s8 -15.834 8 -30.501
c0 -34 -9.33301 -64.667 -28 -92c-4.66699 -10 -12.667 -23.333 -24 -40c-10.667 -4 -25.667 -11.333 -45 -22z" />
    <glyph glyph-name="colon" unicode=":" horiz-adv-x="288" 
d="M163 186c-52.667 -7.33301 -81.667 -40.001 -87 -98.001c-0.666992 -12 -2 -33.333 -4 -64c8.66699 0.666992 21 2.33398 37 5.00098c18 16 28 25.333 30 28c10 10.667 15 23 15 37c0 30.667 5.66699 58 17 82c2 4 3 7 3 9c-0.666992 1.33301 -2 2 -4 2l-3 -1h-4z
M189 296.999c21.333 0 38.333 6.33398 51 19.001c8 5.33301 12 10.666 12 15.999c0 1.33301 -0.333008 3.33301 -1 6s-1 4.66699 -1 6v40c0 4 0.333008 8 1 12v7c0 12 -1 20.167 -3 24.5s-8 6.5 -18 6.5h-2c-39.333 0 -60.333 -11.667 -63 -35v-11
c-0.666992 -5.33301 -1 -9.33301 -1 -12c0 -52.667 8.33301 -79 25 -79z" />
    <glyph glyph-name="semicolon" unicode=";" horiz-adv-x="314" 
d="M137 10c48.667 95.333 73.002 149.334 73.002 162.001c-0.666992 5.33301 -5.66699 8 -15 8l-6 -1h-9c-22.667 0 -43 -22.667 -61 -68c-34.667 -86 -71 -157 -109 -213c-16 -23.333 -33.667 -47 -53 -71c-17.333 -16.667 -29.666 -36 -36.999 -58l-6 -12
c0 -1.33301 1 -2 3 -2c15.333 0 29.666 4 42.999 12c16 9.33301 24 21 24 35c7.33301 5.33301 26.666 23.666 57.999 54.999c27.333 27.333 54.666 69.666 81.999 126.999c2 4.66699 6.33301 13.334 13 26.001zM245.002 437.001
c-11.333 0.666992 -20.666 -2.66602 -27.999 -9.99902l-4 -3c-14 -7.33301 -23.333 -15 -28 -23l-11 -27l-2 -5c-13.333 -33.333 -20 -53 -20 -59c0 -3.33301 0.666992 -6 2 -8c2 -7.33301 5.33301 -11 10 -11c1.33301 0 5.66602 1.66699 12.999 5l5 2
c15.333 2.66699 28 9.66699 38 21c0 0.666992 7.66699 12.667 23 36c8 12.667 12.333 24.334 13 35.001c1.33301 15.333 3 25.666 5 30.999c0.666992 1.33301 1 2.66602 1 3.99902c0 7.33301 -5.66699 11.333 -17 12z" />
    <glyph glyph-name="less" unicode="&#x3c;" horiz-adv-x="572" 
d="M501 195c8 1.33301 13.334 4.99902 16.001 10.999c3.33301 12.667 5 20.667 5 24c0 4 -3.33301 6.33301 -10 7c-10 0.666992 -29.667 7.33398 -59 20.001c-31.333 14 -58 22.333 -80 25c-43.333 4.66699 -83.666 12.334 -120.999 23.001c-15.333 6.66699 -27 10 -35 10
c-2 0 -5.33301 -0.5 -10 -1.5s-8 -1.5 -10 -1.5c43.333 20.667 86 39.667 128 57c55.333 13.333 117.666 36 186.999 68c23.333 10.667 40.333 21.334 51 32.001c4.66699 4.66699 10.667 12 18 22c2 2 3.33301 3.66699 4 5c5.33301 6.66699 8 12.667 8 18c0 8 -7 12 -21 12
c-12 0 -23.667 -2 -35 -6c-54.667 -19.333 -122.667 -49.333 -204 -90c-29.333 -14.667 -49.333 -24.334 -60 -29.001c-28.667 -12.667 -49.334 -19.334 -62.001 -20.001c-7.33301 -0.666992 -24 -7.66699 -50 -21c-8.66699 -4.66699 -29 -13 -61 -25
c-26 -10 -44.667 -20 -56 -30c-29.333 -26 -44 -46.667 -44 -62c0 -4 7.66699 -9 23 -15l195 -10c77.333 -6.66699 140.333 -18.667 189 -36c5.33301 -2 15.666 -3 30.999 -3c24.667 0 38.834 2.33301 42.501 7s10.5 7.66699 20.5 9z" />
    <glyph glyph-name="equal" unicode="=" horiz-adv-x="642" 
d="M199 378v-0.999023c-4.66699 -10.667 -7 -17.667 -7 -21c0 -6 5.66699 -9 17 -9h10c22 0 55 0.5 99 1.5s77 1.5 99 1.5c10.667 0 61.667 -0.666992 153 -2c14 0 28.667 4 44 12c18 9.33301 27 20.666 27 33.999c0 7.33301 -5.33301 13 -16 17
c-4 0.666992 -7.33301 2 -10 4c-5.33301 2 -10 3 -14 3c-40.667 -2 -89 -3 -145 -3c-78.667 0 -140.667 1.33301 -186 4c-13.333 -0.666992 -27 -4.66699 -41 -12c-16 -8 -26 -17.667 -30 -29zM114 250.001c90 4.66699 173.998 6.99902 251.998 6.99902
c2.66699 0 34.667 -0.666992 96 -2c37.333 -0.666992 60 7.33301 68 24c0.666992 1.33301 1.66699 3 3 5c4 9.33301 6 16.333 6 21c0 8.66699 -5 13 -15 13c-1.33301 0 -3.66602 -0.333008 -6.99902 -1s-5.66602 -1 -6.99902 -1c-18.667 -2.66699 -38.667 -4 -60 -4
c-46.667 0 -118.667 4.66699 -216 14l-52 5c-1.33301 0 -4.33301 0.333008 -9 1h-8c-20.667 0 -44 -15 -70 -45c-10 -11.333 -15 -19.666 -15 -24.999c0 -6.66699 11.333 -10.667 34 -12z" />
    <glyph glyph-name="greater" unicode="&#x3e;" horiz-adv-x="452" 
d="M140 173c-18.667 -8.66699 -51.334 -25.666 -98.001 -50.999c-8.66699 -5.33301 -18.667 -15.333 -30 -30s-17 -26.334 -17 -35.001c0 -2.66699 1.33301 -4 4 -4h5c2 -0.666992 3.33301 -1 4 -1c10 0 19 4 27 12c24.667 25.333 53.334 45 86.001 59
c36 11.333 77.333 26.333 124 45c9.33301 4 16.333 9.33301 21 16c14 12.667 33.667 24 59 34c53.333 20.667 86.666 46 99.999 76c2 4.66699 3 9 3 13c0 17.333 -19.333 35.333 -58 54l-21 10c-66 31.333 -107.333 47 -124 47c-10 0 -18.667 -5.66699 -26 -17v-1
c-2.66699 -6.66699 -4 -11.334 -4 -14.001c0 -14 38.667 -44.667 116 -92c14.667 -8.66699 22 -17 22 -25c0 -4 -3.33301 -6 -10 -6c-16.667 -9.33301 -26.667 -15.666 -30 -18.999c-5.33301 -2.66699 -15.333 -5.66699 -30 -9c-10.667 -2 -21 -8 -31 -18
c-12 -12 -26.333 -19.333 -43 -22c-3.33301 -0.666992 -19.666 -8 -48.999 -22z" />
    <glyph glyph-name="question" unicode="?" horiz-adv-x="519" 
d="M90 299c0 -0.666992 -0.329102 -1.99707 -0.996094 -3.99707v-7c0 -14.667 4.16699 -31.667 12.5 -51s17.833 -33 28.5 -41c23.333 -18 46.333 -27 69 -27c6.66699 0 36 4.33301 88 13c8.66699 1.33301 24.667 4 48 8c2 0.666992 3.66699 1 5 1c6 1.33301 9 4 9 8
c0 3.33301 -1 7.66602 -3 12.999c-4 11.333 -7 17 -9 17h-3c-2 -1.33301 -3.66699 -2 -5 -2c-58.667 0 -97.334 6.33301 -116.001 19l-3 2c-26 17.333 -39 37 -39 59c0 18 7.66699 39 23 63c12.667 19.333 44.667 53.333 96 102c46 43.333 91 83.666 135 120.999
c18.667 16 31 25.333 37 28c24.667 12 53.667 44.333 87 97c3.33301 5.33301 5 10.333 5 15s-1.83301 11 -5.5 19s-5.83398 13.667 -6.50098 17c-4.66699 33.333 -43 50 -115 50c-46 0 -85 -7 -117 -21c-24.667 -10.667 -58.334 -32.667 -101.001 -66
c9.33301 -2 19.666 -7.66699 30.999 -17c7.33301 -6 12.333 -9 15 -9c3.33301 0 6 1.33301 8 4c6.66699 8.66699 14.667 13 24 13c8 0 17 -4 27 -12c3.33301 -3.33301 5.66602 -5 6.99902 -5c4 0 9 7.66699 15 23c1.33301 2 2 3.66699 2 5c0 4 -2.33301 7 -7 9
c26.667 2.66699 49 4 67 4c38 0 58.333 -8 61 -24c-1.33301 -19.333 -7 -35 -17 -47c-17.333 -20.667 -49.666 -48.667 -96.999 -84c-34.667 -26 -63.334 -51 -86.001 -75c-2.66699 -3.33301 -24.667 -25.333 -66 -66c-49.333 -48.667 -83.666 -99.334 -102.999 -152.001z
M85.0039 -18.9971c4 -1.33301 11.6689 -1.99805 23.002 -1.99805c33.333 0 55 3.66699 65 11c2 1.33301 5 3.66602 9 6.99902c10 10.667 15 18 15 22c0 2 -4.33301 4.66699 -13 8c-3.33301 1.33301 -8.66602 3.66602 -15.999 6.99902c-4 2 -9.66699 4.66699 -17 8
c-1.33301 0.666992 -5.83301 3.5 -13.5 8.5s-12.834 7.5 -15.501 7.5s-7.33398 -1 -14.001 -3c-8.66699 -4 -17.334 -11.167 -26.001 -21.5s-13 -19.833 -13 -28.5c0 -12.667 5.33301 -20.667 16 -24z" />
    <glyph glyph-name="at" unicode="@" horiz-adv-x="612" 
d="M218 -67c26 3.33301 39.6699 5.33789 41.0029 6.00488c16.667 3.33301 28.834 8.83301 36.501 16.5s18.667 12.167 33 13.5s26.5 8 36.5 20c-60.667 -12.667 -102.334 -19 -125.001 -19c-11.333 0 -30.333 1.66699 -57 5c-4.66699 0.666992 -8.66699 1 -12 1
c-54.667 1.33301 -94 14.333 -118 39c-11.333 18 -17 36 -17 54c0 28.667 18 73.667 54 135l45 77c16.667 28 34 52.667 52 74c10 12 26 29.667 48 53c63.333 51.333 121 77 173 77c26 0 66 -5.33301 120 -16c12 -0.666992 18.667 -5.33398 20 -14.001
c1.33301 -4.66699 3.66602 -7.66699 6.99902 -9c17.333 -16 26 -47 26 -93c0 -53.333 -14.667 -99 -44 -137c-22 -28.667 -44 -50.667 -66 -66c-11.333 -8 -20.666 -12 -27.999 -12c-9.33301 0 -14 8.33301 -14 25c0 35.333 15 78.666 45 129.999c8 10 12.667 21.333 14 34
c0 8 3.33301 12.667 10 14c-5.33301 11.333 -14.333 24.666 -27 39.999c-1.33301 0.666992 -3 2 -5 4c-8.66699 5.33301 -17.334 8 -26.001 8c-12.667 0 -33.167 -7.5 -61.5 -22.5s-47.5 -27.833 -57.5 -38.5c-38.667 -30.667 -75.667 -69.667 -111 -117
c-30 -40 -47.333 -78 -52 -114c0 -18 17 -27 51 -27c14.667 0 35.667 11.667 63 35s43.666 42.666 48.999 57.999v0c3.33301 7.33301 5 11.666 5 12.999l-1 1c-4.66699 -3.33301 -17.334 -13.333 -38.001 -30c-14.667 -12 -30 -18 -46 -18c-8 0 -12 2.66699 -12 8v2
c0.666992 1.33301 1 2.33301 1 3c13.333 34 34.833 67.5 64.5 100.5s60.5 57.833 92.5 74.5c0.666992 0 1.83398 0.333008 3.50098 1s3.16699 1 4.5 1c16.667 0 25 -5 25 -15c0 -6 -5.33301 -12.667 -16 -20c-43.333 -60 -65 -118 -65 -174c0 -19.333 1.33301 -32.333 4 -39
c4 -12.667 14 -19 30 -19c29.333 0 68.333 17 117 51c73.333 51.333 120 102.666 140 153.999c14.667 38 22 74.667 22 110c0 45.333 -13.333 87.666 -40 126.999c-12.667 18.667 -32.667 32.334 -60 41.001c-16.667 3.33301 -34 5 -52 5
c-75.333 0 -151.333 -21.667 -228 -65c-16.667 -9.33301 -35.334 -24.666 -56.001 -45.999c-4.66699 -4.66699 -9.66699 -7.66699 -15 -9l-9 -4c-8 -4.66699 -22 -19.667 -42 -45c-28 -35.333 -59 -80 -93 -134c-53.333 -84.667 -80 -154 -80 -208
c0 -45.333 22 -76.333 66 -93l4 -2c28 -10.667 51.333 -16 70 -16c12 0 45.667 3.66699 101 11z" />
    <glyph glyph-name="A" unicode="A" horiz-adv-x="797" 
d="M683 723l10.999 -28.998c13.333 -34 20 -57.333 20 -70s-3 -26.334 -9 -41.001c-3.33301 -8.66699 -6 -24.334 -8 -47.001c-3.33301 -32 -5 -48.667 -5 -50l-33 -220c-8 -54.667 -14.333 -85 -19 -91c-2 -2.66699 -4.66699 -4 -8 -4c-8 0 -13.333 2.66699 -16 8
c-13.333 10 -31 30.333 -53 61c-24 32.667 -43 55 -57 67l-20 17c-14.667 13.333 -39 33 -73 59l100 122c2.66699 1.33301 14.334 15.333 35.001 42c29.333 25.333 74.333 84 135 176zM770.999 551.002c4.66699 35.333 9.66699 56.3301 15 62.9971
c11.333 11.333 17 25.333 17 42v9c0.666992 6 1 10.667 1 14v27c0 40 -2 67.333 -6 82v2c-2 9.33301 -15.333 19.666 -40 30.999c-14.667 6.66699 -25.334 10.334 -32.001 11.001c-9.33301 0 -29.666 -15.667 -60.999 -47c-29.333 -28 -48 -48.667 -56 -62l-4 -5
c-26 -38.667 -68 -96 -126 -172l-13 -17c-31.333 -43.333 -61.666 -79.666 -90.999 -108.999c-12 10.667 -28 23.667 -48 39c-5.33301 4 -10 6.33301 -14 7c-18 4.66699 -32.333 7 -43 7c-9.33301 0 -14.666 -1.33301 -15.999 -4c-12.667 -16.667 -29 -27 -49 -31
c-17.333 -5.33301 -26 -12.666 -26 -21.999c0 -3.33301 1.33301 -6.66602 4 -9.99902c0 -24 6.33301 -36 19 -36c4.66699 0 11.167 0.666992 19.5 2s14.833 2 19.5 2c15.333 0 35 -13 59 -39l-25 -33c-13.333 -17.333 -31.666 -39 -54.999 -65l-22 -23l-167 -165
c-2.66699 -2.66699 -7.33398 -11.334 -14.001 -26.001c-4.66699 -10 -11.334 -15 -20.001 -15s-18.334 -6.33301 -29.001 -19l-23 -28c-3.33301 -4.66699 -9 -15.5 -17 -32.5s-12 -27.167 -12 -30.5l-2 -3c-0.666992 -2.66699 -1 -4.66699 -1 -6s1.33301 -2 4 -2
s7 0.666992 13 2h4c2.66699 0 5.16699 -1.16699 7.5 -3.5s4.5 -3.5 6.5 -3.5h2c1.33301 0.666992 2.33301 1 3 1c7.33301 5.33301 18.333 11.333 33 18c21.333 10.667 33.333 18 36 22c20.667 35.333 54.334 80.666 101.001 135.999c22 26 52.667 59.667 92 101l133 142
c15.333 -6.66699 36 -22 62 -46l61 -55c8.66699 -8 27 -34.667 55 -80c16.667 -27.333 26.667 -41.666 30 -42.999c6 -2 16.833 -14.5 32.5 -37.5s25.834 -34.5 30.501 -34.5c7.33301 0 22.5 8.16699 45.5 24.5s36.833 28.166 41.5 35.499c8.66699 14 15.667 59.333 21 136
c1.33301 20.667 2.66602 35.334 3.99902 44.001c4 16 8 49.333 12 100c2.66699 32.667 4.66699 55.334 6 68.001c0.666992 2.66699 2.5 6.5 5.5 11.5s6.16699 24.667 9.5 59s5.66602 56.5 6.99902 66.5z" />
    <glyph glyph-name="B" unicode="B" horiz-adv-x="861" 
d="M237 105c-3.33301 -4.66699 -5.00195 -7.99805 -5.00195 -9.99805c0 -6.66699 7.33301 -10 22 -10c11.333 0 23.666 2 36.999 6l119 154l40 55c8 10.667 13.333 16 16 16c67.333 -4 118 -13.333 152 -28c47.333 -20 81.666 -55.667 102.999 -107c2 -4.66699 3 -10 3 -16
c0 -22 -9.66699 -40.667 -29 -56c-16.667 -13.333 -36.667 -21.333 -60 -24c-35.333 -20.667 -101.333 -31 -198 -31c-66.667 0 -136 7.66699 -208 23c-64 13.333 -108 28.666 -132 45.999c-7.33301 5.33301 -13.333 22.666 -18 51.999c-2 11.333 -3.66699 17.666 -5 18.999
h-2c-1.33301 0.666992 -2.66602 1 -3.99902 1s-5 -0.333008 -11 -1h-8c-10 0 -20.667 -10.667 -32 -32s-17 -37.666 -17 -48.999c0 -23.333 12 -43 36 -59c13.333 -8.66699 35.666 -18.667 66.999 -30h3l4 -1h8c3.33301 0.666992 5.66602 1 6.99902 1
c8.66699 0 14.334 -2.5 17.001 -7.5s5 -7.83301 7 -8.5c47.333 -12 127 -18 239 -18h14c46 0 129.667 11 251 33l4 2l55 28c19.333 10 36.666 21 51.999 33c17.333 17.333 34.666 44.666 51.999 81.999v5c0.666992 2.66699 1 4.66699 1 6c0 17.333 -3 36 -9 56
c-6.66699 23.333 -15.334 39.333 -26.001 48c-23.333 15.333 -44.666 30.666 -63.999 45.999c-27.333 22 -59 38.333 -95 49c-20.667 6 -56.334 13.333 -107.001 22c73.333 5.33301 132 17 176 35c34.667 14 72.334 36 113.001 66c29.333 14 57.333 42.667 84 86
c12.667 21.333 24 37.333 34 48c-6 62.667 -29.667 103.667 -71 123c-28 12.667 -68.333 22.667 -121 30c-5.33301 0.666992 -47 5 -125 13c-7.33301 0 -14.666 1.33301 -21.999 4c-2.66699 0.666992 -4.66699 1 -6 1c-94 -1.33301 -160.333 -12 -199 -32
c-29.333 -15.333 -60.666 -49.333 -93.999 -102c-1.33301 -2 -2 -3.33301 -2 -4c-4 -5.33301 -6 -8.66602 -6 -9.99902c0 -2.66699 2.66699 -4.33398 8 -5.00098h9c6.66699 -0.666992 12.334 -1 17.001 -1c18.667 0 29.334 2.66699 32.001 8l13 26
c5.33301 8 11 13.667 17 17c23.333 13.333 78 20 164 20c73.333 0 147 -11 221 -33c40 -12 60 -34.667 60 -68c0 -25.333 -13.667 -50.666 -41 -75.999c-16.667 -15.333 -73.667 -44.666 -171 -87.999c-2 -1.33301 -9.33301 -3 -22 -5
c-16 -2.66699 -33.333 -6.66699 -52 -12c18.667 46 28 79.333 28 100c0 20 -8.66699 30 -26 30c-12 0 -22 -3.66699 -30 -11c-21.333 -19.333 -34.666 -35.333 -39.999 -48c-1.33301 -3.33301 -4.66602 -22.333 -9.99902 -57c-2.66699 -17.333 -9 -31 -19 -41
c-25.333 6.66699 -45.666 10 -60.999 10c-12.667 0 -22 -2.33301 -28 -7l-51 -38c-4 -2.66699 -6 -7.33398 -6 -14.001c0 -15.333 5 -23.666 15 -24.999c41.333 -6.66699 69.333 -10 84 -10c2 -1.33301 3 -2.66602 3 -3.99902c0 -0.666992 -2.66699 -5.33398 -8 -14.001
c-18.667 -31.333 -46.334 -72 -83.001 -122z" />
    <glyph glyph-name="C" unicode="C" horiz-adv-x="680" 
d="M539 105c9.33301 4 22.3291 12.334 38.9961 25.001c10.667 8 17.334 12 20.001 12c10.667 1.33301 20.5 7 29.5 17s13.5 20.333 13.5 31c0 9.33301 -7 14 -21 14c-3.33301 0 -6.33301 -0.666992 -9 -2l-244 -109c-7.33301 -3.33301 -19 -5.66602 -35 -6.99902
c-8 -0.666992 -12.667 -1.33398 -14 -2.00098c-16.667 -12 -44.334 -18 -83.001 -18c-8 2.66699 -20 4 -36 4h-20c-5.33301 -0.666992 -10 -1 -14 -1c-1.33301 0 -3.66602 0.333008 -6.99902 1h-4c-20.667 6 -34 15 -40 27c-1.33301 2.66699 -2 6.33398 -2 11.001
c0 24 8.66699 52.667 26 86c10.667 20 35.334 53.667 74.001 101c26.667 32 45 55.333 55 70c20.667 29.333 45.667 57.666 75 84.999l182 175c36 32.667 71 60 105 82c3.33301 2 7.66602 3 12.999 3c18 0 35 -7.66699 51 -23c5.33301 -5.33301 8 -14.333 8 -27
c0 -16 -3 -31.667 -9 -47c-1.33301 -5.33301 -2 -11.333 -2 -18c0 -34 11 -51 33 -51c10.667 0 18.667 2.66699 24 8c38 40.667 57 69 57 85c0 2 -1 3.66699 -3 5c5.33301 16 8 44 8 84v12c-0.666992 4 -1 7.33301 -1 10c-2.66699 17.333 -11.167 31.666 -25.5 42.999
s-30.166 17.333 -47.499 18c-6.66699 0 -21.667 -4 -45 -12c-9.33301 -3.33301 -15 -5 -17 -5h-3l-4 1c-14.667 0 -34.667 -6.66699 -60 -20l-46 -27c-182.667 -133.333 -359 -322.666 -529 -567.999c-3.33301 -4.66699 -5.66602 -13.667 -6.99902 -27
c-0.666992 -8.66699 -1.66699 -13.667 -3 -15c-5.33301 -4.66699 -10.333 -17.334 -15 -38.001c-4 -17.333 -6 -31.333 -6 -42c0 -16 5 -31.333 15 -46s22.667 -23.667 38 -27c2 0 5.33301 -0.666992 10 -2c12.667 -3.33301 22.667 -5 30 -5c6.66699 0 15 1.33301 25 4l24 6
c10.667 2 22.667 3.33301 36 4c32.667 2 73.334 9 122.001 21l36 10z" />
    <glyph glyph-name="D" unicode="D" horiz-adv-x="972" 
d="M487 434c-25.333 -56.667 -81.998 -138.658 -169.998 -245.991l-65 -81c-8 -10 -16.333 -15 -25 -15c-1.33301 0 -3.33301 0.333008 -6 1s-4.33398 1 -5.00098 1c-22 4.66699 -47.5 18.167 -76.5 40.5s-46.167 33.5 -51.5 33.5c-6.66699 0 -16.167 -0.833008 -28.5 -2.5
s-21.833 -2.5 -28.5 -2.5c-20 -12 -30 -24.333 -30 -37c0 -19.333 18 -40.333 54 -63c28 -17.333 54.667 -30 80 -38c4.66699 -2 14.667 -4.66699 30 -8c8 -1.33301 12 -3.66602 12 -6.99902c0 -2.66699 -1.33301 -6.33398 -4 -11.001c0 -10.667 5.33301 -19.334 16 -26.001
s21.667 -10 33 -10c12.667 0 33.334 16 62.001 48c4.66699 7.33301 47 11 127 11h50c6 0 12.667 -0.333008 20 -1h12c5.33301 0 11.333 0.333008 18 1h4c10.667 5.33301 33.334 9.66602 68.001 12.999l20 2c14 0 26.667 5.66699 38 17
c4.66699 4.66699 19.334 8.66699 44.001 12c14 2 22.333 3.66699 25 5c6.66699 1.33301 22.667 9.33301 48 24c19.333 11.333 34.333 21.666 45 30.999c13.333 12 35 26 65 42c24 13.333 49.333 35.666 76 66.999c15.333 18 23 62.667 23 134c0 12 -2.5 30.833 -7.5 56.5
s-9.83301 42.834 -14.5 51.501c-8.66699 16 -27.334 42.333 -56.001 79c-10.667 14 -33.334 39.667 -68.001 77c-2 6.66699 -6.66699 15 -14 25c-4.66699 3.33301 -13.334 10 -26.001 20c-112 86 -219.667 138.333 -323 157c-7.33301 1.33301 -16 2 -26 2
c-6.66699 0 -29 -2.33301 -67 -7c-10.667 -1.33301 -17.667 -2 -21 -2h-4c-2 0.666992 -3.33301 1 -4 1c-4.66699 0 -9.5 -2.16699 -14.5 -6.5s-8.5 -6.83301 -10.5 -7.5c-60.667 -24.667 -98 -49.334 -112 -74.001c-4 -5.33301 -6 -30 -6 -74
c0 -36.667 1 -60.334 3 -71.001c4.66699 -24 10 -42 16 -54c7.33301 -14.667 19.666 -29.334 36.999 -44.001c0.666992 -0.666992 5.66699 -8.33398 15 -23.001c5.33301 -8.66699 13 -13 23 -13c16.667 16.667 25 32.667 25 48c0 28.667 -4.33301 50 -13 64
c0 14.667 -1.66699 31 -5 49c-11.333 7.33301 -17 29 -17 65c0 2.66699 0.333008 6.66699 1 12v6c3.33301 16.667 15.666 25.667 36.999 27c2.66699 2.66699 10.667 6 24 10c35.333 0 87 -4.66699 155 -14c9.33301 -0.666992 24.666 -2.66699 45.999 -6
c29.333 -4.66699 62.333 -17.667 99 -39c34.667 -20.667 63.334 -42.667 86.001 -66c16 -16.667 38.333 -45.667 67 -87c30 -44.667 47.667 -75.667 53 -93s8 -30 8 -38c0 -2 1.66699 -5.33301 5 -10c8.66699 -12.667 13 -30.334 13 -53.001c0 -37.333 -5 -67 -15 -89
c-8.66699 -19.333 -33.667 -45 -75 -77c-10 -7.33301 -33.667 -16.333 -71 -27c-5.33301 -1.33301 -14.333 -4 -27 -8c-7.33301 -3.33301 -15.666 -7.33301 -24.999 -12c-18 -10 -30.333 -15 -37 -15c-26.667 0 -51.667 -3.66699 -75 -11
c-50 -15.333 -100.667 -22.333 -152 -21c-40 1.33301 -60 6 -60 14c0 0.666992 10 14.334 30 41.001l145 192c1.33301 1.33301 3.33301 4.5 6 9.5s4.66699 8.16699 6 9.5c32.667 51.333 67 102 103 152c21.333 29.333 32.333 45.666 33 48.999c0 16 -8 24 -24 24
c-0.666992 0 -2 -0.333008 -4 -1h-2c-44.667 -6.66699 -83.667 -30.334 -117 -71.001c-8.66699 -10 -14 -25 -16 -45z" />
    <glyph glyph-name="E" unicode="E" horiz-adv-x="815" 
d="M517 58c10 4.66699 25.6689 10.3301 47.002 16.9971c43.333 8.66699 94.666 38 153.999 88c28 23.333 42 40.333 42 51c0 6.66699 -1.33301 12.667 -4 18c-20 -4.66699 -47 -14.667 -81 -30l-81 -38l-84 -37c-86.667 -24 -157.334 -36 -212.001 -36
c-3.33301 0 -7.66602 0.333008 -12.999 1h-10c-22.667 4 -54.334 6 -95.001 6c-6 0 -12.667 -0.333008 -20 -1h-10c-28 0 -43.333 10 -46 30v8c-0.666992 5.33301 -1 10 -1 14c0 23.333 2.66699 41.333 8 54c24.667 58.667 56.667 109.334 96 152.001
c4.66699 6 24.667 11 60 15c30 2 83.667 7 161 15c74 8.66699 138.667 13 194 13c-1.33301 0 4 -0.333008 16 -1h11c9.33301 -0.666992 23.333 -2.33398 42 -5.00098c12.667 -2 20 -3 22 -3c13.333 0 34.833 4.5 64.5 13.5s47.834 17.5 54.501 25.5c2.66699 4 4 10 4 18
c0 9.33301 -3 14 -9 14l-2 -1c-2 -0.666992 -3.33301 -1 -4 -1c-54.667 0 -111.667 0.666992 -171 2c-67.333 1.33301 -147 4 -239 8c-32 1.33301 -66 2 -102 2c-4.66699 4 -7 9 -7 15c0 8.66699 4.66699 18.334 14 29.001c20.667 32 44.667 67 72 105
c10.667 14.667 21.667 23.667 33 27c24.667 20.667 83.667 31 177 31c20 0 40.667 -0.666992 62 -2c68.667 -4 117 -7.66699 145 -11c52 -6 99.667 -14 143 -24c9.33301 5.33301 21.666 9.66602 36.999 12.999c6.66699 1.33301 11.334 3 14.001 5
c5.33301 3.33301 12 10.166 20 20.499s12 18.166 12 23.499c0 16 -7.66699 25.667 -23 29c-16.667 1.33301 -41 3.66602 -73 6.99902c-35.333 5.33301 -83 8 -143 8c-44 0 -100 -1.66699 -168 -5c-40.667 -2 -64.334 -3 -71.001 -3c-10.667 0 -24.334 1 -41.001 3l-40 5
c-15.333 1.33301 -38.666 2 -69.999 2l-78 -41c-34.667 -22 -52 -43.333 -52 -64c0 -21.333 2.66699 -32 8 -32c10 0 18.333 -2.33301 25 -7c-3.33301 -9.33301 -38.333 -53.666 -105 -132.999c-34.667 0 -54.667 -0.333008 -60 -1c-18 -3.33301 -35 -13.666 -51 -30.999
c-20 -21.333 -30 -37.333 -30 -48c0 -1.33301 0.333008 -2.66602 1 -3.99902v-3c4.66699 -10 23 -18 55 -24l11 -2c-18.667 -35.333 -41.667 -75.666 -69 -120.999c-33.333 -55.333 -50 -87.666 -50 -96.999c-0.666992 -30 2.33301 -62.333 9 -97
c2.66699 -15.333 11.667 -26.666 27 -33.999c6.66699 -6.66699 35.667 -10 87 -10h7c4.66699 0.666992 9 1 13 1h29c45.333 0 85.666 3.66699 120.999 11c6.66699 1.33301 16.334 2.33301 29.001 3c30.667 1.33301 59.667 7 87 17c6 2 13.667 4 23 6
c26 10.667 52 17.667 78 21z" />
    <glyph glyph-name="F" unicode="F" horiz-adv-x="777" 
d="M297 365l16.001 0.999023c8.66699 0.666992 20.667 0.666992 36 0l29 -1c2.66699 0.666992 11.334 1.33398 26.001 2.00098l319 18c23.333 1.33301 44.666 2 63.999 2c3.33301 -1.33301 6.66602 -2 9.99902 -2c15.333 0 32 11.333 50 34
c4.66699 4.66699 7 13.334 7 26.001c-10.667 3.33301 -26.334 7 -47.001 11h-5c-4 0.666992 -6.66699 1 -8 1c-16.667 0 -30 -0.333008 -40 -1l-44 -3c-39.333 -2.66699 -63 -4 -71 -4c-21.333 2 -55.333 3.33301 -102 4c-34 0.666992 -61.667 1.66699 -83 3
c-32 2 -59.667 6 -83 12l2 11c1.33301 8.66699 4.33301 20 9 34c8 14.667 19 32 33 52l5 9l22 40c107.333 14.667 180 22 218 22c6 0 15.167 1.33301 27.5 4s21.5 4 27.5 4l7 -1h9c68.667 0 149 -9.33301 241 -28c16.667 -3.33301 27.667 -5 33 -5c16 0 34.667 2.66699 56 8
c25.333 6.66699 41 15.334 47 26.001c13.333 24 20 35 20 33c-2.66699 0.666992 -6.33398 2 -11.001 4l-1 1c-12.667 12.667 -26.667 21 -42 25c-20 5.33301 -86 8 -198 8c-35.333 0 -125.666 -1.66699 -270.999 -5c-68.667 -1.33301 -120.667 6 -156 22
c-2.66699 0.666992 -7 2.66699 -13 6c-13.333 4.66699 -23.333 7 -30 7c-14 -0.666992 -25 -4.33398 -33 -11.001h-1c0 0.666992 -0.333008 1 -1 1c-3.33301 0 -17 -10 -41 -30c-20 -16.667 -34 -29 -42 -37c-4 -5.33301 -6 -13.666 -6 -24.999
c0 -16.667 3.66699 -25 11 -25c2.66699 0 7 0.333008 13 1s10.333 1 13 1c8 0 12 -1 12 -3c0 -4.66699 -3.33301 -19.334 -10 -44.001c-10.667 -39.333 -25 -70.666 -43 -93.999c-1.33301 0 -3 0.333008 -5 1h-5c-13.333 0 -27 -5 -41 -15
c-0.666992 -0.666992 -12 -10.334 -34 -29.001c-2 -2 -4.33301 -4 -7 -6c-5.33301 -8 -8 -15.667 -8 -23c0 -10 4 -18.333 12 -25s17 -10 27 -10c-20 -40.667 -52 -91.334 -96 -152.001c-37.333 -51.333 -59.666 -84.666 -66.999 -99.999c-16.667 -36 -35 -73 -55 -111
c4 -6 10.333 -9 19 -9c3.33301 0 20 3 50 9l26 37c23.333 33.333 37 53.666 41 60.999c8.66699 17.333 25.667 48 51 92c16 26.667 53 82 111 166z" />
    <glyph glyph-name="G" unicode="G" horiz-adv-x="660" 
d="M453 -249c7.33301 26 23.002 62.999 47.002 110.999c18.667 37.333 32.334 67.666 41.001 90.999c5.33301 10 12.333 18.667 21 26c10.667 12 20.334 33 29.001 63c1.33301 4.66699 2.33301 7.66699 3 9c5.33301 14.667 8 33 8 55l-3 21c-1.33301 13.333 -4 34 -8 62
l-38 26c-14.667 8.66699 -29.667 13 -45 13c-22.667 0 -70.334 -17.667 -143.001 -53l-72 -35l-91 -42c-17.333 -7.33301 -36.666 -11 -57.999 -11s-32 5.66699 -32 17c0 8 0.333008 14.333 1 19l1 7c0.666992 2.66699 1 4.66699 1 6
c3.33301 27.333 14.333 54.666 33 81.999c9.33301 14 21 30.333 35 49c0.666992 1.33301 8.33398 10.333 23.001 27c76 88 137.333 146.667 184 176c5.33301 3.33301 14.666 13.333 27.999 30l28 37c30 26 53.333 45.333 70 58l76 43l72 46c11.333 7.33301 21.333 11 30 11
h6c2.66699 -0.666992 5 -1 7 -1c14 -1.33301 21 -8.33301 21 -21c0 -24.667 -27 -50.334 -81 -77.001c-10.667 -5.33301 -23.334 -18 -38.001 -38l-21 -29c14 -14.667 24.333 -22 31 -22s15 3 25 9l67 50l16 12c47.333 34.667 81.666 65 102.999 91
c6.66699 8 15.667 23.667 27 47s17 39 17 47c0 10 -4.83301 18.5 -14.5 25.5s-19.834 10.833 -30.501 11.5c-2 0 -6.66699 0.333008 -14 1h-14c-10.667 0 -19.5 -1.66699 -26.5 -5s-12.833 -5 -17.5 -5h-10c-4.66699 0.666992 -8 1 -10 1
c-5.33301 0 -9.33301 -0.666992 -12 -2l-76 -42c-31.333 -17.333 -76 -44 -134 -80c-22.667 -16 -67.667 -52.333 -135 -109l-32 -27c-8 -6.66699 -22.667 -22 -44 -46l-17 -19l-149 -156c-32 -33.333 -60 -72 -84 -116c-28.667 -52 -43 -97 -43 -135
c0 -29.333 0.666992 -45.333 2 -48c10.667 -20 20 -30 28 -30c1.33301 0 4.16602 1.16699 8.49902 3.5s8.16602 3.5 11.499 3.5c6.66699 0 13.334 -1.66699 20.001 -5l2 -1c7.33301 -1.33301 13 -2 17 -2c5.33301 0 10.333 1.33301 15 4l5 5c3.33301 4 6.33301 6.66699 9 8
c40.667 12.667 87.667 33.334 141 62.001l42 14c11.333 4.66699 24 12 38 22c4.66699 3.33301 15.334 7.33301 32.001 12c6 2 18 7 36 15c16 7.33301 27.667 11 35 11c10 0 17 -3 21 -9l6 -14v-11c0.666992 -3.33301 1 -6.66602 1 -9.99902c0 -44.667 -10 -93.667 -30 -147
c-10 -27.333 -31.333 -73.333 -64 -138l-18 -36c-1.33301 -3.33301 -2 -7 -2 -11c0 -6 1 -15 3 -27s3 -21 3 -27c0 -2 -0.333008 -4 -1 -6v-8c3.33301 -7.33301 11.666 -13.666 24.999 -18.999c4.66699 -2 10 -3 16 -3c12.667 0 23 4 31 12
c7.33301 4.66699 11 16.334 11 35.001c0 4 -0.333008 10 -1 18s-1 14 -1 18z" />
    <glyph glyph-name="H" unicode="H" horiz-adv-x="692" 
d="M528 338c-49.333 -26.667 -132.331 -43.665 -248.998 -50.998c21.333 37.333 55.666 91.666 102.999 162.999c52.667 79.333 88.334 136.666 107.001 171.999c38 72.667 57 136.334 57 191.001c-28.667 0 -50.334 -5.16699 -65.001 -15.5s-27.334 -28.833 -38.001 -55.5
l-69 -173c-8.66699 -22 -16.667 -37 -24 -45c-23.333 -26 -51.666 -67 -84.999 -123c-20 -34 -34.667 -57.667 -44 -71c-17.333 -25.333 -35 -46.333 -53 -63c-34 -2.66699 -64.333 -4 -91 -4s-49.334 -7.66699 -68.001 -23c-16 -13.333 -24 -24.666 -24 -33.999
c0 -16 23 -24 69 -24c24 0 42.667 -6.66699 56 -20l4 -4c-40.667 -72.667 -61 -117.667 -61 -135c0 -7.33301 3.33301 -11 10 -11c4 0 12.333 2.33301 25 7l2 1c21.333 6 34.666 10.667 39.999 14c8 4.66699 19.333 15 34 31c19.333 22 30 34 32 36
c22 4.66699 33 8.66699 33 12s-2.66699 10 -8 20c-0.666992 2 -3.33398 5.5 -8.00098 10.5s-7 8.5 -7 10.5c0 4 9.66699 15.667 29 35c4.66699 4.66699 20.334 9 47.001 13c36 6 84.667 17.333 146 34c26.667 7.33301 42.334 11 47.001 11c2.66699 0 4 -0.666992 4 -2
c-23.333 -38.667 -53.333 -91 -90 -157c-26.667 -48 -43.667 -72 -51 -72c-0.666992 0 -6 2 -16 6c-16 6 -26 9 -30 9s-6 -1.66699 -6 -5c0 -5.33301 5.66699 -17 17 -35c0.666992 -10.667 2 -17 4 -19s9 -3.66699 21 -5c8 -0.666992 18.667 -2 32 -4
c31.333 0 55 14.333 71 43c36 64 68 124 96 180c10.667 21.333 18.334 36 23.001 44c11.333 19.333 21 33 29 41c10.667 10 38.667 22 84 36c7.33301 2.66699 20.333 6.66699 39 12c8 1.33301 21 2 39 2c23.333 0 35 7.33301 35 22c0 12 -5.66699 26.333 -17 43l-1 1
c-1.33301 2 -3 3 -5 3s-6.66699 -1.66699 -14 -5c-30 -14 -61 -21 -93 -21c-1.33301 0 -5.33301 0.333008 -12 1h-13c24 52 72.667 125 146 219c52 66.667 84.667 110.334 98 131.001c35.333 53.333 57.666 102.666 66.999 147.999c-15.333 5.33301 -29 10.666 -41 15.999
c-6 2.66699 -9.66699 4 -11 4c-2 0 -5.33301 -3.33301 -10 -10l-1 -1c-2 -4 -8.66699 -7.83301 -20 -11.5s-18.333 -6.5 -21 -8.5c-6 -4.66699 -10.333 -12.334 -13 -23.001c-2 -4.66699 -4.33301 -11.667 -7 -21c-12.667 -41.333 -32.667 -85.333 -60 -132
c-30.667 -52 -104 -164.667 -220 -338z" />
    <glyph glyph-name="I" unicode="I" horiz-adv-x="494" 
d="M215 123c0.666992 -0.666992 3.33203 -3.66406 7.99902 -8.99707c6.66699 -7.33301 10 -12.333 10 -15c0 -4.66699 -20 -11.667 -60 -21l-96 -20c-25.333 -6 -44.666 -17 -57.999 -33s-20 -28.667 -20 -38v-5c-0.666992 -1.33301 -1 -2.66602 -1 -3.99902
c0 -5.33301 3.33301 -8 10 -8c4.66699 0 17.667 3 39 9c40 11.333 70.667 17 92 17c11.333 0 23 -3.33301 35 -10c3.33301 0 6.66602 2 9.99902 6c11.333 9.33301 26 15.333 44 18c36.667 5.33301 76.667 13.666 120 24.999c26 6.66699 41.333 10 46 10
c15.333 0 23.666 6 24.999 18c0.666992 2 1.33398 5.33301 2.00098 10l1 5c1.33301 6.66699 2 10.667 2 12c0 6.66699 -16.333 11.334 -49 14.001c-39.333 3.33301 -71 6.33301 -95 9c13.333 0.666992 21.333 1 24 1c16.667 3.33301 25 11.666 25 24.999
c0 3.33301 -0.666992 8.33301 -2 15s-2 11.667 -2 15c0 4.66699 0.666992 8.66699 2 12l114 263c42 94 85.333 179 130 255c6.66699 11.333 13 17 19 17s16 -4 30 -12l7 -4c8.66699 -4.66699 19.334 -9.66699 32.001 -15c19.333 -7.33301 29.666 -11.333 30.999 -12
c2 0 5 0.333008 9 1c7.33301 2 14.333 3 21 3c2 0 4 -0.333008 6 -1h5c2.66699 0 10 3 22 9c9.33301 9.33301 14 16.666 14 21.999c0 3.33301 -1 8.66602 -3 15.999s-3 12.666 -3 15.999c-1.33301 18 -16 29 -44 33c-22.667 3.33301 -35 5.33301 -37 6
c-45.333 14.667 -82.333 22.667 -111 24c-13.333 0.666992 -64.666 9.33398 -153.999 26.001c-9.33301 1.33301 -27 4.33301 -53 9c-7.33301 1.33301 -12.333 2 -15 2c-9.33301 0 -15 -2.66699 -17 -8c-1.33301 -2 -3.66602 -3.66699 -6.99902 -5
c-6.66699 -2 -12 -6 -16 -12c-4.66699 0 -11.167 -5.66699 -19.5 -17s-13.333 -19.833 -15 -25.5s-2.5 -9.83398 -2.5 -12.501c0 -4.66699 9.33301 -7.66699 28 -9c8 0 19.5 -0.666992 34.5 -2l56.5 -5c58 -2.66699 87 -8 87 -16c-14 -70 -57.667 -173.333 -131 -310
c-36 -66.667 -60.667 -114.334 -74 -143.001c-24.667 -53.333 -43.334 -103.666 -56.001 -150.999z" />
    <glyph glyph-name="J" unicode="J" horiz-adv-x="1038" 
d="M417 -392l121.997 65.0029l45 25c12 6.66699 19.333 11.334 22 14.001l57 55c66.667 64 118.334 123 155.001 177l60 86c23.333 34 40.333 64.333 51 91l22 57l22 57c4.66699 11.333 13 33 25 65c36.667 105.333 63 218.333 79 339c0 2 0.333008 4.33301 1 7v6
c0 8 -3 18.167 -9 30.5s-9 21.666 -9 27.999s-3.66699 15.166 -11 26.499s-14.333 18 -21 20c-5.33301 5.33301 -16.333 11 -33 17c-70 14 -146 25 -228 33c-42.667 4 -71.667 6 -87 6h-10l-9 1c-22.667 0 -44.667 -7 -66 -21c-23.333 -16 -35 -34.667 -35 -56
c0 -12.667 4.33301 -20 13 -22c3.33301 -2.66699 29.666 -4 78.999 -4c78 0 127.333 -0.666992 148 -2c114 -7.33301 171 -38.666 171 -93.999c-2 -18 -3.33301 -45.333 -4 -82c-1.33301 -61.333 -6 -109 -14 -143l-19 -54c-57.333 -166.667 -117 -295.334 -179 -386.001
c-33.333 -49.333 -87.666 -105 -162.999 -167l-35 -29c-32 -26.667 -80.333 -52 -145 -76c-10.667 -4 -19.667 -7.66699 -27 -11c-12 -5.33301 -26.333 -8 -43 -8c-13.333 0 -36.666 3.66699 -69.999 11c-14.667 3.33301 -24.667 5 -30 5
c-13.333 0 -25.833 2.83301 -37.5 8.5l-34.5 16.5c-34.667 17.333 -59.667 42.666 -75 75.999l-3 12c0 12 1.33301 31 4 57l4 39c3.33301 33.333 31 87 83 161l19 27c-29.333 -4.66699 -55 -19 -77 -43c-12 -10.667 -32.333 -35.334 -61 -74.001
c-23.333 -32 -36 -54.667 -38 -68c-3.33301 -20.667 -7.33301 -53.334 -12 -98.001c-2 -18 -3 -29.667 -3 -35c0 -2 0.333008 -4.33301 1 -7v-3c6 -29.333 11.333 -48.666 16 -57.999c7.33301 -16 20.666 -31.667 39.999 -47c24.667 -19.333 49.334 -33.333 74.001 -42
c9.33301 -2 23 -6 41 -12c2 -1.33301 15 -3.33301 39 -6h16c72.667 0 132.334 9.66699 179.001 29z" />
    <glyph glyph-name="K" unicode="K" horiz-adv-x="930" 
d="M287 498c-20 10.667 -36.333 16 -49 16c-13.333 0 -26.833 -6.83301 -40.5 -20.5s-20.5 -27.167 -20.5 -40.5c0 -8 4.33301 -18 13 -30l20 -28c-4.66699 -6.66699 -10.334 -16.667 -17.001 -30c-4 -8 -6.66699 -13 -8 -15l-12 -17l-98 -140c-34 -48.667 -60 -99 -78 -151
c-2.66699 -8 -4 -15.667 -4 -23c0 -19.333 7.33301 -29 22 -29c3.33301 0 7 0.666992 11 2c31.333 6.66699 51.666 17.334 60.999 32.001c5.33301 8 8.33301 22 9 42s5.33398 35 14.001 45c11.333 12.667 25.333 34 42 64l39.5 70.5
c13.667 24.333 36.167 58.166 67.5 101.499c12.667 -27.333 32.667 -60.333 60 -99l30 -45c22 -33.333 47.333 -61.666 76 -84.999c14.667 -12 45.667 -32.667 93 -62c12 -6 24.667 -11.333 38 -16c29.333 -10.667 50.333 -20 63 -28c14 -5.33301 35.333 -8 64 -8
c58 0 102.333 6 133 18c12.667 0.666992 25.667 3.66699 39 9c8 2 20 6.33301 36 13c1.33301 2.66699 2 8.66699 2 18c0 8 -12.667 12 -38 12c1.33301 0 -6.5 -0.5 -23.5 -1.5s-34.833 -1.5 -53.5 -1.5h-9c-14 0 -32.667 2.66699 -56 8l-56 14
c-13.333 0 -35.333 4.33301 -66 13c-33.333 8.66699 -53 17 -59 25c-5.33301 6 -16.5 15.333 -33.5 28s-28.167 23.667 -33.5 33l-10 26l-21 48c-18 40.667 -31 69.334 -39 86.001c-16 31.333 -32.667 57.666 -50 78.999l-8 13c13.333 8 37.333 19 72 33
c52.667 11.333 107.667 31.333 165 60c17.333 8.66699 46.333 19 87 31c4.66699 1.33301 8 3.33301 10 6c4.66699 4 13.667 6.66699 27 8s22 3.33301 26 6c9.33301 8 27 16.667 53 26c10.667 4 30.667 10 60 18c8.66699 1.33301 19.334 5.33301 32.001 12
c16.667 8.66699 27 13.667 31 15l2 1c30.667 12 61 35 91 69c9.33301 10.667 14 17.667 14 21l-8 12c-4.66699 5.33301 -11 8 -19 8c-11.333 0 -25.333 -4.33301 -42 -13c-60 -44 -150.667 -89 -272 -135l-107 -42l-81 -22c-14 -4 -46 -16.667 -96 -38
c8.66699 19.333 21.334 35.666 38.001 48.999c5.33301 4.66699 15.666 19.334 30.999 44.001l82 132c28 42.667 42 68 42 76c0 10.667 -8 16 -24 16l-2 1c-4.66699 3.33301 -8.33398 5 -11.001 5c-10.667 0 -26.667 -11 -48 -33l-40 -46
c-2.66699 -16.667 -12.667 -39.667 -30 -69c-19.333 -32.667 -63.666 -98.334 -132.999 -197.001z" />
    <glyph glyph-name="L" unicode="L" horiz-adv-x="729" 
d="M179 298c-1.33301 -1.33301 -1.99902 -2.33594 -1.99902 -3.00293c-33.333 -48 -52.333 -76.333 -57 -85c-8.66699 -13.333 -22.334 -40.666 -41.001 -81.999c-6 -12.667 -14 -31 -24 -55c-4 -10.667 -12 -29.667 -24 -57l-4 -8c-4 -8 -6 -16.667 -6 -26
c0 -11.333 4 -17 12 -17c8 2 25.667 8 53 18c62 22 108.333 37.333 139 46c8 2.66699 21.667 6.33398 41 11.001c102.667 22 186 33 250 33l16 3c32 6 66.667 9 104 9l13 13c38 38 57 63 57 75c0 12.667 -5.66699 19 -17 19c-6 0 -16.167 -1.16699 -30.5 -3.5
s-24.833 -3.5 -31.5 -3.5c-22.667 -0.666992 -39 -2 -49 -4c-2.66699 -0.666992 -9.5 -3 -20.5 -7s-18.5 -6 -22.5 -6c-26 0 -71.667 -6.33301 -137 -19c-27.333 -4 -68.333 -10.333 -123 -19c-24 -10.667 -49.667 -16 -77 -16c-18.667 0 -28 2.66699 -28 8
c11.333 32 42.666 90 93.999 174c32 52.667 72 114.667 120 186l40 60c20.667 32.667 38.667 63.334 54 92.001c18.667 34.667 32.334 67 41.001 97c5.33301 19.333 10.666 40.333 15.999 63c-2.66699 13.333 -13 22.333 -31 27c-21.333 0 -50.666 -22.667 -87.999 -68
c-4.66699 -26.667 -10.334 -53.667 -17.001 -81c-3.33301 -13.333 -11.666 -32.333 -24.999 -57c-4 -8 -14 -24.333 -30 -49l-50 -82l-69 -113z" />
    <glyph glyph-name="M" unicode="M" horiz-adv-x="1071" 
d="M785 464l-17.001 -10l-65 -40c-10 -6 -31.333 -16.667 -64 -32l-40 -19h-3l-3 -1c-3.33301 0 -15.333 6 -36 18s-36 30.667 -46 56c-3.33301 8.66699 -9.33301 32.667 -18 72l-11 49c11.333 36.667 30 103.334 56 200.001l10 40c0 12.667 -3 23 -9 31
c-6 -6 -15 -10 -27 -12c-18 -3.33301 -32 -12.666 -42 -27.999c-16.667 -20 -29.667 -47.333 -39 -82c-6.66699 -25.333 -10.667 -38.666 -12 -39.999c-2.66699 -8.66699 -6.33398 -16 -11.001 -22c-2 0 -4.83301 0.333008 -8.5 1s-6.5 1 -8.5 1s-5 -0.333008 -9 -1
s-7 -1 -9 -1c-4.66699 -1.33301 -10.667 -6.66602 -18 -15.999c-8.66699 -11.333 -14.334 -18 -17.001 -20s-4 -8.33301 -4 -19c0 -13.333 4 -38 12 -74c-12 -22 -31.333 -52 -58 -90c-22.667 -38 -69 -102 -139 -192l-70 -91c-27.333 -36.667 -48.666 -68 -63.999 -94
c-3.33301 -8 -5 -15 -5 -21c0 -6.66699 3.33301 -11 10 -13s13.334 -3.83301 20.001 -5.5s11.667 -2.5 15 -2.5c8.66699 0 17.667 4.33301 27 13l44 70c12 19.333 30.333 44.666 55 75.999l137 174l54 72c0.666992 1.33301 2 2 4 2c4.66699 0 9.66699 -5.16699 15 -15.5
s8 -18.5 8 -24.5c0 -20 18.667 -46 56 -78c6.66699 -6 20 -9 40 -9c5.33301 0 13 0.333008 23 1s17.667 1 23 1h11c20 0 42.333 6 67 18c5.33301 2.66699 25.333 14.667 60 36c38.667 24 67.334 41 86.001 51c14 8 39.667 23.667 77 47c28.667 20 88.334 66.667 179.001 140
c-9.33301 -36 -16 -60.333 -20 -73c-8.66699 -26.667 -18.667 -49.667 -30 -69c-7.33301 -12.667 -16 -26.334 -26 -41.001l-16 -24c-6 -18 -14.333 -41.333 -25 -70c-30.667 -70.667 -46 -124.334 -46 -161.001c0 -10 0.666992 -21.333 2 -34l3 -38
c0.666992 -12.667 5.66699 -23.334 15 -32.001c4 -10.667 11.667 -16 23 -16c1.33301 0 11.333 0.666992 30 2c1.33301 0 4.33301 0.333008 9 1c14.667 1.33301 23 2.66602 25 3.99902c6.66699 2 13 7 19 15c9.33301 9.33301 14 16.666 14 21.999
c0 7.33301 -6 19.333 -18 36c-9.33301 12.667 -14 28.334 -14 47.001c0 22.667 1.33301 51.667 4 87c0.666992 6.66699 1.66699 19 3 37l5 17c13.333 42.667 43.333 106 90 190c31.333 56 52.666 96.333 63.999 121c25.333 54.667 38 98.334 38 131.001
c0 10 -1.33301 16.667 -4 20c-6 5.33301 -12.333 8 -19 8c-8.66699 0 -17 -5.33301 -25 -16c-40 -28.667 -96.333 -75.5 -169 -140.5s-128.667 -111.5 -168 -139.5z" />
    <glyph glyph-name="N" unicode="N" horiz-adv-x="851" 
d="M330 434l0.00488281 -95c0 -88.667 3.33301 -143 10 -163c1.33301 -4 2 -9.66699 2 -17c0 -5.33301 -0.666992 -13.833 -2 -25.5s-2 -20.5 -2 -26.5c0.666992 -22.667 21.334 -51.334 62.001 -86.001c8 -6.66699 19.667 -10 35 -10c28.667 0 66 14 112 42
c12 7.33301 23 16.333 33 27c32 20.667 51.667 34 59 40c20 14.667 36.333 31.334 49 50.001l84 120c23.333 32.667 38.666 54.667 45.999 66c25.333 38.667 43.666 79.334 54.999 122.001c0.666992 4 1.33398 7 2.00098 9c10 46 22.667 86 38 120
c3.33301 44.667 7.33301 94 12 148c0 0.666992 0.333008 2 1 4v4c0 24.667 -14 37.334 -42 38.001c-9.33301 0 -26 -8.66699 -50 -26c-4 -3.33301 -8.66699 -6.66602 -14 -9.99902c-14.667 -10 -22 -52 -22 -126c0 -17.333 -3 -35.333 -9 -54
c-2.66699 -7.33301 -4 -13.333 -4 -18c-2 -22.667 -5 -64 -9 -124c-3.33301 -52 -58 -140.333 -164 -265c-19.333 -22.667 -34.333 -39 -45 -49c-18.667 -17.333 -37.334 -28.666 -56.001 -33.999h-4l-4 -1c-10.667 0 -24.667 4.33301 -42 13
c-1.33301 0.666992 -2.33301 1 -3 1c-15.333 8 -24.666 18 -27.999 30c0 1.33301 -0.333008 2.66602 -1 3.99902c-10.667 38 -16.334 69.333 -17.001 94c0 19.333 2 47.666 6 84.999c5.33301 42.667 8.33301 71.667 9 87c2 43.333 3 103.333 3 180c0 16 -3.66699 30 -11 42
c-8.66699 14.667 -20.334 22 -35.001 22c-2.66699 0 -18.334 -7.33301 -47.001 -22c-10 -4.66699 -21 -10.334 -33 -17.001c-9.33301 -7.33301 -15 -18 -17 -32l-2 -12c-6.66699 -38.667 -11.334 -64 -14.001 -76c-7.33301 -31.333 -16 -55 -26 -71
c-30 -49.333 -83.333 -123.333 -160 -222c-70.667 -91.333 -122 -162.333 -154 -213c-20 -18 -30 -32.333 -30 -43c0 -6.66699 4.66699 -13 14 -19c32 7.33301 58.333 19.666 79 36.999l85 129c33.333 48.667 64.666 90 93.999 124c64.667 75.333 117 148.333 157 219z" />
    <glyph glyph-name="O" unicode="O" horiz-adv-x="542" 
d="M464 186c70.667 69.333 120.665 143.999 149.998 223.999c8.66699 22.667 13.334 45 14.001 67c0 6 3.66699 37.333 11 94l9 73c0 9.33301 -3 30 -9 62c-2.66699 15.333 -8 36.333 -16 63c-20 46 -50.333 71 -91 75c-3.33301 0 -13.333 -4.66699 -30 -14
s-28.334 -14.666 -35.001 -15.999c-24 -7.33301 -42 -28 -54 -62c-3.33301 -3.33301 -10.666 -8.33301 -21.999 -15c-6 -3.33301 -10 -6 -12 -8h-2l-3 1c-10 0 -18.667 -4.33301 -26 -13c-143.333 -172.667 -250.666 -356.667 -321.999 -552c-6 -16 -11.667 -38.333 -17 -67
c-5.33301 -30.667 -7.66602 -53.667 -6.99902 -69c0.666992 -22 11 -39 31 -51c16.667 -10 37 -15 61 -15c51.333 0.666992 94.666 10 129.999 28c58.667 30.667 138.667 95.667 240 195zM279.998 103.999c-3.33301 -2 -10.501 -4.00098 -21.501 -6.00098
s-18.167 -4.83301 -21.5 -8.5s-19.333 -5.5 -48 -5.5s-48 2.66699 -58 8c-17.333 9.33301 -26 35.333 -26 78c0 27.333 3 47.666 9 60.999c78.667 172.667 168.334 313.334 269.001 422.001c4.66699 2.66699 11.667 7.33398 21 14.001c0 -10 8.33301 -15 25 -15
c6.66699 -0.666992 11.334 -1.33398 14.001 -2.00098l9 11c20.667 25.333 31 44.333 31 57c0 5.33301 -0.666992 11.333 -2 18c2.66699 -2 8 -5.33301 16 -10c15.333 -8.66699 25.666 -15.667 30.999 -21c10 -9.33301 17 -19.666 21 -30.999c10.667 -31.333 16 -64 16 -98
c0 -38 -5.33301 -76 -16 -114c-14 -51.333 -29.333 -94 -46 -128c-38.667 -81.333 -113 -158 -223 -230z" />
    <glyph glyph-name="P" unicode="P" horiz-adv-x="867" 
d="M472 360c8.66699 11.333 18.666 17.668 29.999 19.001c5.33301 0 14 0.666992 26 2c52.667 6 141.334 17 266.001 33c38.667 5.33301 67.334 11 86.001 17c37.333 12.667 69 35 95 67c13.333 16 28.333 36.333 45 61c14.667 21.333 22 35.333 22 42
c0 12 -8.66699 28.667 -26 50c-48.667 60.667 -104 104.334 -166 131.001c-34.667 14.667 -71 26.667 -109 36l-147 28c-42.667 8 -78.334 12 -107.001 12c-80 0 -165.667 -17.333 -257 -52c-0.666992 -0.666992 -4.33398 -2.33398 -11.001 -5.00098
c-66.667 -28 -101.667 -67 -105 -117c0 -2.66699 2.66699 -4 8 -4c6 0 14.333 1 25 3c18 3.33301 29 5 33 5c6 0 10.333 -1 13 -3c12 20.667 27 35.667 45 45c84.667 28.667 168 43 250 43c106 0 214.333 -24 325 -72c73.333 -53.333 110 -102 110 -146
c0 -30.667 -56.333 -53 -169 -67c-69.333 -8.66699 -136.666 -13.334 -201.999 -14.001c19.333 21.333 36.333 53.666 51 96.999c7.33301 22 15.333 43.667 24 65c4 10 6 22.333 6 37c0 21.333 -3.33301 33.666 -10 36.999c-24 8.66699 -39.333 13 -46 13
c-4.66699 0 -10.334 -2.66699 -17.001 -8l-5 -4c-1.33301 -0.666992 -2.66602 -1.66699 -3.99902 -3c-18.667 -11.333 -30.5 -21.666 -35.5 -30.999s-7.83301 -25.666 -8.5 -48.999c-1.33301 -38.667 -20.666 -92.334 -57.999 -161.001c-43.333 0.666992 -99 -2 -167 -8
c-12 -3.33301 -20.333 -11.666 -25 -24.999c-10.667 0 -24 -5.16699 -40 -15.5s-24 -20.5 -24 -30.5v-3l2 -4c0.666992 -2 11.334 -3 32.001 -3h27c11.333 0 28.333 0.333008 51 1s39.667 1 51 1h17c5.33301 0.666992 8.66602 1 9.99902 1c7.33301 0 11 -1.66699 11 -5
s-6.66699 -13 -20 -29l-41 -49c-52.667 -63.333 -89.334 -109.333 -110.001 -138c-38 -52 -67.333 -102.333 -88 -151c0 -1.33301 4.66699 -3 14 -5s14.333 -3.33301 15 -4c28 11.333 55 31.333 81 60c10.667 12 31.667 39 63 81c2.66699 6 8 16.333 16 31
c2 3.33301 7.66699 11 17 23z" />
    <glyph glyph-name="Q" unicode="Q" horiz-adv-x="699" 
d="M79 150c-1.33301 -2.66699 -8.99902 -15.667 -22.999 -39c-28.667 -47.333 -43 -82.333 -43 -105c0 -18 5.66699 -37.667 17 -59c3.33301 -6 7.33301 -9 12 -9c26 3.33301 61 15.666 105 36.999c31.333 15.333 55 25.333 71 30c8 10.667 20.667 22 38 34
c6 0.666992 20.667 9.33398 44 26.001l58 41c34 24 52.333 36 55 36c2 0 3 -1.66699 3 -5c0 -2.66699 -1 -8.33398 -3 -17.001c-6 -26 -9 -48.333 -9 -67c0 -8.66699 2.5 -14.334 7.5 -17.001s7.5 -9 7.5 -19s3 -15 9 -15c0.666992 0 2 0.333008 4 1s3.66699 1 5 1
c16 2 29.167 4.5 39.5 7.5s21 9 32 18s19.333 13.833 25 14.5s13.834 5.66699 24.501 15l23 20l72 56c6.66699 5.33301 11 9.33301 13 12c3.33301 6 5 11 5 15c0 9.33301 -6.33301 14 -19 14c-22 0 -42.667 -9.66699 -62 -29l-3 -3c-21.333 -21.333 -41 -39.666 -59 -54.999
c-6.66699 -4.66699 -12.334 -7 -17.001 -7c-12 1.33301 -18 3.33301 -18 6c0 1.33301 0.666992 3.66602 2 6.99902l1 3c6 18.667 12 50.667 18 96c4 33.333 8.33301 51 13 53c37.333 18 77.333 55.333 120 112c30 39.333 56.333 79.333 79 120
c0.666992 2 2.33398 5 5.00098 9c21.333 46.667 32 90.334 32 131.001c0 26.667 -6.33301 57.667 -19 93c-14 40 -29.667 67 -47 81c-24 18 -54.333 27 -91 27c-16 0 -30.333 -2.33301 -43 -7c-24 -8.66699 -39.333 -15 -46 -19c-10 -6 -23.5 -18 -40.5 -36
s-31.833 -29.667 -44.5 -35c-8 -3.33301 -18.667 -14 -32 -32l-26 -39c-10.667 -14 -17 -23.333 -19 -28c-12 -18 -18 -36 -18 -54c0 -2.66699 0.666992 -4 2 -4c2 0 4.33301 1 7 3c8 5.33301 15 8 21 8c14.667 14 34.834 36.333 60.501 67s45.5 53 59.5 67
c18.667 18 39 31 61 39c0 5.33301 5.66699 8 17 8c0.666992 0 2 -0.333008 4 -1h4c18 -4 36.833 -15.5 56.5 -34.5s30.834 -37.5 33.501 -55.5c6.66699 -40.667 10 -74.334 10 -101.001c0 -32.667 -5.66699 -63.667 -17 -93c-4 -9.33301 -19.667 -31.333 -47 -66
c-16.667 -20.667 -32 -41.334 -46 -62.001c-2 -4 -8.66699 -13 -20 -27c-2.66699 -3.33301 -6.33398 -7.66602 -11.001 -12.999l-5 -5v6c0 6 0.333008 12.667 1 20c2 22.667 3 39 3 49c0 26.667 -3.66699 42.334 -11 47.001c-6 2.66699 -13.333 4 -22 4
c-15.333 0 -27.666 -3 -36.999 -9h-1c-26 -18.667 -38.333 -36.667 -37 -54l11 -129c-1.33301 -8 -7.33301 -16.333 -18 -25c-15.333 -13.333 -23.666 -20.666 -24.999 -21.999c-10.667 -12.667 -19 -21 -25 -25c-11.333 -10 -20.333 -15 -27 -15
c-1.33301 0 -7.33301 -5 -18 -15s-16.334 -15 -17.001 -15c-4 -3.33301 -10.333 -5.83301 -19 -7.5s-13.834 -3.33398 -15.501 -5.00098s-8.33398 -4.66699 -20.001 -9s-20.5 -9.5 -26.5 -15.5s-14.667 -11 -26 -15c-14.667 -5.33301 -23.334 -9 -26.001 -11
c-21.333 -12 -40.333 -18 -57 -18c-11.333 0 -17 4.33301 -17 13c0 8 17 38.667 51 92c4.66699 7.33301 7 13 7 17c1.33301 10.667 18 34.334 50 71.001c14 15.333 52 67.666 114 156.999c4 6 13.667 10.667 29 14l15 5c6 2 9.66699 5 11 9c2 10 13.667 34 35 72
c19.333 36 29 57.333 29 64c0 0.666992 -0.666992 1.33398 -2 2.00098c-17.333 -0.666992 -29.333 -1.66699 -36 -3c-15.333 -2 -26 -5.66699 -32 -11c-42.667 -38.667 -95.334 -102 -158.001 -190c-37.333 -52.667 -64 -89 -80 -109s-33 -49.667 -51 -89z" />
    <glyph glyph-name="R" unicode="R" horiz-adv-x="821" 
d="M928 604c2.66699 12.667 3.99902 24.333 3.99902 35c0 20 -8.33301 41.667 -25 65s-34.334 38.333 -53.001 45c-137.333 48.667 -246.666 73 -327.999 73c-61.333 0 -116.666 -11 -165.999 -33c-58 -25.333 -98.667 -63 -122 -113c-9.33301 -20 -14 -39.667 -14 -59
c0 -40 20.333 -71.667 61 -95v-1c1.33301 -1.33301 2 -2.33301 2 -3c0 -8.66699 -7.66699 -27.167 -23 -55.5s-25.333 -42.5 -30 -42.5c-16.667 7.33301 -30 11 -40 11c-13.333 0 -28.333 -11 -45 -33l-3 -4c-21.333 -12.667 -32 -25 -32 -37c0 -15.333 15.667 -25 47 -29
c16.667 -2 25 -5.66699 25 -11c0 -2 -4.66699 -9 -14 -21l-17 -22c-5.33301 -8.66699 -25.333 -36.667 -60 -84l-47 -66c-28.667 -41.333 -43 -73.666 -43 -96.999c0 -7.33301 5 -12 15 -14c6 -1.33301 10 -2.33301 12 -3c8.66699 -2 14.667 -3 18 -3
c2.66699 0 5.66699 1.5 9 4.5s6 4.83301 8 5.5c12.667 3.33301 21.334 7.33301 26.001 12c2.66699 3.33301 7.66699 12 15 26c14.667 28 27.667 51 39 69c3.33301 4.66699 9.33301 14 18 28c32.667 52 63.334 96.667 92.001 134c6.66699 6.66699 10.334 10 11.001 10
c11.333 0 29.666 -12 54.999 -36c46.667 -43.333 81.334 -78 104.001 -104c39.333 -44.667 66.666 -84.667 81.999 -120c25.333 -60 64.666 -90 117.999 -90c5.33301 0 13.166 -0.833008 23.499 -2.5s18.166 -2.5 23.499 -2.5c13.333 0 22.333 4 27 12
c1.33301 3.33301 11.333 13.166 30 29.499s30 27.166 34 32.499c0 0.666992 0.333008 1.33398 1 2.00098v2c0 3.33301 -3.66699 5 -11 5c-20 0 -43.333 -7.33301 -70 -22h-4c-2 -0.666992 -3.66699 -1 -5 -1c-25.333 0 -46.666 16.667 -63.999 50
c-57.333 111.333 -132 204 -224 278h14c14 -0.666992 19.667 -1 17 -1h30c110.667 0 205 22.667 283 68c48.667 28 87.667 53.333 117 76c40.667 30.667 67 74.667 79 132zM322.999 640.999c0 41.333 16.332 69.6699 48.999 85.0029c34 8 69.333 12 106 12
c68.667 0 156 -17 262 -51c64.667 -20.667 97 -59.667 97 -117c0 -22.667 -24.333 -51.334 -73 -86.001c-54 -38 -100 -62.667 -138 -74c-52.667 -15.333 -118 -23 -196 -23c-35.333 0 -70 1.66699 -104 5l-12 4c16.667 40 36 82 58 126c12 7.33301 26.667 17.333 44 30
c3.33301 4 8.66602 13.333 15.999 28c0.666992 1.33301 5 7.66602 13 18.999c6.66699 9.33301 10 15.666 10 18.999c0 4 -2.66699 6 -8 6c-7.33301 0 -20.666 -4.33301 -39.999 -13c-10 -4.66699 -18.667 -7 -26 -7c2.66699 0 -7.66602 1.66699 -30.999 5
c-4 -4 -7.66699 -6 -11 -6s-6.83301 3.83301 -10.5 11.5s-5.5 16.5 -5.5 26.5z" />
    <glyph glyph-name="S" unicode="S" horiz-adv-x="939" 
d="M189 292c0 4.66699 -9.99805 6.99707 -29.998 6.99707c-23.333 0 -54.333 -11.333 -93 -34c-42 -24 -63 -46.333 -63 -67c0 -38 4 -67.667 12 -89c10.667 -28 30.334 -49.667 59.001 -65c36 -19.333 82 -35.333 138 -48c51.333 -11.333 99.666 -17.666 144.999 -18.999
c20 -0.666992 40.333 -0.333984 61 0.999023c32 2 52.333 3 61 3c74.667 0.666992 147.334 10.334 218.001 29.001c95.333 24.667 156.666 60 183.999 106c10.667 18 16 37 16 57c0 14 -2.66699 29.333 -8 46c-11.333 35.333 -33.333 67.666 -66 96.999
c-20.667 18.667 -53.334 41.334 -98.001 68.001l-25 15c-44.667 26.667 -94.667 54.667 -150 84c-36 19.333 -79.333 41.333 -130 66c-3.33301 1.33301 -9 4 -17 8c-17.333 8 -26 17 -26 27c0 8.66699 7.66699 19 23 31h1c147.333 96 252 144 314 144c20 0 38 -4 54 -12
c20 -10 30 -24 30 -42c0 -22.667 -15.667 -34 -47 -34h-8c-2 0.666992 -3.33301 1 -4 1c-4.66699 0 -7 -1 -7 -3c0 2.66699 3.5 -4 10.5 -20s11.167 -24.333 12.5 -25c0.666992 0 1 1 1 3c0 0.666992 -0.333008 1.66699 -1 3v7c0 14 8.66699 21 26 21c9.33301 0 19 1 29 3
c12 0 28 14.333 48 43l20 27c16.667 22.667 25 44 25 64c0 24.667 -15.333 41.334 -46 50.001c-11.333 3.33301 -30.333 5 -57 5c-44 0 -76.333 -4 -97 -12c-28.667 -7.33301 -73 -24.333 -133 -51c-69.333 -30.667 -119 -58 -149 -82l-5 -4
c-8.66699 -6 -23.667 -17 -45 -33c-58 -44 -87 -84.667 -87 -122c0 -42 23.333 -72.333 70 -91c24 -13.333 55.667 -28.666 95 -45.999c58.667 -25.333 91.334 -39.333 98.001 -42c23.333 -10.667 56.666 -30 99.999 -58c62 -40 102 -71.333 120 -94
c21.333 -21.333 32 -40.333 32 -57c0 -33.333 -21.667 -57.666 -65 -72.999c-14.667 -5.33301 -50.334 -12 -107.001 -20c-50.667 -8 -91 -11.667 -121 -11l-111 3c-61.333 1.33301 -126.666 13.333 -195.999 36c-36.667 12 -62.334 23 -77.001 33
c-24.667 17.333 -37 40.333 -37 69c0 17.333 12 36 36 56c2.66699 2 15 9.33301 37 22c20 11.333 30 17.666 30 18.999z" />
    <glyph glyph-name="T" unicode="T" horiz-adv-x="447" 
d="M206 238.5c6.66699 16.333 19.999 39.166 39.999 68.499l50 77l25 38c40 61.333 64.333 99.333 73 114c29.333 51.333 45.666 93 48.999 125c0 14.667 -2.66699 24 -8 28s-15.666 6 -30.999 6c-16 -2 -27.833 -6 -35.5 -12s-14.167 -16.667 -19.5 -32
c-21.333 -60.667 -53 -124.667 -95 -192l-98 -155l-39 -60c-48.667 -74.667 -88 -150.667 -118 -228c-3.33301 -8.66699 -5 -14 -5 -16c0 -4.66699 3 -7 9 -7c4.66699 0 15.334 1.66699 32.001 5s32.667 7.33301 48 12c13.333 5.33301 25.666 23 36.999 53
c2 5.33301 8.33301 24 19 56c0.666992 2 2 5.66699 4 11c8 22.667 18.833 42.334 32.5 59.001s23.834 33.167 30.501 49.5zM923.999 721c-1.33301 0 6.66699 4.33203 24 12.999c9.33301 6 14 14.667 14 26c0 14 -4 22.333 -12 25c-2 0.666992 -30.333 3.33398 -85 8.00098
c-196.667 16.667 -316.334 25 -359.001 25c-32 0 -74 -1 -126 -3c-18.667 -0.666992 -48.667 -4.33398 -90 -11.001c-60.667 -10 -99.334 -17.667 -116.001 -23c-27.333 -9.33301 -64.333 -29.333 -111 -60c-32.667 -50.667 -49 -79 -49 -85c0 -5.33301 3 -10.333 9 -15
c10.667 -10.667 21.334 -16 32.001 -16c9.33301 0 24.333 10 45 30c11.333 10.667 20.333 25.334 27 44.001c4 11.333 8 18 12 20c30.667 14.667 71.334 23 122.001 25c8.66699 0 19.667 2 33 6c8.66699 4.66699 20.334 7 35.001 7c9.33301 0 35.666 0.666992 78.999 2l39 2
c32 1.33301 50.333 2 55 2c42.667 0 106.667 -3.83301 192 -11.5s149.333 -11.5 192 -11.5c6 0 12.333 0.333008 19 1h19z" />
    <glyph glyph-name="U" unicode="U" horiz-adv-x="671" 
d="M527 524l-104.002 -134.002l-69 -75c-51.333 -56.667 -84.333 -92 -99 -106c-38 -38 -75.333 -68.667 -112 -92c-10 -6.66699 -17 -10 -21 -10c-1.33301 0 -2 1 -2 3c0 5.33301 11 26.666 33 63.999c26 44 68 120.667 126 230l61 110c22 43.333 38.667 82 50 116l62 186
c5.33301 15.333 8 24 8 26c0 3.33301 -3 5 -9 5h-7l-5 -1c-14 0 -23 3.33301 -27 10c-2 2 -4 3 -6 3c-2.66699 0 -7.33398 -1.66699 -14.001 -5c-17.333 -8.66699 -33.666 -21.334 -48.999 -38.001c-18 -19.333 -27 -37.333 -27 -54v-4c1.33301 -8 2 -15.667 2 -23
c0 -9.33301 -1.66699 -20 -5 -32c-3.33301 -8.66699 -5 -15.667 -5 -21c0 -3.33301 0.833008 -8.16602 2.5 -14.499s2.5 -11.166 2.5 -14.499c0 -17.333 -9 -42 -27 -74l-42 -72l-40 -69l-58 -108c-3.33301 -6.66699 -9.66602 -18.667 -18.999 -36l-39 -78
c-13.333 -30 -40 -82 -80 -156l-3 -5c-4 -4.66699 -6 -8.33398 -6 -11.001c0 -4 3 -9.33301 9 -16c2.66699 -12 6.33398 -18 11.001 -18c8 0 18 1.66699 30 5c15.333 4.66699 25 7.33398 29 8.00098c16 2.66699 26.333 4.66699 31 6c12 3.33301 21.667 8 29 14
c3.33301 3.33301 7.66602 8 12.999 14l58 65c12.667 14.667 22.834 25.5 30.501 32.5s23 18 46 33s41.167 28.5 54.5 40.5c32.667 30.667 52.334 54.667 59.001 72c4 14 13 27.667 27 41l13.5 18c7 9.33301 12.167 14 15.5 14c13.333 0 32.333 17 57 51
c38.667 52.667 91 103 157 151c-17.333 -39.333 -47.333 -96.666 -90 -171.999s-72.667 -133 -90 -173c-20.667 -48 -31 -97 -31 -147c0 -33.333 3.33301 -56.333 10 -69c9.33301 -18 29.333 -27 60 -27c17.333 0 30.333 4.66699 39 14c6 6.66699 12 19.667 18 39v1
c2 5.33301 3 10 3 14c0 4.66699 -3.16699 9.5 -9.5 14.5s-9.5 8.83301 -9.5 11.5c-2 13.333 -3 27.333 -3 42c0 100.667 42 214 126 340l32 48c32 48.667 59 95.667 81 141l39 85c6 12.667 9 21.667 9 27c0 6.66699 -11 12.667 -33 18c-5.33301 1.33301 -11 2 -17 2
c-16.667 0 -33.334 -8.33301 -50.001 -25l-3 -3l-136 -141c-17.333 -15.333 -46.333 -45.666 -87 -90.999z" />
    <glyph glyph-name="V" unicode="V" horiz-adv-x="582" 
d="M666 579c-42.667 -61.333 -115.664 -144.337 -218.997 -249.004c-0.666992 -1.33301 -3.66699 -4.33301 -9 -9l-167 -145l-77 -66l-4 -2c-12 -6 -19 -9 -21 -9c-5.33301 0 -8 4.66699 -8 14c0 2 0.333008 3.66699 1 5v7c5.33301 44.667 13.333 90.667 24 138
c4 19.333 7.33301 32.666 10 39.999c20.667 62 47.667 132 81 210c9.33301 22 16.666 38.333 21.999 49c29.333 60 43.666 112.667 42.999 158c-0.666992 48.667 -3 77.334 -7 86.001c-2.66699 5.33301 -9 8 -19 8c-16.667 0 -29.667 -4.33301 -39 -13
c-42 -39.333 -63 -70.666 -63 -93.999c0 -4 0.5 -10.167 1.5 -18.5s1.5 -14.5 1.5 -18.5v-6c-0.666992 -2.66699 -1 -5 -1 -7c-14 -62 -43.667 -158.667 -89 -290c-33.333 -96 -60 -179.333 -80 -250c-3.33301 -12 -5 -23.667 -5 -35c0 3.33301 0.333008 3.33301 1 0v-16
v-18c0 -31.333 5.66699 -49.666 17 -54.999c2.66699 -2 6.66699 -3 12 -3c16.667 0 43.667 9.33301 81 28c14.667 7.33301 29.667 14.333 45 21c34 14.667 55.667 26.667 65 36c18 17.333 44 40.333 78 69c49.333 41.333 85.333 75.333 108 102l101 101
c110.667 114 196 217.333 256 310l8 12l69 111v1c10.667 18.667 16 31 16 37c0 6.66699 -4.83301 15.834 -14.5 27.501s-17.5 17.5 -23.5 17.5c-7.33301 0 -21 -7 -41 -21c-8 -11.333 -19.667 -24.333 -35 -39c-4 -2.66699 -6.66699 -13 -8 -31
c-0.666992 -15.333 -2.33398 -24.666 -5.00098 -27.999l-68 -107l-25 -40c-0.666992 -0.666992 -5 -6.66699 -13 -18z" />
    <glyph glyph-name="W" unicode="W" horiz-adv-x="780" 
d="M394 7c24 0 55.666 9.00195 94.999 27.002c4.66699 2 14.334 12 29.001 30c7.33301 10 19.333 24.333 36 43c12.667 13.333 36.334 33 71.001 59l35 27c9.33301 8 18.666 18.667 27.999 32c10.667 16 18.667 27 24 33l36 34.5c12 11.667 23 26.834 33 45.501l11 19
c13.333 16 27 35 41 57c3.33301 5.33301 9.33301 14.333 18 27c20.667 31.333 38.334 70 53.001 116l33 96c6.66699 20.667 13 41.667 19 63c2 8.66699 7 41.667 15 99c4 30 6 50 6 60c0 12 -5 19.667 -15 23l-2 1c-13.333 6.66699 -23 10 -29 10
c-8.66699 0 -18.667 -6.33301 -30 -19l-4 -3c-14 -10.667 -21 -33.667 -21 -69c0 -136 -42.333 -279 -127 -429c-0.666992 -0.666992 -12.334 -15 -35.001 -43c-36.667 -45.333 -63 -77 -79 -95c-32 -36 -61.667 -64 -89 -84c-7.33301 -6 -18.666 -14.667 -33.999 -26l-7 -5
c-21.333 -15.333 -33 -23 -35 -23c-2.66699 0 -4 2 -4 6l1 2v4c10.667 71.333 25.334 137.333 44.001 198c13.333 43.333 20 67.666 20 72.999c0 8.66699 -4.33301 13 -13 13c-4.66699 0 -11.667 -0.833008 -21 -2.5s-16.333 -2.5 -21 -2.5
c-16 -0.666992 -34.333 -8 -55 -22l-43 -29c-12.667 -8.66699 -28.667 -22.334 -48 -41.001c-20.667 -20.667 -36 -35 -46 -43c-14.667 -11.333 -30.334 -25.666 -47.001 -42.999c-23.333 -24.667 -38 -39.667 -44 -45c-16 -14.667 -38.667 -33.334 -68 -56.001
c5.33301 18.667 20.666 48.667 45.999 90c14 23.333 23 39.333 27 48c8 18.667 21.667 43.667 41 75c20.667 34 34.667 59 42 75c15.333 32.667 32 59.667 50 81c10.667 12.667 16 22 16 28c0 12.667 20.667 58.667 62 138c20 38.667 30 59 30 61c0 3.33301 -5 6 -15 8
c-7.33301 0.666992 -14.333 1.66699 -21 3c-16 0 -35.5 -11.667 -58.5 -35s-37.167 -43.333 -42.5 -60c-17.333 -56 -59 -137 -125 -243l-37 -60c-4.66699 -9.33301 -13 -24 -25 -44c-8.66699 -14 -25.667 -48.333 -51 -103c-27.333 -58.667 -41 -102.334 -41 -131.001
c0 -16 3 -31 9 -45l1 -1c2 -4.66699 5 -7 9 -7c3.33301 0 9.66602 1.33301 18.999 4c17.333 0 38 12 62 36l45 46c27.333 29.333 51 53.333 71 72c6 6 13.833 10.167 23.5 12.5s17.834 5.83301 24.501 10.5c10 6.66699 31.667 26 65 58c26.667 25.333 40.667 38 42 38
c1.33301 -0.666992 2 -2 2 -4c0 -3.33301 -7.66699 -35 -23 -95c-17.333 -68 -26 -112.667 -26 -134c0 -16.667 4 -27.667 12 -33c6 -4.66699 17.667 -7 35 -7z" />
    <glyph glyph-name="X" unicode="X" horiz-adv-x="845" 
d="M792 720c-30.667 -56 -92.002 -116.336 -184.002 -181.003c-17.333 -6.66699 -27 -10.334 -29 -11.001c-11.333 0 -23 34.667 -35 104c-8 42.667 -19.667 80.334 -35 113.001c-10 21.333 -20.667 39 -32 53c-17.333 22 -33.666 33 -48.999 33
c-2.66699 0 -7.83398 -2.5 -15.501 -7.5s-13.167 -7.83301 -16.5 -8.5c-22.667 -8.66699 -34 -24 -34 -46c0 -5.33301 1.33301 -10 4 -14c-1.33301 -6.66699 -2 -12.334 -2 -17.001c0 -3.33301 0.833008 -7.83301 2.5 -13.5s2.5 -10.167 2.5 -13.5c0 -20 14 -48 42 -84
c22.667 -28.667 49 -85.667 79 -171l4 -7c1.33301 -3.33301 2 -6 2 -8c0 -6 -16.667 -22.667 -50 -50l-62 -54l-206 -165c-117.333 -95.333 -176 -150 -176 -164c0 -2 -0.333008 -4.66699 -1 -8v-6c0 -5.33301 3.33301 -8 10 -8c3.33301 0 15 2 35 6
c8 0.666992 14.333 2.66699 19 6c164 126.667 294.667 233.334 392 320.001l18 18c16 16 26.333 24 31 24c6 0 14 -12.333 24 -37c6.66699 -16.667 12.667 -32.334 18 -47.001c2 -6 9.33301 -22 22 -48l14 -31c2.66699 -5.33301 14.334 -25.333 35.001 -60l3 -5l28 -46
c6.66699 -10.667 21.334 -29.667 44.001 -57c7.33301 -7.33301 15.333 -12.666 24 -15.999c2.66699 -1.33301 7.66699 -3.66602 15 -6.99902c-0.666992 0 -1.33398 -0.333008 -2.00098 -1v0l1 2c4.66699 7.33301 12.667 20.666 24 39.999c7.33301 12 11 22.667 11 32
c0 8.66699 -15.333 37.667 -46 87c-52 84 -91.333 179.667 -118 287c0 6.66699 11 19.334 33 38.001l34 29l40 34l42 34l31 29l103 95c13.333 12.667 27.666 29 42.999 49c21.333 26.667 32 45 32 55c0 4 -2.33301 12.333 -7 25c-2 3.33301 -3.66699 7 -5 11
c-1.33301 6.66699 -8.66602 10 -21.999 10c-20 0 -37.333 -9.33301 -52 -28c-23.333 -17.333 -48.666 -34.666 -75.999 -51.999c-22.667 -14 -34 -23.333 -34 -28c0 -3.33301 6.66699 -8.33301 20 -15c6.66699 -3.33301 10 -6.66602 10 -9.99902c0 -2 -1 -5 -3 -9z" />
    <glyph glyph-name="Y" unicode="Y" horiz-adv-x="324" 
d="M181 433c-7.33301 -19.333 -21.332 -45.335 -41.999 -78.002c-22 -35.333 -36.667 -61.333 -44 -78c-17.333 -38 -47 -107 -89 -207c-4.66699 -11.333 -7 -22.333 -7 -33v-7c0.666992 -3.33301 1 -6 1 -8c2 -14 7.66699 -21 17 -21c5.33301 0 10.666 2 15.999 6
c19.333 0.666992 41 11 65 31l4 4c2 43.333 13.667 91 35 143c10 24.667 31.667 69 65 133l43 87c2 4.66699 8.5 15.5 19.5 32.5s16.5 26.833 16.5 29.5s-3.66699 4 -11 4h-2c1.33301 1.33301 5.33301 4 12 8c23.333 13.333 41.666 25.333 54.999 36c12.667 8 31 21 55 39
c17.333 15.333 29.333 25 36 29c22.667 14.667 49.334 29.334 80.001 44.001c16 8 29.667 18.333 41 31c4.66699 5.33301 12 10 22 14c14.667 6 23 9.33301 25 10c4.66699 2.66699 11.334 8.66699 20.001 18s16.667 14.333 24 15c12.667 1.33301 24.667 10 36 26
c0.666992 0.666992 3.33398 3.66699 8.00098 9c8 8.66699 12 14.667 12 18c0 4.66699 -8.33301 8.66699 -25 12c-10 2 -18.667 3 -26 3c-10 0 -20.333 -2.66699 -31 -8l-6 -3c-32.667 -18.667 -80 -48.667 -142 -90l-60 -46c-40.667 -22 -74.667 -44.667 -102 -68
c-4 -3.33301 -12.333 -7.66602 -25 -12.999c-10.667 -2 -26.667 -10.333 -48 -25c-12 -8 -20.667 -12 -26 -12c-2 0 -3 1 -3 3s1.33301 6.33301 4 13c21.333 53.333 37.166 89.833 47.499 109.5s29.166 52.5 56.499 98.5c13.333 22 22.333 39.333 27 52
c2.66699 6.66699 4 14.667 4 24c0 18.667 -9 28 -27 28c-13.333 0 -24.666 -3.66699 -33.999 -11c-34.667 -26.667 -63 -73.667 -85 -141l-52 -126c-2.66699 -7.33301 -10.667 -26.5 -24 -57.5s-20 -50.167 -20 -57.5c0 -11.333 7 -18 21 -20
c21.333 -3.33301 35.666 -5 42.999 -5c6 0 12.667 1.66699 20 5z" />
    <glyph glyph-name="Z" unicode="Z" horiz-adv-x="741" 
d="M387 327c5.33301 6.66699 18.6641 15.6621 39.9971 26.9951c24 12.667 39.333 22 46 28l10 13c2 3.33301 7 5.33301 15 6l85 7c38 1.33301 95.333 4 172 8c5.33301 0 9.33301 0.333008 12 1c18 4 31.333 13.667 40 29v1c5.33301 8 8 14 8 18c0 6 -5.66699 9 -17 9h-5
c-4 -0.666992 -6.66699 -1 -8 -1c-4 -2.66699 -15 -4 -33 -4h-35c2 0 -6 0.333008 -24 1h-16c-4 0 -10 0.5 -18 1.5s-14 1.5 -18 1.5c-7.33301 0 -14.333 -0.666992 -21 -2l-15 -3c-13.333 -2.66699 -21.666 -4 -24.999 -4c-1.33301 0 -2.33301 0.333008 -3 1
c0 -1.33301 11.667 11.334 35 38.001c16.667 18.667 31.667 41 45 67c16 30 24 55 24 75v8c0.666992 2.66699 1 5.33398 1 8.00098c0 28 -3.66699 46.333 -11 55c-11.333 13.333 -50.333 36.333 -117 69c-36 22.667 -81 34 -135 34c-40 0 -65.667 -3.66699 -77 -11
c-18 -11.333 -30.667 -20.666 -38 -27.999c-14.667 -14 -22.334 -27.333 -23.001 -40c0 -4 3 -6 9 -6c3.33301 0 8.66602 0.833008 15.999 2.5s13 2.5 17 2.5c-4 0 -3 0.333008 3 1h26h20c42.667 0 78.334 -6 107.001 -18l21 -10c59.333 -28 89 -49 89 -63
c0 -3.33301 0.5 -8.66602 1.5 -15.999s1.5 -12.666 1.5 -15.999c0 -27.333 -32.667 -77 -98 -149c-4.66699 0 -11.334 -0.833008 -20.001 -2.5s-15 -2.5 -19 -2.5c-13.333 -2 -34.666 -3 -63.999 -3c-26.667 0 -61.334 1.66699 -104.001 5
c-6 0.666992 -17.167 2.33398 -33.5 5.00098s-28.833 4 -37.5 4c-10.667 0 -27.334 -7 -50.001 -21c-24.667 -14.667 -37 -26.334 -37 -35.001c0 -10 10 -15.333 30 -16s55.667 -6.66699 107 -18c0.666992 0 1.66699 0.666992 3 2c6.66699 4.66699 14 7 22 7
c4.66699 2.66699 34.334 5.33398 89.001 8.00098c14 0.666992 24.333 1 31 1c-15.333 -12 -38.666 -29.333 -69.999 -52l-59 -40c-96 -64 -164.333 -118.667 -205 -164c-7.33301 -8 -18 -25 -32 -51c-3.33301 -9.33301 -5.33301 -25.333 -6 -48
c-0.666992 -13.333 0.333008 -23.666 3 -30.999c0.666992 -4.66699 3.33398 -10 8.00098 -16c48 -26.667 88 -39.334 120 -38.001c44.667 2 83 6.66699 115 14l13 3c25.333 6 49 11 71 15c50.667 0 86.334 3 107.001 9c38.667 16 71 25 97 27
c21.333 7.33301 44.333 13 69 17c5.33301 6.66699 15.5 14.5 30.5 23.5s24.833 15.833 29.5 20.5c20.667 17.333 31 34.666 31 51.999c0 5.33301 -3 8 -9 8c-4.66699 0 -20.334 -5.33301 -47.001 -16l-68 -27c-25.333 -10 -68 -20.333 -128 -31
c-75.333 -13.333 -128.666 -20 -159.999 -20s-74.666 3.66699 -129.999 11c-8 1.33301 -17.333 5.66602 -28 12.999c-12.667 8.66699 -19 16.334 -19 23.001c0 16.667 11.667 36.667 35 60s76.333 65 159 125z" />
    <glyph glyph-name="bracketleft" unicode="[" horiz-adv-x="613" 
d="M534 750c34 -7.33301 59.9961 -10.999 77.9961 -10.999c2.66699 0 5.33398 0.333008 8.00098 1h2c14 15.333 26 37.333 36 66c2 6 5 13.333 9 22c9.33301 12.667 14 22 14 28s-5.66699 9.33301 -17 10c-38.667 2.66699 -75.334 6.33398 -110.001 11.001
c-8 1.33301 -13 3.66602 -15 6.99902c-5.33301 7.33301 -14 11 -26 11s-20.667 -4.66699 -26 -14c-3.33301 -16 -10 -39.333 -20 -70c-12 -28 -38.667 -75.667 -80 -143l-88 -143l-82 -141c-13.333 -22.667 -23.666 -43.334 -30.999 -62.001l-51 -128l-41 -106
c-22.667 -58.667 -43.667 -110.667 -63 -156l-25 -53c6 -14.667 13.667 -22 23 -22c2.66699 0 8.33398 1 17.001 3h2c-8 0 6.66699 2.33301 44 7s66 7 86 7h4c1.33301 0.666992 2.33301 1 3 1c4 0 9.83301 -1.33301 17.5 -4s13.167 -4 16.5 -4s5.33301 2 6 6
c2.66699 21.333 8.66699 40.666 18 57.999c14 28.667 22 45.334 24 50.001c0 3.33301 -6.33301 5 -19 5c-17.333 0 -40.666 -1.66699 -69.999 -5c-34.667 -4 -58 -6.33301 -70 -7l93 202c90 196 185 363.333 285 502c12 16.667 24 37 36 61c4 8 7 12 9 12h1
c0.666992 -0.666992 1.33398 -1 2.00098 -1z" />
    <glyph glyph-name="backslash" unicode="\" horiz-adv-x="548" 
d="M373 233l13.999 -22l76 -116c-11.333 0 -18.166 -2 -20.499 -6s-3.5 -12.333 -3.5 -25c2.66699 -12.667 17 -25.667 43 -39c23.333 -12 42.333 -18 57 -18c16.667 0 27 6.33301 31 19c-6.66699 9.33301 -25.667 40 -57 92l-37 61l-98 168
c-7.33301 12.667 -41.666 56.667 -102.999 132l-139 171l-34 41c-8 17.333 -16.667 35 -26 53c-2.66699 5.33301 -8 8 -16 8c-12 0 -20 -4 -24 -12c-13.333 -12 -22.333 -30.667 -27 -56c5.33301 -9.33301 12.666 -21 21.999 -35c142 -142 256 -280.667 342 -416z" />
    <glyph glyph-name="bracketright" unicode="]" horiz-adv-x="501" 
d="M91 -19c-18 2 -35.6699 3.00195 -53.0029 3.00195c-20 0 -31.667 -1.33301 -35 -4c-12 -19.333 -21 -42.666 -27 -69.999c-2.66699 -11.333 -5 -19 -7 -23c-6.66699 -12 -10 -21 -10 -27c0 -7.33301 6 -11 18 -11c19.333 0.666992 42.666 1.66699 69.999 3l34 2
c10.667 0 18.834 -2.33301 24.501 -7s12.5 -7 20.5 -7c14 0 23.333 5 28 15c2.66699 5.33301 4.5 17.166 5.5 35.499s12.167 52.833 33.5 103.5l108 257l61 143c8 18.667 14.5 38.167 19.5 58.5l31.5 125.5l49 196c7.33301 29.333 20.333 76 39 140
c-7.33301 12 -14.666 18 -21.999 18c-2.66699 0 -9 -1.33301 -19 -4c-1.33301 -0.666992 -3.66602 -1.33398 -6.99902 -2.00098c-29.333 -12 -70.333 -22 -123 -30c-5.33301 -1.33301 -9.66602 -2 -12.999 -2c-2.66699 0 -7 0.5 -13 1.5s-10.333 1.5 -13 1.5
c-4.66699 0 -7 -2 -7 -6c0 -30.667 -4.33301 -54.334 -13 -71.001c-5.33301 -10 -10.333 -23.667 -15 -41c0 -2.66699 3 -4 9 -4c8 0 34 5.33301 78 16c34 8 57.333 13 70 15l-57 -184l-9 -28c-41.333 -128.667 -76 -226.667 -104 -294
c-36.667 -88 -74.667 -168.333 -114 -241c-9.33301 -18 -18.333 -39.667 -27 -65c-3.33301 -9.33301 -6 -14 -8 -14c-0.666992 0 -1 0.333008 -1 1h-2z" />
    <glyph glyph-name="asciicircum" unicode="^" horiz-adv-x="452" 
d="M340 556l6.00098 5.00488c15.333 12.667 24.333 24 27 34c2.66699 4.66699 10.167 10.834 22.5 18.501s20.166 14.5 23.499 20.5c4.66699 12 13.334 22 26.001 30c1.33301 0.666992 3.66602 3 6.99902 7s5.33301 6 6 6c6 0 10.667 -8 14 -24
c5.33301 -26.667 13.333 -58.334 24 -95.001c5.33301 -12 14 -18 26 -18c14 3.33301 21 16.666 21 39.999c0 -8.66699 -2 19 -6 83l-1 16c-2.66699 40.667 -14.334 61 -35.001 61c-20 -2 -38.667 -12 -56 -30l-44 -48c-5.33301 -4.66699 -12.333 -9.33398 -21 -14.001
c-8 -2 -22.667 -17.333 -44 -46l-9 -12c-26 -34.667 -49 -58.667 -69 -72c-16 -8.66699 -24.667 -13.334 -26 -14.001c-8.66699 -6.66699 -13.667 -14.334 -15 -23.001c0 -2.66699 2.66699 -4 8 -4h7c4 0.666992 7 1 9 1c22.667 5.33301 46 21.666 70 48.999
c10.667 12 20.334 21.667 29.001 29z" />
    <glyph glyph-name="underscore" unicode="_" horiz-adv-x="639" 
d="M551 -47c-26 -1.33301 -57.3301 -2.00098 -93.9971 -2.00098c-104 0 -207.333 4.33301 -310 13c-2.66699 -0.666992 -7.33398 -2 -14.001 -4c-46.667 -12.667 -83.334 -32.334 -110.001 -59.001c-3.33301 -3.33301 -5 -5.66602 -5 -6.99902c0 -6 28 -8.66699 84 -8
c20.667 0 81.334 2 182.001 6c70.667 2.66699 121.667 4 153 4c51.333 0 89.666 -3.66699 114.999 -11c6.66699 -2 13 -3 19 -3c6.66699 0 14.667 2.83301 24 8.5s15.666 8.83398 18.999 9.50098c34.667 24 52 39.333 52 46s-14.333 10 -43 10c-8.66699 0 -32.667 -1 -72 -3
z" />
    <glyph glyph-name="grave" unicode="`" horiz-adv-x="395" 
d="M330 615c13.333 -26 24.001 -42.666 32.001 -49.999c13.333 -12.667 31 -19 53 -19c13.333 1.33301 22.666 7.66602 27.999 18.999c2 4 5 15.667 9 35v2l1 2c0 16 -12.667 40.333 -38 73c-30.667 32.667 -46 62 -46 88c0 29.333 -6 44 -18 44
c-6.66699 0 -14 -1.33301 -22 -4c-25.333 -4.66699 -41 -14.667 -47 -30c-7.33301 -19.333 -11 -27 -11 -23c0 -3.33301 2 -9 6 -17l2 -4c0 -1.33301 0.333008 -3 1 -5c5.33301 -32 14 -57.333 26 -76c6 -9.33301 14 -21 24 -35z" />
    <glyph glyph-name="a" unicode="a" horiz-adv-x="512" 
d="M98 101c61.333 100 126.001 182.335 194.001 247.002c42.667 40.667 71.667 61 87 61h3c1.33301 -0.666992 2.33301 -1 3 -1c14 -7.33301 21 -16.333 21 -27c0 -3.33301 -1.33301 -9 -4 -17l-4 -12c-12 -35.333 -21.333 -60.333 -28 -75
c-13.333 -29.333 -28.333 -50.666 -45 -63.999c-7.33301 -4.66699 -16.333 -13 -27 -25c-2.66699 -5.33301 -9.33398 -9.33301 -20.001 -12s-16.834 -7.83398 -18.501 -15.501s-4.16699 -12.334 -7.5 -14.001s-15.666 -9.83398 -36.999 -24.501l-39 -27l-52 -35
c-5.33301 -3.33301 -11.333 -5 -18 -5c-4.66699 0 -10.667 0.833008 -18 2.5s-11 3.16699 -11 4.5c0 3.33301 7 16.333 21 39zM303.001 415.002c-36 -32 -71.3291 -66.9971 -105.996 -104.997c-15.333 -16.667 -26 -29.334 -32 -38.001l-144 -204
c-13.333 -15.333 -20 -33.333 -20 -54v-2c0 -19.333 8.33301 -29 25 -29h4c1.33301 0.666992 2.66602 1 3.99902 1c7.33301 3.33301 26.666 9.66602 57.999 18.999c21.333 5.33301 39.333 15 54 29c32 29.333 53.667 44.666 65 45.999c5.33301 0 11.666 4.33301 18.999 13
c32 38 55.667 57 71 57c11.333 0 28 6.5 50 19.5s34.667 24.5 38 34.5v-7l1 -4c0 -8 -2 -16 -6 -24l-1 -1c-6.66699 -12 -15.334 -33 -26.001 -63c-12.667 -34.667 -21.334 -57 -26.001 -67c-2.66699 -6 -4 -11.333 -4 -16c0 -13.333 15 -20 45 -20c6.66699 0 13 2 19 6
c8.66699 6 15 9.66699 19 11c2 0.666992 3.33301 1 4 1c6.66699 2.66699 15.667 9.5 27 20.5s19.333 17.833 24 20.5c6.66699 14 10 24.667 10 32c0 5.33301 -2 8 -6 8l-2 -1h-2c-4.66699 -0.666992 -14.667 -5.66699 -30 -15c-9.33301 -6 -17.666 -10.667 -24.999 -14
c2 26 20 64.333 54 115c27.333 40.667 44.666 72 51.999 94c4 11.333 6.5 28.333 7.5 51s2.83301 39 5.5 49c-9.33301 -4 -16.666 -6 -21.999 -6c-8 0 -12.667 5.66699 -14 17v3c1.33301 8.66699 2 17.667 2 27c0 34.667 -7.33301 56.667 -22 66
c-5.33301 4.66699 -13 7 -23 7c-39.333 0 -88.333 -25.667 -147 -77z" />
    <glyph glyph-name="b" unicode="b" horiz-adv-x="375" 
d="M357 258c-57.333 -117.333 -134.999 -184.666 -232.999 -201.999c-1.33301 0 -2.33301 -0.333008 -3 -1c-18 -3.33301 -32.667 -5 -44 -5c0 32.667 8.33301 66.667 25 102c10.667 22.667 23 46 37 70l7 12c5.33301 9.33301 14.666 17 27.999 23
c16 5.33301 32 16.333 48 33l57 61c34 36 64.667 58.333 92 67c8 4 15.667 6 23 6c4.66699 0 7 -3 7 -9c0 -3.33301 -1.66699 -10.333 -5 -21c-0.666992 -1.33301 -2.66699 -10 -6 -26c-5.33301 -24.667 -16.333 -61.334 -33 -110.001zM5.00098 47
c8.66699 -5.33301 12.998 -14.666 12.998 -27.999c2.66699 -21.333 18.334 -32 47.001 -32c2 0 28.333 10.667 79 32c20 8 54.667 23.667 104 47c8.66699 4 19.334 10.667 32.001 20c5.33301 10.667 14.666 20 27.999 28c8.66699 6.66699 18.667 17.334 30 32.001
c12.667 17.333 21.667 28.666 27 33.999c4 0 7.16699 1.33301 9.5 4s4.83301 4.33398 7.5 5.00098c28 44.667 49 89 63 133c12 36 22.667 84.333 32 145c0 7.33301 -5.33301 12 -16 14h-5c-2 0.666992 -3.66699 1 -5 1c-32.667 0 -65.334 -8.66699 -98.001 -26
c-13.333 -6.66699 -34.333 -19 -63 -37l-18 -11l136 237c6.66699 12 29.334 50.333 68.001 115l22 37c0.666992 1.33301 2 3.66602 4 6.99902c10.667 16.667 16 28 16 34c0 4 -1.33301 7 -4 9c-8 10 -16.333 15 -25 15c-6.66699 0 -13 -2.66699 -19 -8
c-14 -12 -28.667 -21.667 -44 -29c-4.66699 -2 -7 -3.33301 -7 -4c0 -29.333 -15.333 -71 -46 -125c-1.33301 -2 -25 -40.333 -71 -115l-104 -168c-9.33301 -15.333 -26.333 -41 -51 -77c-43.333 -64 -72.666 -109.667 -87.999 -137
c-31.333 -56.667 -49.333 -107.334 -54 -152.001z" />
    <glyph glyph-name="c" unicode="c" horiz-adv-x="329" 
d="M165 343l-36.9971 -56c-38 -58 -62.667 -97.333 -74 -118c-27.333 -50.667 -41 -94 -41 -130c0 -2 0.333008 -4.66699 1 -8v-8c3.33301 -25.333 15.333 -38 36 -38h5c3.33301 -0.666992 6 -1 8 -1c43.333 0 88.666 12.333 135.999 37c44.667 23.333 82 52.333 112 87
c17.333 20 26 32.667 26 38c0 2 -1 3 -3 3c-7.33301 0 -15.666 -4 -24.999 -12c-18.667 -16 -54.667 -37 -108 -63c-20.667 -10 -39 -15 -55 -15c-35.333 0 -53 15 -53 45c0 7.33301 1.66699 15.666 5 24.999l63 111c15.333 27.333 42.666 66.333 81.999 117
c35.333 46 57.666 69 66.999 69c14.667 0 22 -12 22 -36c0 -6.66699 -2.33301 -24.667 -7 -54c-0.666992 -5.33301 -2.33398 -16.666 -5.00098 -33.999c14.667 0 33.667 16 57 48l13 18c10 14 18 46.667 24 98c0 3.33301 1 11 3 23c0 20.667 -6.33301 31 -19 31
c-2 0 -6 -1 -12 -3c-29.333 -4.66699 -58.333 -15 -87 -31c-16.667 -9.33301 -40.667 -31 -72 -65c-28 -31.333 -48.667 -57.333 -62 -78z" />
    <glyph glyph-name="d" unicode="d" horiz-adv-x="387" 
d="M346 278c-62 -83.333 -124.337 -148.336 -187.004 -195.003c-5.33301 -4 -15.333 -8.33301 -30 -13c-21.333 -6.66699 -30.666 -10 -27.999 -10c-4 0 -6 4.66699 -6 14c0 16.667 2.33301 29.334 7 38.001c8.66699 22.667 22 50 40 82c30 54 61.667 103.333 95 148
c2 2.66699 18.333 21.667 49 57c4.66699 5.33301 9.66699 8 15 8c8.66699 0 13.334 -8.66699 14.001 -26v-35c0 -39.333 4.33301 -59 13 -59c9.33301 0 20.333 10 33 30c10.667 16 16 24.667 16 26c0 2.66699 -1.33301 5.66699 -4 9c0 0.666992 -0.333008 1.66699 -1 3v3
c0 1.33301 3 5 9 11s9 14.667 9 26v11c0 30 -1.33301 48.667 -4 56c-5.33301 18.667 -18.666 28 -39.999 28c-1.33301 0 -2.66602 -0.333008 -3.99902 -1h-3c-52.667 -10 -107 -53.333 -163 -130c-88.667 -122 -145.334 -227 -170.001 -315
c-2 -7.33301 -3 -14.666 -3 -21.999c0 -23.333 11.333 -35 34 -35c36.667 0 67 7 91 21c6.66699 2 24.334 13.667 53.001 35c8.66699 6.66699 49.334 43.334 122.001 110.001l33 30c7.33301 6.66699 32 38.334 74 95.001c60 80.667 109.333 166.667 148 258
c0 0.666992 1.66699 4.33398 5 11.001c10.667 23.333 27.667 66 51 128c12 35.333 23.333 91.333 34 168c2.66699 19.333 4 35 4 47c0 2 -0.333008 4.66699 -1 8v5c-6.66699 32 -20 52.333 -40 61l-7 3c-36 15.333 -62.333 23 -79 23c-20 0 -46 -9 -78 -27l-6 -3
c-4.66699 -2.66699 -14.667 -12.334 -30 -29.001c-7.33301 -7.33301 -17.666 -19.666 -30.999 -36.999c-10.667 -16.667 -19.334 -28.334 -26.001 -35.001c7.33301 -1.33301 13.666 -2 18.999 -2c14.667 0 27.334 5.33301 38.001 16l33 42c13.333 14 29.333 22 48 24
c40 0 64.667 -11 74 -33c12 -28 18 -58 18 -90c0 -40.667 -14 -101.334 -42 -182.001c-12 -35.333 -32.667 -85 -62 -149c-8 -18 -16 -34 -24 -48c-16.667 -30 -53.334 -83 -110.001 -159z" />
    <glyph glyph-name="e" unicode="e" horiz-adv-x="408" 
d="M302 275c-37.333 -9.33301 -60.998 -14.001 -70.998 -14.001c-7.33301 0 -11 1.66699 -11 5c0 4 6.66699 11 20 21c2.66699 2 4.66699 5 6 9c1.33301 6.66699 8.33301 16.334 21 29.001c9.33301 9.33301 26.666 25 51.999 47s45 33 59 33c11.333 0 17 -5.66699 17 -17
c0 -6.66699 -2.33301 -14.667 -7 -24c-24.667 -48 -53.334 -77.667 -86.001 -89zM419.002 298.999c35.333 56 52.9961 99.6719 52.9961 131.005s-19.333 52 -58 62c-18 0 -44.833 -11.833 -80.5 -35.5s-69.167 -51.167 -100.5 -82.5l-72 -79
c-8 -8.66699 -13.667 -13.334 -17 -14.001c-7.33301 -2.66699 -18.833 -11.834 -34.5 -27.501s-23.5 -26.834 -23.5 -33.501c0 -2 0.666992 -3.33301 2 -4v0c0.666992 -0.666992 1 -1.33398 1 -2.00098c0 -4.66699 -9.33301 -19.334 -28 -44.001
c-11.333 -15.333 -19.666 -27 -24.999 -35c-18.667 -29.333 -28 -60.666 -28 -93.999c0 -32.667 24.333 -49 73 -49c23.333 0 81.666 19.667 174.999 59c66 28 107 51 123 69c5.33301 4.66699 12.333 12.667 21 24c2.66699 5.33301 5.33398 14.666 8.00098 27.999
c0 2 -0.666992 3 -2 3c-2 0 -9 -4.5 -21 -13.5s-19.667 -14.167 -23 -15.5c-11.333 -4.66699 -31 -14.667 -59 -30c-22.667 -12.667 -36.667 -20 -42 -22l-5 -2c-51.333 -20.667 -89.666 -31 -114.999 -31c-31.333 0 -46.666 10.333 -45.999 31
c0.666992 16 4.33398 29.667 11.001 41c2 3.33301 11.333 14.333 28 33l24 28h14c6 -0.666992 11 -1 15 -1c110 0 187.333 35.333 232 106z" />
    <glyph glyph-name="f" unicode="f" horiz-adv-x="348" 
d="M354 596l-101.002 -189c-14.667 -12 -39.667 -20.333 -75 -25l-80 -6c-14.667 -1.33301 -34.667 -3 -60 -5c-8 -0.666992 -18.333 -3 -31 -7c0.666992 -12.667 2.66699 -25 6 -37c25.333 -12.667 48 -19 68 -19c2 0 4.33301 0.333008 7 1h8l36 3l74 11l-9 -29l-112 -206
c-110 -204.667 -197.667 -357.667 -263 -459c-0.666992 -1.33301 -1.33398 -2 -2.00098 -2c-7.33301 0 -20 16.333 -38 49l-9 -55c-5.33301 -34 -10.333 -54 -15 -60c2 -4.66699 7 -9.83398 15 -15.501s14.667 -8.83398 20 -9.50098h3
c2.66699 -0.666992 4.33398 -1 5.00098 -1c22 0 34.667 3 38 9l113 216l65 102l85 147c14.667 26 33 62 55 108c25.333 54.667 43 91.334 53 110.001c28.667 54.667 55.667 95.667 81 123l35 7l22 8l51 21c67.333 28 101 48.333 101 61c0 5.33301 -5.33301 11.333 -16 18
l-5 -1c-20 -4 -45 -11 -75 -21l-78 -17c0 20 16 52.333 48 97c0.666992 0.666992 11 16 31 46l179 266c6 2.66699 11.333 4 16 4c8.66699 0 13 -4 13 -12v-29c0 -4.66699 -0.333008 -10 -1 -16v-11c0 -14.667 1 -22 3 -22c3.33301 0 8.33301 13.667 15 41l27 111
c3.33301 14.667 6.33301 25.334 9 32.001c-11.333 4 -21.666 6 -30.999 6c-20 0 -45 -14.333 -75 -43c-8 -8 -27.667 -30 -59 -66c-7.33301 -3.33301 -14.666 -13.333 -21.999 -30c-4.66699 -12.667 -9.66699 -25 -15 -37c-17.333 -36 -54 -91.667 -110 -167z" />
    <glyph glyph-name="g" unicode="g" horiz-adv-x="440" 
d="M580 -202c3.33301 -1.33301 5.33887 -2.32227 6.00586 -2.98926c8.66699 -5.33301 13 -9.33301 13 -12s-4.33301 -9.33398 -13 -20.001l-6 -6c-12 -12 -66 -41.667 -162 -89c-3.33301 0 -6.5 -0.666992 -9.5 -2s-4.83301 -2 -5.5 -2h-2c-2 0.666992 -3.33301 1 -4 1
c-4.66699 -0.666992 -9.83398 -3.5 -15.501 -8.5s-9.83398 -8.16699 -12.501 -9.5c-21.333 -4 -66 -15 -134 -33c-88 -23.333 -138 -35 -150 -35h-7c-3.33301 -0.666992 -5.66602 -1 -6.99902 -1c-4 0 -9 0.333008 -15 1h-13c-8.66699 0 -16.334 -1.33301 -23.001 -4
c-18 -7.33301 -31 -11 -39 -11h-5c-2.66699 0.666992 -4.33398 1 -5.00098 1c-67.333 11.333 -113 22.666 -137 33.999c-54 25.333 -81 47.666 -81 66.999c0 0.666992 0.333008 1.33398 1 2.00098v2c0 0.666992 0.333008 1.66699 1 3c4.66699 27.333 16 44.666 34 51.999
c15.333 6 29.666 15.667 42.999 29c2.66699 3.33301 13.667 13 33 29c31.333 26 57.666 49.667 78.999 71c-12 -0.666992 -21.333 -1.33398 -28 -2.00098c-12.667 -2.66699 -21 -6.33398 -25 -11.001c-14 -16.667 -37.333 -31.334 -70 -44.001c-26 -10 -50.333 -28 -73 -54
c-10.667 -12 -22.334 -27 -35.001 -45c-2 -7.33301 -6 -15 -12 -23c-5.33301 0 -11 -2.33301 -17 -7c0 -2.66699 -0.333008 -6.33398 -1 -11.001v-9c0 -16.667 8.33301 -35.334 25 -56.001c22 -27.333 54 -45 96 -53l56 -12c2 -0.666992 6.33301 -2 13 -4
c4.66699 -2 8.66699 -3 12 -3c6.66699 0 16 0.666992 28 2c37.333 4 69 6 95 6c6.66699 0 18 3 34 9s27.333 9 34 9c31.333 0 62.833 4 94.5 12l94.5 25l17 4c53.333 12.667 85 20.334 95 23.001c38 10.667 67.667 22.667 89 36c2.66699 2.66699 10.667 5.16699 24 7.5
s22.333 4.83301 27 7.5c2 0.666992 19.667 10 53 28c16 8.66699 41 33.334 75 74.001c10 12 16.667 19.667 20 23c4 6 6 15 6 27c0 22.667 -3.66699 37.667 -11 45c-24.667 34 -52.667 51 -84 51c-8.66699 0 -23.167 6.16699 -43.5 18.5l-30.5 18.5
c-0.666992 0 -2 -0.333008 -4 -1s-3.66699 -1 -5 -1c-38 11.333 -87 22.666 -147 33.999c-14.667 2.66699 -24.667 4 -30 4c-5.33301 -2.66699 -10 -4 -14 -4c-3.33301 0 -14.666 2.5 -33.999 7.5s-31.666 7.83301 -36.999 8.5l-43 5c4.66699 14 11.667 22.667 21 26l3 1
c11.333 3.33301 17 5.66602 17 6.99902c-0.666992 0.666992 -3 1.66699 -7 3c-1.33301 0.666992 -2.33301 1 -3 1c-6.66699 2 -13 3 -19 3l-6 -1h-8c25.333 14.667 39.666 28.334 42.999 41.001c6.66699 13.333 24.667 30 54 50c16.667 11.333 32 26.333 46 45
c34 45.333 61.667 94 83 146c6.66699 16.667 11.667 31 15 43c32 5.33301 75.333 13.666 130 24.999c26 5.33301 48.333 10.666 67 15.999c34 10 52.667 24 56 42l2 11c0 2 -1 3 -3 3c-0.666992 0 -1.66699 -0.333008 -3 -1c-3.33301 -0.666992 -6.33301 -1 -9 -1
c-7.33301 -0.666992 -21.666 -2.33398 -42.999 -5.00098l-58 -8c-15.333 -2 -39.333 -6.33301 -72 -13c-2 -0.666992 -5.66699 -3 -11 -7c-10 -7.33301 -17.333 -11.666 -22 -12.999c-11.333 -6.66699 -22.666 -10 -33.999 -10c-2 0 -4 0.333008 -6 1h-7
c4.66699 14.667 7 24.667 7 30s-3 10.666 -9 15.999c-2 1.33301 -3.66699 2.66602 -5 3.99902c-6.66699 4 -15 6 -25 6c-32.667 0 -72.334 -18 -119.001 -54c-18.667 -14.667 -31 -26 -37 -34c-12.667 -17.333 -21.667 -26 -27 -26c-4 0 -8 9.33301 -12 28
c-1.33301 3.33301 -3.33301 5 -6 5s-14.334 -11.333 -35.001 -34l-35 -39l-83 -81l-2 -2c-4 -4 -6 -7 -6 -9c0 -1.33301 0.666992 -3 2 -5c1.33301 -4 5 -6 11 -6c10 0 24.667 6.33301 44 19l-7 -34c-18.667 -44.667 -28 -78.334 -28 -101.001c0 -24 6.66699 -46 20 -66
c4 -12 19 -18 45 -18c10.667 0 22.334 1.66699 35.001 5c-32.667 -17.333 -50 -37.666 -52 -60.999c0.666992 -11.333 6 -20.166 16 -26.499s20.667 -9.5 32 -9.5c103.333 0 173.666 -3 210.999 -9c27.333 -4.66699 56.666 -15 87.999 -31
c4.66699 -2.66699 16.167 -7.83398 34.5 -15.501l49.5 -21.5c16 -10.667 35.667 -22.667 59 -36zM190.006 276.011c14 30.667 29.333 51 46 61l23 28c8.66699 9.33301 17.667 15.333 27 18s16 6.66699 20 12c3.33301 3.33301 7.33301 5 12 5c12 0 24 -6.66699 36 -20
c4 -5.33301 6 -12.333 6 -21c-5.33301 -31.333 -9 -51.333 -11 -60c-7.33301 -30.667 -14.333 -49.667 -21 -57c-41.333 -58 -67 -93 -77 -105c-38 -43.333 -72.667 -65.333 -104 -66c-20 0 -30 7.33301 -30 22c0 4.66699 5 19 15 43l20 48l21 54c1.33301 4 7 16.667 17 38z
" />
    <glyph glyph-name="h" unicode="h" horiz-adv-x="458" 
d="M473 833c6.66699 15.333 13.665 30.3301 20.998 44.9971l73 143c8 16 13.333 27.667 16 35c10.667 -17.333 17.334 -37.666 20.001 -60.999c7.33301 22 11 54.667 11 98c0 16 -8 24 -24 24h-7c-21.333 0 -38.333 -13 -51 -39l-39 -79
c-0.666992 -0.666992 -11.334 -21.667 -32.001 -63c-6 -10 -16 -28.333 -30 -55c-31.333 -59.333 -77.666 -141.333 -138.999 -246c-67.333 -113.333 -114.333 -194.666 -141 -243.999c-78.667 -144 -128 -270 -148 -378c0 -0.666992 -0.333008 -1.66699 -1 -3v-2
c0 -1.33301 0.5 -3.5 1.5 -6.5s1.5 -5.16699 1.5 -6.5c8 4.66699 21.333 8.66699 40 12c11.333 2 19 4.33301 23 7c28.667 17.333 64.667 48.666 108 93.999c32.667 34 60.667 60 84 78c2.66699 2 12.334 13.333 29.001 34c14.667 18.667 37.667 45.667 69 81
c16 18 30 30.333 42 37c-10.667 -24 -28.667 -56 -54 -96c-11.333 -18 -18 -30.333 -20 -37c-11.333 -22 -20.666 -43.667 -27.999 -65c-10.667 -32 -16 -60 -16 -84c0 -13.333 2.66699 -28.666 8 -45.999c10 -23.333 33.333 -35 70 -35c38 0 62.333 11.667 73 35
c9.33301 4.66699 22.166 13.5 38.499 26.5s24.5 23.5 24.5 31.5c0 2.66699 -2.66699 4 -8 4c-39.333 -12.667 -68.333 -19 -87 -19c-13.333 0 -21.5 2.66699 -24.5 8s-5.5 15 -7.5 29l-1 8c0 38 30.667 111.667 92 221c21.333 38 38 79.333 50 124
c-12 -8.66699 -23.667 -13 -35 -13c-5.33301 0 -11.333 1 -18 3c-2 0 -4.83301 0.5 -8.5 1.5s-6.16699 1.5 -7.5 1.5c-8 0 -38.667 -25 -92 -75c-17.333 -16 -35.333 -34.667 -54 -56c-18 -28 -56.333 -68.667 -115 -122c-38 -34 -69.333 -63 -94 -87
c14.667 46.667 35.667 96.334 63 149.001c16.667 32 49 89.667 97 173l194 337z" />
    <glyph glyph-name="i" unicode="i" horiz-adv-x="249" 
d="M96 174c-4.66699 -8 -14.666 -26.3359 -29.999 -55.0029l-33 -63c-6 -11.333 -13.667 -25 -23 -41c-5.33301 -9.33301 -8 -14.666 -8 -15.999c0 -4.66699 3.33301 -7 10 -7c8 0 19.667 5 35 15c13.333 8.66699 23.333 17 30 25c24 28.667 64.333 90.667 121 186l58 91
c23.333 38.667 38.333 70.667 45 96c2 8.66699 6.33301 25.334 13 50.001c2 7.33301 3 13.333 3 18c0 12.667 -8 20.334 -24 23.001h-4l-5 1c-12.667 0 -23 -5 -31 -15l-52 -51c-6.66699 -6.66699 -10.334 -12 -11.001 -16c0 -16 5 -25.333 15 -28l-28 -61
c-21.333 -46.667 -40.333 -85 -57 -115c-8.66699 -16 -16.667 -28.333 -24 -37zM427.001 750.997c-3.33301 2.66699 -7.66797 3.99902 -13.001 3.99902c-19.333 0 -36.5 -8.33301 -51.5 -25s-22.5 -35 -22.5 -55c0 -19.333 4.33301 -36.666 13 -51.999
c2.66699 -4.66699 5.33398 -7 8.00098 -7c0.666992 0.666992 5.66699 4.33398 15 11.001c36 27.333 56.333 53.666 61 78.999c1.33301 7.33301 2 13.666 2 18.999c0 12.667 -4 21.334 -12 26.001z" />
    <glyph glyph-name="j" unicode="j" horiz-adv-x="219" 
d="M285 647l2.99902 2.99609c14 17.333 28 33 42 47l16 16c19.333 19.333 44 34 74 44c2.66699 0.666992 7.33398 2.33398 14.001 5.00098c15.333 8.66699 33 14 53 16c9.33301 1.33301 20 9.33301 32 24c4 4.66699 11 13.334 21 26.001
c-1.33301 0.666992 -2.33301 1.33398 -3 2.00098c-8 5.33301 -15.667 8 -23 8h-6c-3.33301 -0.666992 -6 -1 -8 -1c-17.333 -2.66699 -41.333 -7.66699 -72 -15c-11.333 -5.33301 -31.333 -18.666 -60 -39.999c-1.33301 -1.33301 -5.33301 -4.33301 -12 -9
c-26 -18 -59.667 -50 -101 -96c-12 -13.333 -18 -23 -18 -29c0.666992 -15.333 6 -23 16 -23c4.66699 0 9.16699 2 13.5 6s10.5 9.33301 18.5 16zM140.999 323.996c-16 -53.333 -36.6689 -111.001 -62.002 -173.001c-16.667 -40.667 -45.334 -103.667 -86.001 -189
c-12 -25.333 -33.333 -60.333 -64 -105c-40.667 -59.333 -82 -106.333 -124 -141c-16 -9.33301 -30.667 -14 -44 -14c-7.33301 0 -17 2 -29 6c-14 2 -22.333 6.33301 -25 13c-4.66699 10.667 -9 17.667 -13 21c-6.66699 6.66699 -13 10 -19 10
c-5.33301 0 -12.333 -14.667 -21 -44c-2 -8 -3 -15.333 -3 -22c0 -11.333 5 -19.333 15 -24c2.66699 -1.33301 4.33398 -2.33301 5.00098 -3c17.333 -9.33301 29 -14 35 -14c0.666992 0 2 0.333008 4 1h7c9.33301 0 16 -1 20 -3c0.666992 -0.666992 1.33398 -1 2.00098 -1h1
c1.33301 0.666992 2.33301 1 3 1l9 4c30.667 14 49.334 22.667 56.001 26c16.667 9.33301 32.334 22.666 47.001 39.999c6 2.66699 14 7.66699 24 15c45.333 42.667 95 108.334 149 197.001l34 55c59.333 100.667 122.333 256.334 189 467.001
c-28 9.33301 -40.333 14 -37 14c-3.33301 0 -7 -2 -11 -6l-10 -10c-24.667 -22 -37.334 -43.333 -38.001 -64c0 -12 -2.66699 -25 -8 -39z" />
    <glyph glyph-name="k" unicode="k" horiz-adv-x="564" 
d="M24 125c-12.667 -26.667 -19.002 -49.6631 -19.002 -68.9961c0 -4 1 -6 3 -6c20 0 40 10.333 60 31l46 54c12.667 14 34.667 31.667 66 53c16 11.333 39 26.333 69 45c8 -25.333 18.667 -63 32 -113c4.66699 -22 13.5 -47 26.5 -75s26 -47 39 -57s34.5 -15.667 64.5 -17
h20c2.66699 0 6 -0.333008 10 -1h7c36.667 0 67 8.66699 91 26c18.667 13.333 38.667 37.333 60 72c-17.333 0 -36 -8.66699 -56 -26c-9.33301 -8 -15.666 -12 -18.999 -12c-46.667 0 -76.334 2.33301 -89.001 7c-20.667 8 -40 29.333 -58 64
c-3.33301 7.33301 -10.333 38.333 -21 93l-1 5c-0.666992 10 -2 25 -4 45c0 5.33301 2.33301 12.833 7 22.5s9 16.167 13 19.5c41.333 26 73 48 95 66c7.33301 6 32.333 18.333 75 37l42 19c8.66699 4 20 23.667 34 59c-30 -2 -60 -9.66699 -90 -23l-24 -11
c-58.667 -26.667 -108.667 -54.334 -150 -83.001l-60 -42c-37.333 -26.667 -68 -46.334 -92 -59.001l176 254c20 28.667 48 76.334 84 143.001l21 40l190 381h-1c-12 8 -20 12 -24 12c-3.33301 0 -9.66602 -4.66699 -18.999 -14
c-20.667 -20.667 -38.667 -34.334 -54 -41.001c-76 -162 -142 -294 -198 -396c-49.333 -90.667 -117.666 -195.334 -204.999 -314.001l-70 -95c-20.667 -26.667 -40 -50.334 -58 -71.001z" />
    <glyph glyph-name="l" unicode="l" horiz-adv-x="239" 
d="M203 312l65.999 112.994c5.33301 8.66699 15.333 26.334 30 53.001l97 182c2 4 7.66699 14 17 30l27 47c0.666992 1.33301 5.33398 7.33301 14.001 18c18.667 23.333 31.667 48 39 74c2.66699 10 7.66699 26.333 15 49l28 92c3.33301 10.667 5 19.334 5 26.001
c0 9.33301 -7 14 -21 14h-4c-2.66699 -0.666992 -4.66699 -1 -6 -1c-24.667 -2 -51.667 -19.333 -81 -52c0 -39.333 -4.66699 -71 -14 -95c-1.33301 -3.33301 -6.66602 -17.666 -15.999 -42.999l-1 -2c-4 -11.333 -6 -22.666 -6 -33.999v-19
c0 -3.33301 -0.666992 -5.66602 -2 -6.99902c-8 -12.667 -31 -52.667 -69 -120l-45 -79l-40 -69l-23 -36l-87 -135c-6 -9.33301 -21 -38.666 -45 -87.999l-31 -65l-55 -120c-2 -4.66699 -3 -9 -3 -13c0 -5.33301 2 -11.333 6 -18l3 -5
c0 -1.33301 0.333008 -2.66602 1 -3.99902c1.33301 -12 6 -17.667 14 -17c33.333 1.33301 58 9 74 23c12 13.333 30.333 32.333 55 57c-6 10.667 -9 23 -9 37c-18.667 -16.667 -34.334 -26.334 -47.001 -29.001c0.666992 18 22.667 67.667 66 149
c18.667 35.333 34.667 64.333 48 87z" />
    <glyph glyph-name="m" unicode="m" horiz-adv-x="762" 
d="M448 315c16 28 23.998 48.002 23.998 60.002c0 8.66699 -3.16699 19.167 -9.5 31.5s-13.166 18.5 -20.499 18.5c-8 0 -24.667 -11.667 -50 -35l-296 -274l106 173c32 52.667 55 95.667 69 129c8 19.333 18.667 47.666 32 84.999c4.66699 13.333 7 21.666 7 24.999
c0 6 -5.66699 12 -17 18c-3.33301 1.33301 -6.33301 2 -9 2c-6.66699 0 -15.667 -4.16699 -27 -12.5s-19 -13.166 -23 -14.499c-9.33301 -7.33301 -24 -16.333 -44 -27c-4.66699 -0.666992 -7 -5.66699 -7 -15c0 -10 2.66699 -24 8 -42c1.33301 -4.66699 2 -12 2 -22
c0 -18.667 -2.33301 -33 -7 -43c-20.667 -44.667 -57.667 -107 -111 -187l-30 -49l-83 -138c-9.33301 -15.333 -15.333 -24.666 -18 -27.999l-1 -2v-1c0 -8.66699 11.667 -13 35 -13c18 0 36 10 54 30c0.666992 0.666992 16.334 18.334 47.001 53.001
c2.66699 3.33301 6 7 10 11c8.66699 10 32.667 32.667 72 68l130 116l74 66c4.66699 4 7.66699 6 9 6s2 -0.666992 2 -2c0 0.666992 -39.667 -84 -119 -254c-0.666992 -0.666992 -1 -1.33398 -1 -2.00098c-6 -9.33301 -9 -16 -9 -20
c0 -4.66699 3.66699 -7.33398 11 -8.00098c2 0 4.66699 -0.333008 8 -1h10c20 0 39.667 8 59 24l36 39c7.33301 8 22.333 22.333 45 43l39 36c10.667 10 39.667 34 87 72l72 57c-20.667 -62.667 -31.667 -120 -33 -172c-0.666992 -30.667 9.33301 -57.834 30 -81.501
s46 -35.5 76 -35.5l5 1h5c5.33301 0.666992 14.666 4.5 27.999 11.5s23.333 11 30 12s14.5 6.16699 23.5 15.5s13.5 17 13.5 23c0 4.66699 -3 7 -9 7c-4.66699 0 -10.667 -1.33301 -18 -4c-17.333 -6 -31 -9 -41 -9c-24.667 0 -40 21 -46 63c-2 14 -3 28.667 -3 44
c0 39.333 10.667 88.333 32 147l4 11c0.666992 2.66699 3 6.66699 7 12c6.66699 9.33301 10 16 10 20c0 2.66699 -1 5 -3 7c-11.333 10 -24.666 15 -39.999 15c-6.66699 0 -12 -1 -16 -3c-78.667 -40 -183 -121.333 -313 -244c29.333 68.667 60 131 92 187z" />
    <glyph glyph-name="n" unicode="n" horiz-adv-x="573" 
d="M173 182c4 6.66699 8.99902 20.665 14.999 41.998s13.333 38 22 50c6 8 10 15.667 12 23c20 50 32 80.667 36 92c12 34.667 20.667 66 26 94c0.666992 2.66699 2.33398 7.66699 5.00098 15s4 13 4 17c0 5.33301 -2.33301 10 -7 14c-2 2 -6.66699 3 -14 3
c-29.333 0 -49 -4.66699 -59 -14c-6 -6 -20.667 -16.333 -44 -31c-30 -19.333 -45 -35.666 -45 -48.999c0 -2.66699 1.66699 -4 5 -4c4.66699 0 18.334 6 41.001 18l21 11c-6.66699 -51.333 -43.334 -151 -110.001 -299l-65 -148c0 -0.666992 -1 -2.66699 -3 -6
c-4 -7.33301 -6 -12.333 -6 -15c0 -4 2.66699 -6 8 -6c4 0 9.33301 1 16 3h3c27.333 0 49.333 12 66 36c12.667 18.667 42.667 48.334 90 89.001l135 121l64 66c36.667 37.333 56.334 56 59.001 56l1 -1v0c2 -5.33301 3 -11 3 -17c0 -14.667 -7.33301 -45.667 -22 -93
l-31 -101c-7.33301 -22 -11 -37.667 -11 -47c0 -27.333 14 -54 42 -80c9.33301 -8.66699 19 -15.667 29 -21c6.66699 -2.66699 15 -4 25 -4c32 0 52 10 60 30c2.66699 6 9 13.167 19 21.5s16.5 15.5 19.5 21.5s4.5 10 4.5 12c0 1.33301 -1 2 -3 2
c-2.66699 0 -9.66699 -2.83301 -21 -8.5s-19 -8.83398 -23 -9.50098c-7.33301 -2 -14 -3 -20 -3c-22 0 -39.333 13.333 -52 40c-3.33301 6.66699 -5 13.667 -5 21c0 4.66699 2.16699 10.834 6.5 18.501s6.83301 13.167 7.5 16.5c4 18 11 43 21 75
c23.333 56 35 98.667 35 128c0 18.667 -3.66699 37.334 -11 56.001c-2 5.33301 -9.33301 8 -22 8c-22.667 0 -43.334 -6.66699 -62.001 -20c-8 -6 -24.333 -21 -49 -45l-34 -33l-24 -24c-38.667 -32.667 -93.667 -84.334 -165 -155.001c-4 -4.66699 -8 -8.66699 -12 -12v1
c0 3.33301 6.33301 18.333 19 45z" />
    <glyph glyph-name="o" unicode="o" horiz-adv-x="392" 
d="M296 158l61.002 64.002l24 25c20 18.667 41.333 55.667 64 111c16.667 40.667 25 73 25 97c0 22.667 -11.667 34 -35 34c-3.33301 0 -23.333 -5.33301 -60 -16c-28 -8 -42.667 -12.333 -44 -13c-18.667 -6.66699 -31.834 -14.334 -39.501 -23.001
s-18.5 -23.334 -32.5 -44.001v11c0 14.667 -1.33301 22 -4 22c-1.33301 -0.666992 -3 -2 -5 -4l-45 -10c-8 -2 -18 -9.33301 -30 -22l-27 -28c-16 -14 -26.333 -27.667 -31 -41c-7.33301 -20.667 -15.333 -38.334 -24 -53.001
c-0.666992 -1.33301 -6.33398 -18.666 -17.001 -51.999c-6.66699 -22 -18.334 -56.667 -35.001 -104c-18.667 -54 -28 -85.667 -28 -95c0 -6 1 -11 3 -15c1.33301 -9.33301 7.33301 -14 18 -14l32 4c10.667 1.33301 20.667 5.5 30 12.5s17.666 11.833 24.999 14.5
c10 3.33301 25.333 16.333 46 39c4.66699 4.66699 14.334 9.16699 29.001 13.5s24.334 8.83301 29.001 13.5c13.333 14.667 37 39 71 73zM173.002 111.002c-12 -10.667 -24.6699 -18.6689 -38.0029 -24.002c-7.33301 -3.33301 -15.666 -6.33301 -24.999 -9
c-6.66699 -1.33301 -11.334 -2 -14.001 -2c-5.33301 0 -8 1.33301 -8 4c0.666992 2.66699 3.33398 8.33398 8.00098 17.001l57 111c8 16 14 28.333 18 37c14.667 31.333 27.334 54.333 38.001 69c18 24.667 39.333 37.667 64 39c10 0.666992 19.667 10 29 28
c6.66699 13.333 16.334 21.333 29.001 24c6 1.33301 19.667 2 41 2c15.333 0 23 -8.66699 23 -26c0 -18.667 -4 -35 -12 -49l-28 -48c-10.667 -16.667 -27 -34.667 -49 -54c-37.333 -32 -56.333 -48.333 -57 -49c-26 -25.333 -51.333 -48.666 -76 -69.999z" />
    <glyph glyph-name="p" unicode="p" horiz-adv-x="474" 
d="M-239 -566c73.333 87.333 157.335 219.67 252.002 397.003l70 130c34.667 24 70 41 106 51c10 1.33301 23 4.66602 39 9.99902c23.333 14 54.666 39.667 93.999 77l89 79c19.333 18 41 40.333 65 67c46 66 69 122 69 168c0 36.667 -8 60 -24 70
c-7.33301 4.66699 -15.333 7 -24 7h-7c-2 -0.666992 -3.66699 -1 -5 -1l-7 -1l-69 -10c-13.333 -2 -34.333 -9 -63 -21c-11.333 -4.66699 -24 -14.334 -38 -29.001c-10 -10.667 -18 -16.334 -24 -17.001v9c0.666992 4 1 6.66699 1 8c0 18 -6.66699 27 -20 27
c-29.333 0 -46.666 -4.33301 -51.999 -13c-16.667 -28 -27 -56.667 -31 -86c-0.666992 -3.33301 -2 -11 -4 -23c-5.33301 -27.333 -14 -50.333 -26 -69c-4.66699 -7.33301 -13.667 -29.333 -27 -66c-14 -41.333 -23.333 -66.666 -28 -75.999l-46 -96h-4
c-1.33301 -0.666992 -2.33301 -1 -3 -1c-6 0 -16.333 3.66699 -31 11c-4 2 -8.66699 3 -14 3c-20 0 -33.667 -12.667 -41 -38c-4.66699 -32.667 -13 -61 -25 -85c-7.33301 -8.66699 -17.666 -26 -30.999 -52c-16 -30 -26.667 -49 -32 -57
c-8.66699 -8.66699 -13 -17.667 -13 -27c0 -2.66699 -6.33301 -20 -19 -52c-15.333 -36.667 -23 -55.334 -23 -56.001c-0.666992 -4.66699 -4.83398 -13 -12.501 -25s-11.5 -20.333 -11.5 -25c0 -27.333 -12.667 -62.333 -38 -105c-12 -20 -18 -34.667 -18 -44v-5
c1.33301 -14 2.66602 -22.333 3.99902 -25c3.33301 -5.33301 10.666 -8.33301 21.999 -9zM-5.99805 -115.996c0 -2.66699 -6 -13.334 -18 -32.001l-49 -75c-9.33301 -16 -28 -46.333 -56 -91c-10.667 -16.667 -18.667 -25 -24 -25c-2 0 -3 2.33301 -3 7
c0 8 2.33301 17.667 7 29l17 39c12.667 22 27 51 43 87c2 8 5 15.667 9 23c15.333 26 32.333 53 51 81c4 4.66699 9.33301 7.33398 16 8.00098c9.33301 -0.666992 14 -5.66699 14 -15c0 4 -2.33301 -8 -7 -36zM426.002 245.004c-24 -26.667 -61.333 -63.9971 -112 -111.997
c-8 -7.33301 -16 -12.333 -24 -15c-0.666992 0 -2.66699 -0.666992 -6 -2c-8.66699 -2.66699 -14.167 -4.83398 -16.5 -6.50098s-5.83301 -5.66699 -10.5 -12s-14 -12.833 -28 -19.5s-23.667 -12.334 -29 -17.001c-21.333 -10 -35 -16 -41 -18
c-13.333 -4.66699 -27.666 -7.33398 -42.999 -8.00098l141 299c22 10.667 38.667 24 50 40c4 4 10.667 7.5 20 10.5s15.333 5.16699 18 6.5c7.33301 6.66699 25.666 13.667 54.999 21l16 4c5.33301 1.33301 10.333 2 15 2c19.333 0 29 -15.333 29 -46v-10
c-0.666992 -5.33301 -1 -9.33301 -1 -12c-6.66699 -52.667 -17.667 -87.667 -33 -105z" />
    <glyph glyph-name="q" unicode="q" horiz-adv-x="546" 
d="M477 287c-2 -5.33301 -17.335 -19.665 -46.002 -42.998c-33.333 -27.333 -52 -43 -56 -47c-16.667 -16.667 -28.667 -34.334 -36 -53.001c-30 -14.667 -68.667 -31 -116 -49c-58 -22 -97 -33 -117 -33c-1.33301 0 -2.66602 0.333008 -3.99902 1h-1l-3 3
c-3.33301 2 -5 4.66699 -5 8c0 4.66699 4 16 12 34c16.667 37.333 37.667 69 63 95c54 54.667 104.5 102.167 151.5 142.5s84.167 60.5 111.5 60.5c8 0 16.333 -1.66699 25 -5c1.33301 0 3 -0.666992 5 -2c12.667 -4.66699 20.334 -9.33398 23.001 -14.001s4 -14 4 -28
c0 -26.667 -3.66699 -50 -11 -70zM175.998 265.001l-30.0049 -30.001c-42 -42 -71.333 -73.667 -88 -95c-34 -43.333 -51 -81.333 -51 -114c0 -1.33301 0.333008 -3.33301 1 -6v-6c3.33301 -17.333 16 -26 38 -26c26.667 0 66 12 118 36l37 12c40 13.333 79.667 25 119 35
c12 0.666992 22.333 4.33398 31 11.001l44 44c-13.333 -43.333 -36 -92 -68 -146c-17.333 -28.667 -47 -73.667 -89 -135c-51.333 -74.667 -84.666 -125.334 -99.999 -152.001c-34.667 -59.333 -57 -115 -67 -167l3 -3c9.33301 -9.33301 18.666 -14 27.999 -14
c54 26.667 81 56.667 81 90c-6 2.66699 -9 5.66699 -9 9c0 2 0.666992 4.33301 2 7l1 5c22.667 56.667 43.334 98 62.001 124c0.666992 1.33301 13.667 19.333 39 54l36 49c20.667 28.667 44.334 64.334 71.001 107.001c22.667 50 46.667 97.667 72 143l47 85
c18 32.667 31.667 61.667 41 87c4.66699 25.333 13.334 62.666 26.001 111.999c2.66699 8.66699 4 18.334 4 29.001c0 53.333 -22.333 80 -67 80c-10.667 0 -27 -2.66699 -49 -8c-11.333 -2.66699 -29.666 -9.33398 -54.999 -20.001l-1 -1
c-59.333 -42 -106.666 -77 -141.999 -105c-24 -18.667 -38.667 -32 -44 -40c-1.33301 -1.33301 -4 -5 -8 -11c-10.667 -15.333 -21.667 -28.666 -33 -39.999z" />
    <glyph glyph-name="r" unicode="r" horiz-adv-x="320" 
d="M5 2l3 0.00195312c8.66699 -2 15 -3 19 -3c13.333 0 34.666 20.667 63.999 62l5 7c46 78.667 105.667 161 179 247c8 9.33301 23 23.666 45 42.999l54 47c9.33301 -11.333 17.333 -17 24 -17c20 0 44 28.333 72 85c7.33301 14.667 11 27 11 37c0 12 -6.66699 18 -20 18
h-3c-1.33301 -0.666992 -2.33301 -1 -3 -1c-17.333 -7.33301 -41.666 -23 -72.999 -47l-32 -24c-1.33301 -1.33301 -2.66602 -3.33301 -3.99902 -6c-3.33301 -16 -36 -52 -98 -108c-6 -5.33301 -9.33301 -8 -10 -8c0 0.666992 0.333008 1 1 1v8c0 7.33301 5 24 15 50
c9.33301 23.333 16.666 40 21.999 50h-10l-8 1c-20.667 0 -34 -4 -40 -12l-29 -38c-13.333 -17.333 -26 -45 -38 -83c-13.333 -42.667 -24.666 -72.334 -33.999 -89.001c-4 -8 -11.333 -21.333 -22 -40l-51 -81.5c-16.667 -27 -29.334 -58.5 -38.001 -94.5z" />
    <glyph glyph-name="s" unicode="s" horiz-adv-x="320" 
d="M266 81c0 4 -0.833984 9.83105 -2.50098 17.498s-2.5 13.5 -2.5 17.5c0 16.667 -4.33301 31.334 -13 44.001c-5.33301 8 -10.666 17.667 -15.999 29c-1.33301 4.66699 -4 9.66699 -8 15c-16.667 23.333 -24.667 46 -24 68c0.666992 24 5 42.333 13 55
c2.66699 4.66699 5 10 7 16c6 20.667 25.333 39 58 55c8.66699 4 23 9.33301 43 16c17.333 0 26 -8.33301 26 -25c0 -4.66699 -1 -8.66699 -3 -12c-2.66699 -6 -23.334 -35.667 -62.001 -89c3.33301 -6.66699 6.66602 -10 9.99902 -10c1.33301 0 4 1 8 3l6 3
c16.667 14 36.667 35.833 60 65.5s40 54.167 50 73.5c4.66699 9.33301 7 17.333 7 24c0 19.333 -15 29 -45 29c-24 0 -50.333 -7 -79 -21c-44 -21.333 -82.333 -51 -115 -89c-12 -13.333 -20.333 -25.666 -25 -36.999c-1.33301 -2 -3.66602 -7 -6.99902 -15
c-14 -30 -21 -55.667 -21 -77c0 -34.667 11 -68 33 -100c11.333 -16.667 19.333 -32.334 24 -47.001c1.33301 -6.66699 2.33301 -10.667 3 -12c2.66699 -5.33301 4 -9.66602 4 -12.999c0 -8 -8.33301 -12 -25 -12c-14 0 -35.833 3.5 -65.5 10.5s-51.5 13.5 -65.5 19.5
c-2.66699 11.333 -7 17 -13 17h-3l-2 -1c-14.667 -7.33301 -24.667 -17.666 -30 -30.999c-29.333 -6.66699 -44 -18.667 -44 -36c0 -10 7.66699 -16 23 -18c44 -16 82.667 -24.333 116 -25c29.333 -0.666992 63.333 4.66602 102 15.999
c10.667 3.33301 26.334 14.5 47.001 33.5s31 33.167 31 42.5z" />
    <glyph glyph-name="t" unicode="t" horiz-adv-x="324" 
d="M175 360c-39.333 -62 -80.9961 -131.664 -124.996 -208.997c-18 -32 -27 -65.333 -27 -100c0 -14 3.33301 -27.333 10 -40c4 -8 9 -12 15 -12c6.66699 0 16.667 4 30 12c17.333 0 32.333 7.33301 45 22s19 30.667 19 48v6c-0.666992 3.33301 -1 5.33301 -1 6
c-4.66699 -10 -10.334 -15 -17.001 -15s-10 3.66699 -10 11c24.667 86 76 181.333 154 286l120 15c70.667 9.33301 110 16 118 20l36 12c12 4 21 12.333 27 25c14 12 21 22.333 21 31c0 2 -1.33301 3 -4 3s-8.16699 -1.5 -16.5 -4.5s-13.833 -4.83301 -16.5 -5.5
c-16.667 -0.666992 -46.667 -2.66699 -90 -6c-30.667 -2.66699 -72.334 -6 -125.001 -10c-3.33301 0 -9.33301 -0.333008 -18 -1c-2.66699 -0.666992 -4.66699 -1 -6 -1c-0.666992 0 -1.33398 0.666992 -2.00098 2c0 -2 8.66699 9.66699 26 35l120 184l55 86
c10.667 16.667 16 30 16 40c0 7.33301 -3.33301 11 -10 11c-4.66699 0 -11.5 -2.83301 -20.5 -8.5s-15.5 -8.83398 -19.5 -9.50098c-7.33301 -1.33301 -16 -3.33301 -26 -6c-4 -2.66699 -20.333 -29.334 -49 -80.001c-64.667 -114 -118.667 -200.667 -162 -260
c-10 0 -25 -4.33301 -45 -13c-14 -6 -23.333 -9 -28 -9h-1c-16 0 -31.667 -15.667 -47 -47c-4 -8 -6 -17.667 -6 -29c0 -7.33301 1 -19.333 3 -36c5.33301 9.33301 13.666 20.333 24.999 33c14 14 25 21 33 21c1.33301 0 2 -0.666992 2 -2
c0 -0.666992 -1 -2.33398 -3 -5.00098z" />
    <glyph glyph-name="u" unicode="u" horiz-adv-x="524" 
d="M317 450c0 0.666992 0.333984 1.66309 1.00098 2.99609v4c0 -7.33301 -1.66699 5.66699 -5 39c-3.33301 16.667 -15 25 -35 25h-4c-6.66699 -0.666992 -11.334 -1.66699 -14.001 -3c-5.33301 -1.33301 -9 -4 -11 -8c-21.333 -32 -56 -100 -104 -204
c-27.333 -60 -60 -124.333 -98 -193c-32 -58 -48 -88.667 -48 -92c0 -4.66699 2.66699 -9.66699 8 -15c10.667 -11.333 22.334 -17 35.001 -17c10 0 19.667 3.66699 29 11l42 27c16 10.667 45.667 29.334 89 56.001c7.33301 3.33301 15.666 13.333 24.999 30
c5.33301 9.33301 10 15.333 14 18c0.666992 0.666992 7.66699 3.66699 21 9c36 20 60.333 40.333 73 61c2.66699 4.66699 8.33398 8.33398 17.001 11.001c6.66699 1.33301 11 3.33301 13 6c11.333 14.667 32 32.334 62 53.001c-8 -28 -15.667 -49 -23 -63l-18 -46l-3 -7
c-10 -22 -26.667 -62 -50 -120c-3.33301 -12.667 -5 -22.667 -5 -30c1.33301 -3.33301 5 -5 11 -5c36 0 70.667 19.667 104 59c-10.667 6 -16 13 -16 21s5.33301 25.667 16 53l13 34c6 12 12.333 22.333 19 31c23.333 28.667 49.666 75 78.999 139
c27.333 60 41 89.333 41 88c0 4 -3.33301 6.33301 -10 7c-16 4 -29.667 6 -41 6c-6 0 -11 -1.66699 -15 -5l-256 -213c-22.667 -18 -45.334 -38 -68.001 -60c-11.333 -13.333 -29.666 -31 -54.999 -53c-8.66699 -5.33301 -25 -11.333 -49 -18c7.33301 32 29 76 65 132l9 14
c4 6 13.667 21.333 29 46l29 46c7.33301 6 14.666 13.667 21.999 23c0.666992 0.666992 3.33398 4.33398 8.00098 11.001l3 4c27.333 38 44.333 66.333 51 85z" />
    <glyph glyph-name="v" unicode="v" horiz-adv-x="377" 
d="M297 246l-22.999 -22.9971c-66 -66 -125.333 -112 -178 -138c6 44 31.667 107 77 189c49.333 89.333 74 150.666 74 183.999c0 10.667 -5.33301 17.667 -16 21c-0.666992 0 -2 0.333008 -4 1h-3c-4 0 -8 -1.83301 -12 -5.5s-6.33301 -5.5 -7 -5.5l-1 1h-1
c-12 0 -25 -8.66699 -39 -26s-22 -32.666 -24 -45.999c-3.33301 -24.667 -24 -78.667 -62 -162c-8.66699 -22.667 -22.667 -53.334 -42 -92.001c-21.333 -32.667 -32 -66.334 -32 -101.001c0 -28.667 7.33301 -45.334 22 -50.001c6.66699 -2 16 -3 28 -3
c27.333 0 45.333 4.33301 54 13c2 0.666992 6.33301 4.66699 13 12c19.333 20.667 40.666 39 63.999 55c55.333 49.333 104.333 98 147 146c6 7.33301 19 22.333 39 45l42 47c1.33301 2 12.666 17.333 33.999 46c32 43.333 48 75.333 48 96c0 10 -2.83301 19.667 -8.5 29
s-13.167 14 -22.5 14c-17.333 0 -36.666 -7.33301 -57.999 -22c-8 -5.33301 -14.333 -9 -19 -11c-15.333 -6 -28 -31.667 -38 -77c2 -0.666992 4 -1 6 -1c15.333 -1.33301 23 -5.33301 23 -12c0 -1.33301 -0.333008 -2.33301 -1 -3v-4c0 -24.667 -26.667 -63.667 -80 -117z
" />
    <glyph glyph-name="w" unicode="w" horiz-adv-x="645" 
d="M-2 8c0 -13.333 6.00391 -20.3301 18.0039 -20.9971c2 0 4 -0.333008 6 -1h5c7.33301 0 14.666 3.66699 21.999 11c4.66699 7.33301 11 11 19 11c3.33301 0 10 4.66699 20 14c8 7.33301 15.167 13.5 21.5 18.5s15.166 9.83301 26.499 14.5
c21.333 8.66699 45.333 27 72 55c4.66699 4 11 8.33301 19 13c17.333 8 47 30.667 89 68c0.666992 0.666992 2.33398 2.16699 5.00098 4.5s4.33398 3.5 5.00098 3.5c1.33301 -0.666992 2 -2 2 -4s-2 -14.667 -6 -38c-1.33301 -5.33301 -2.66602 -13 -3.99902 -23l-2 -15
c-6 -44.667 -9 -67.334 -9 -68.001c0 -11.333 4.33301 -21.833 13 -31.5s18.667 -14.5 30 -14.5c12.667 0 39.667 10.333 81 31c26.667 13.333 54 35.666 82 66.999c12.667 14.667 31.334 38.667 56.001 72c0 0.666992 7.33301 10 22 28
c86 108.667 128.333 200.334 127 275.001c0 7.33301 -3 13.5 -9 18.5s-12.667 7.5 -20 7.5c-39.333 0 -66 -5 -80 -15c-10 -6 -22 -17.167 -36 -33.5s-24 -30.5 -30 -42.5c-2.66699 -5.33301 -4 -12.333 -4 -21c0 -16 3.33301 -24 10 -24
c3.33301 0 6.66602 2.33301 9.99902 7c10 11.333 25.667 26.666 47 45.999c4 2.66699 10 4.66699 18 6h4l2 1c8 0 12 -3.33301 12 -10c0 -5.33301 -4.33301 -19.333 -13 -42l-5 -13l-16 -35c-51.333 -111.333 -103.333 -185.666 -156 -222.999
c-10.667 -7.33301 -19.667 -11 -27 -11s-14.333 7.66699 -21 23c-0.666992 2.66699 -1.33398 4.66699 -2.00098 6c-1.33301 4.66699 -2 9 -2 13c0 9.33301 4.66699 25.333 14 48l57 133c3.33301 7.33301 5 13.666 5 18.999c0 16.667 -10.333 25 -31 25h-3
c-0.666992 0.666992 -1.66699 1 -3 1c-6.66699 0 -21.334 -7.66699 -44.001 -23l-12 -8c-17.333 -14 -30.666 -32.333 -39.999 -55l-92 -74c-14 -12 -39 -32.333 -75 -61c-22.667 -12.667 -46.667 -28.667 -72 -48c-6.66699 -4 -11 -6 -13 -6
c-0.666992 0 -1.33398 0.333008 -2.00098 1c0 3.33301 14.667 25.333 44 66c2 3.33301 5.66699 8.33301 11 15c30 44 53 85.667 69 125c3.33301 9.33301 10.666 27.666 21.999 54.999l8 19c20.667 49.333 31 80 31 92s-8.33301 18 -25 18
c-6.66699 0 -13.334 -2.33301 -20.001 -7l-30 -12c-10.667 -6 -16 -14.333 -16 -25c0 -33.333 -10.333 -71 -31 -113c-12 -24 -32.5 -57.833 -61.5 -101.5s-49.167 -77.167 -60.5 -100.5c-20.667 -41.333 -31.334 -78.333 -32.001 -111z" />
    <glyph glyph-name="x" unicode="x" horiz-adv-x="488" 
d="M346 68c-49.333 38 -75.335 88.001 -78.002 150.001c0 4 5.33301 10.667 16 20l78 69c30.667 27.333 58 48.333 82 63c22 13.333 35.333 29.666 40 48.999c8 22 12 35.667 12 41c0 3.33301 -1.66699 5 -5 5h-2c-2 -0.666992 -3.66699 -1 -5 -1
c-18.667 -3.33301 -35.334 -9.33301 -50.001 -18c-9.33301 -5.33301 -26.333 -17.333 -51 -36l-45 -58c-6.66699 -6.66699 -18.334 -16.667 -35.001 -30c-6 -6.66699 -14.667 -14 -26 -22c-1.33301 0 -2 1.33301 -2 4c0.666992 2.66699 2.33398 14.334 5.00098 35.001l14 80
c8 42.667 12 67.667 12 75c0 10 -4.33301 16 -13 18c-1.33301 0 -3.66602 0.333008 -6.99902 1h-7c-28 0 -42.667 -8 -44 -24c-0.666992 -5.33301 -5 -14.333 -13 -27c-10 -16 -15.333 -25.333 -16 -28c-5.33301 -8.66699 -8.33301 -25.667 -9 -51
c-0.666992 -18.667 -1 -37.334 -1 -56.001c-1.33301 -20.667 -4.33301 -50.667 -9 -90c-1.33301 -10 -7 -19.333 -17 -28c-4 -2.66699 -6.66699 -5 -8 -7c-39.333 -38.667 -84 -79 -134 -121c-16.667 -14 -25 -26 -25 -36c0 -8 6 -12 18 -12c31.333 0 67.333 22 108 66
c6 8 13 16.333 21 25c2 1.33301 7.16699 6.5 15.5 15.5s12.833 13.5 13.5 13.5c1.33301 -0.666992 2 -3.66699 2 -9c0 -11.333 2.66699 -22.666 8 -33.999c14 -29.333 25.333 -49.333 34 -60c10.667 -12.667 29 -26 55 -40c30.667 -16.667 55.334 -25 74.001 -25
c7.33301 0 16 0.666992 26 2c38 9.33301 61.667 23.333 71 42c-1.33301 2.66699 -4.66602 7 -9.99902 13c-5.33301 3.33301 -13 5.66602 -23 6.99902c-38.667 4.66699 -62 11 -70 19z" />
    <glyph glyph-name="y" unicode="y" horiz-adv-x="534" 
d="M436 302c-5.33301 -13.333 -27 -35.002 -65 -65.002c-18 -14 -32.667 -26 -44 -36c-19.333 -11.333 -51.333 -36.333 -96 -75l-25 -22c-8 -5.33301 -18.333 -9.66602 -31 -12.999c-20 -5.33301 -34.667 -8 -44 -8c-5.33301 0 -8 1.33301 -8 4c0 2 0.666992 4.33301 2 7
c8.66699 31.333 36.334 79 83.001 143c54.667 74.667 87.667 123.667 99 147l21 40c16.667 28.667 25 47.667 25 57c0 6 -3.33301 9.33301 -10 10c-30 0 -55.333 -7.66699 -76 -23c-8.66699 -6 -26.667 -41.667 -54 -107c-8.66699 -20 -24 -47.333 -46 -82
c-17.333 -30.667 -35 -58.334 -53 -83.001c-16 -15.333 -29 -34.666 -39 -57.999c-13.333 -33.333 -29.666 -69 -48.999 -107c-8.66699 -17.333 -13 -27.333 -13 -30s1.33301 -4.66699 4 -6c16 -9.33301 29.333 -14 40 -14c7.33301 0 18 3.33301 32 10l31 15
c42 16.667 68.667 31.334 80 44.001c31.333 34 63 59.667 95 77c5.33301 4.66699 15.333 10 30 16c9.33301 4 22.333 15.167 39 33.5s29.667 30.5 39 36.5c5.33301 4.66699 9 7 11 7c1.33301 -0.666992 2 -2 2 -4c0 -5.33301 -1.33301 -12.666 -4 -21.999
c-2.66699 -12 -4.33398 -19.667 -5.00098 -23c-4 -31.333 -9 -56.333 -15 -75c-10 -31.333 -22.333 -67.333 -37 -108l-11 -30c-2.66699 -8.66699 -8.66699 -21.334 -18 -38.001c-12.667 -22 -19.667 -34.667 -21 -38c-17.333 -34 -37.666 -81 -60.999 -141
c-28 -72.667 -47 -120.334 -57 -143.001c-8.66699 -19.333 -28.667 -49.333 -60 -90c-8 -10.667 -20.5 -26.5 -37.5 -47.5s-32.833 -31.5 -47.5 -31.5h-6c-2 0.666992 -4.33301 1 -7 1c-34 1.33301 -66.667 15 -98 41s-51.333 55.667 -60 89
c-3.33301 12.667 -5 30.334 -5 53.001c0 32 4 60 12 84c10.667 21.333 16 30 16 26c0 1.33301 -1 2 -3 2c-1.33301 0 -4 -0.666992 -8 -2c-12.667 -4.66699 -22.334 -11 -29.001 -19c-2.66699 -3.33301 -8.33398 -13.666 -17.001 -30.999
c-0.666992 -0.666992 -3.33398 -5.66699 -8.00098 -15c-24.667 -34.667 -36.667 -68 -36 -100c0.666992 -28 8.33398 -55.667 23.001 -83c8 -14.667 12 -25.334 12 -32.001c0 -12 18.5 -29.167 55.5 -51.5s63.5 -33.833 79.5 -34.5c5.33301 0 15.333 -0.666992 30 -2
c12.667 -1.33301 22.667 -2 30 -2c20.667 0.666992 46.667 16 78 46c66 64 109.667 114 131 150c4.66699 8 13.667 24.667 27 50c28.667 52.667 54 106 76 160l22 59c16 42.667 27.333 72 34 88c16.667 40 27.334 74.667 32.001 104c2.66699 16 9.66699 30 21 42
c8 8 18 31.333 30 70c7.33301 22.667 12.333 37.667 15 45c6.66699 17.333 14 31 22 41c12 16 23.333 43 34 81c9.33301 35.333 14 64.333 14 87c0 16 -3 24 -9 24h-2c-0.666992 -0.666992 -1.33398 -1 -2.00098 -1c-58 -28 -94.667 -60.333 -110 -97z" />
    <glyph glyph-name="z" unicode="z" horiz-adv-x="402" 
d="M-325 -243l22.002 21.998c50 50 85.667 82 107 96l29 26c12 8.66699 23.333 14.667 34 18c17.333 5.33301 31.666 22.333 42.999 51c21.333 19.333 32 32.666 32 39.999c0 2 -0.666992 3 -2 3c-4.66699 0 -20.667 -10.667 -48 -32l-9 -7
c-37.333 -26 -100.666 -73.333 -189.999 -142c-38 -31.333 -77.333 -72 -118 -122c-8.66699 -14.667 -13 -31.667 -13 -51c0 -23.333 6 -40.666 18 -51.999c31.333 -29.333 86 -44 164 -44c21.333 0 54.333 1 99 3c149.333 6.66699 279.333 44.334 390 113.001
c29.333 18 59 40 89 66c42 36 62.333 64.667 61 86c-6 110 -29 184.333 -69 223c-62 60 -116 97 -162 111c-1.33301 0 -2 0.666992 -2 2c0 7.33301 25.667 24.333 77 51c60 31.333 111.667 75 155 131c12.667 16.667 19 32.667 19 48c0 35.333 -36 53 -108 53
c-20.667 0 -50.334 -4.33301 -89.001 -13c-12 -2.66699 -27.333 -5.66699 -46 -9c-34.667 -6 -66.667 -28.333 -96 -67c-6 -6 -9 -18 -9 -36c0 -12.667 2 -19 6 -19h1c0.666992 0.666992 1.33398 1 2.00098 1l5 4l55 46c5.33301 4 26 8.33301 62 13
c41.333 5.33301 67.666 7.66602 78.999 6.99902c27.333 -0.666992 41 -8.66699 41 -24c0 -7.33301 -3.66699 -15.333 -11 -24c-23.333 -27.333 -66.333 -58.833 -129 -94.5s-104.667 -66.834 -126 -93.501c-4 -7.33301 -6 -12.666 -6 -15.999c0 -8 13.667 -16.667 41 -26
c52 -18 104.333 -54.333 157 -109c58 -59.333 87 -114 87 -164v-11c0.666992 -4 1 -7 1 -9c0 -9.33301 -2.33301 -16.666 -7 -21.999l-6 -5c-120 -100 -265.667 -156 -437 -168c-130.667 2.66699 -205.334 20.334 -224.001 53.001c-6 10.667 -9 20.667 -9 30
c0 15.333 13.333 36.333 40 63z" />
    <glyph glyph-name="braceleft" unicode="{" horiz-adv-x="215" 
d="M129 63c-21.333 0 -39.166 7.66797 -53.499 23.001s-21.5 33.666 -21.5 54.999s7.16699 39.666 21.5 54.999s32.166 23 53.499 23c22 0 40.333 -7.5 55 -22.5s22 -33.5 22 -55.5c0 -21.333 -7.5 -39.666 -22.5 -54.999s-33.167 -23 -54.5 -23z" />
    <glyph glyph-name="bar" unicode="|" horiz-adv-x="548" 
d="M277 160c14 210.667 54.998 435.665 122.998 674.998c0 8 1 20.333 3 37v16c-8.66699 10.667 -21 22.667 -37 36c-9.33301 8 -14.666 13.667 -15.999 17c-3.33301 2.66699 -8 4 -14 4c-21.333 0 -32.333 -8 -33 -24c-0.666992 -6.66699 0 -16.834 2 -30.501
s3 -23.5 3 -29.5c0 -33.333 -7.66699 -88.666 -23 -165.999l-35 -166l-23 -118c-8.66699 -44 -13.334 -84 -14.001 -120l-4 -159c-0.666992 -53.333 -1.66699 -106.666 -3 -159.999c-1.33301 -62 -4.66602 -115 -9.99902 -159c9.33301 -9.33301 17 -14 23 -14
c4 0 11.333 3.33301 22 10l1 1c12.667 6.66699 26.834 23.334 42.501 50.001s23.5 47.334 23.5 62.001c0 1.33301 -0.333008 2.66602 -1 3.99902v4c-0.666992 1.33301 -2 3.33301 -4 6c-8 14.667 -15 22 -21 22c-4.66699 0 -12 -2.66699 -22 -8c6 56.667 11 116.667 15 180z
" />
    <glyph glyph-name="braceright" unicode="}" horiz-adv-x="215" 
d="M129 63c-21.333 0 -39.166 7.66797 -53.499 23.001s-21.5 33.666 -21.5 54.999s7.16699 39.666 21.5 54.999s32.166 23 53.499 23c22 0 40.333 -7.5 55 -22.5s22 -33.5 22 -55.5c0 -21.333 -7.5 -39.666 -22.5 -54.999s-33.167 -23 -54.5 -23z" />
    <glyph glyph-name="asciitilde" unicode="~" horiz-adv-x="642" 
d="M257 328c-26 10 -51.334 15 -76.001 15c-22 0 -40.333 -3 -55 -9c-22 -8.66699 -42.333 -31.667 -61 -69c-1.33301 -1.33301 -2 -2.66602 -2 -3.99902c0 -5.33301 5.33301 -8 16 -8c16.667 0 35 5.66699 55 17c12.667 6.66699 22 10 28 10c10.667 0 26 -3 46 -9
c77.333 -34 158.666 -51 243.999 -51h8c5.33301 0.666992 9.66602 1 12.999 1h24c6.66699 0.666992 15.334 5 26.001 13c14 10 22.333 15.667 25 17c8 21.333 19 54 33 98c0 1.33301 0.333008 3 1 5v3c0 2.66699 -0.666992 4 -2 4s-21.666 -15.667 -60.999 -47
c-11.333 -8.66699 -23 -15.334 -35 -20.001c-18.667 -4.66699 -37 -7 -55 -7c-43.333 0 -100.666 13.667 -171.999 41z" />
    <glyph glyph-name="cent" unicode="&#xa2;" horiz-adv-x="329" 
d="M91 55c-17.333 6.66699 -25.999 19.333 -25.999 38c0 10 2.66699 21.667 8 35l64 118l32 40l90 113c28.667 34.667 48.5 54.167 59.5 58.5s18.5 6.5 22.5 6.5c9.33301 0 16.666 -8.66699 21.999 -26l-67 -80l-77 -94c-12.667 -15.333 -22.667 -29.333 -30 -42z
M36.001 -34.001c-10.667 -19.333 -25.667 -42.3359 -45 -69.0029v-1c-0.666992 0 -1 -0.333008 -1 -1c1.33301 -0.666992 3 -1 5 -1h6c4.66699 0.666992 8.66699 1 12 1c10 8.66699 24.333 17 43 25c10 4.66699 15 7.66699 15 9c0 2 -6.33301 4 -19 6
c2 12 8.33301 23.667 19 35c76 13.333 147 44.333 213 93c12.667 9.33301 30.667 25.666 54 48.999c28 28 42 46.333 42 55c0 2 -1.33301 3 -4 3c-8.66699 0 -18.667 -5 -30 -15c-24 -21.333 -65.667 -47 -125 -77l-2 -1c-32 -16 -63.333 -24.667 -94 -26
c1.33301 2 2.33301 3.66699 3 5l46 68c56 84.667 121.667 171.334 197 260.001c0 -3.33301 0.333008 -8.66602 1 -15.999v-18c0 -17.333 -1 -34 -3 -50c22.667 4 44 30 64 78c11.333 27.333 17 45.333 17 54c0 10 -1.66699 21 -5 33l59 60l20 20
c4.66699 8 12.334 20 23.001 36c-2 10.667 -6 23.667 -12 39c-3.33301 8.66699 -5 14.667 -5 18c-3.33301 6 -9 9 -17 9c-10 0 -15 -7.33301 -15 -22c-2.66699 -4 -6 -11 -10 -21c-9.33301 -22.667 -29.333 -49.667 -60 -81c-4 18 -13.333 29 -28 33
c-1.33301 0 -3.33301 0.333008 -6 1h-4c-2.66699 0 -12.334 -3.66699 -29.001 -11c-6 -2.66699 -25 -14.667 -57 -36l-12 -8c-16.667 -11.333 -44 -38.666 -82 -81.999c-22 -24.667 -44.667 -53 -68 -85c-6.66699 -11.333 -20.667 -33.666 -42 -66.999
c-38.667 -60.667 -62 -98.667 -70 -114c-26.667 -50.667 -40 -92 -40 -124c0 -42.667 15.333 -64 46 -64z" />
    <glyph glyph-name="cent" unicode="&#x45e;" horiz-adv-x="329" 
d="M91 55c-17.333 6.66699 -25.999 19.333 -25.999 38c0 10 2.66699 21.667 8 35l64 118l32 40l90 113c28.667 34.667 48.5 54.167 59.5 58.5s18.5 6.5 22.5 6.5c9.33301 0 16.666 -8.66699 21.999 -26l-67 -80l-77 -94c-12.667 -15.333 -22.667 -29.333 -30 -42z
M36.001 -34.001c-10.667 -19.333 -25.667 -42.3359 -45 -69.0029v-1c-0.666992 0 -1 -0.333008 -1 -1c1.33301 -0.666992 3 -1 5 -1h6c4.66699 0.666992 8.66699 1 12 1c10 8.66699 24.333 17 43 25c10 4.66699 15 7.66699 15 9c0 2 -6.33301 4 -19 6
c2 12 8.33301 23.667 19 35c76 13.333 147 44.333 213 93c12.667 9.33301 30.667 25.666 54 48.999c28 28 42 46.333 42 55c0 2 -1.33301 3 -4 3c-8.66699 0 -18.667 -5 -30 -15c-24 -21.333 -65.667 -47 -125 -77l-2 -1c-32 -16 -63.333 -24.667 -94 -26
c1.33301 2 2.33301 3.66699 3 5l46 68c56 84.667 121.667 171.334 197 260.001c0 -3.33301 0.333008 -8.66602 1 -15.999v-18c0 -17.333 -1 -34 -3 -50c22.667 4 44 30 64 78c11.333 27.333 17 45.333 17 54c0 10 -1.66699 21 -5 33l59 60l20 20
c4.66699 8 12.334 20 23.001 36c-2 10.667 -6 23.667 -12 39c-3.33301 8.66699 -5 14.667 -5 18c-3.33301 6 -9 9 -17 9c-10 0 -15 -7.33301 -15 -22c-2.66699 -4 -6 -11 -10 -21c-9.33301 -22.667 -29.333 -49.667 -60 -81c-4 18 -13.333 29 -28 33
c-1.33301 0 -3.33301 0.333008 -6 1h-4c-2.66699 0 -12.334 -3.66699 -29.001 -11c-6 -2.66699 -25 -14.667 -57 -36l-12 -8c-16.667 -11.333 -44 -38.666 -82 -81.999c-22 -24.667 -44.667 -53 -68 -85c-6.66699 -11.333 -20.667 -33.666 -42 -66.999
c-38.667 -60.667 -62 -98.667 -70 -114c-26.667 -50.667 -40 -92 -40 -124c0 -42.667 15.333 -64 46 -64z" />
    <glyph glyph-name="sterling" unicode="&#xa3;" 
d="M350 503c24 0 36 -11 36 -33c0 -22.667 -12 -34 -36 -34s-36 11.333 -36 34c0 22 12 33 36 33z" />
    <glyph glyph-name="sterling" unicode="&#x408;" 
d="M350 503c24 0 36 -11 36 -33c0 -22.667 -12 -34 -36 -34s-36 11.333 -36 34c0 22 12 33 36 33z" />
    <glyph glyph-name="currency" unicode="&#xa4;" horiz-adv-x="372" 
d="M176 322c-12 -14 -20.3379 -22.002 -25.0049 -24.002l-11 11c-6 -10 -12.333 -20 -19 -30c-14.667 -22 -35.667 -55.667 -63 -101c-16 -31.333 -26.667 -60.666 -32 -87.999l-28 -22c-10 -8 -15.667 -16.333 -17 -25v-5c0.666992 -2.66699 1 -4.66699 1 -6
c0 -4.66699 -0.333008 -12.334 -1 -23.001l-1 -16c0 -4.66699 0.666992 -7 2 -7c10 4.66699 24.667 14.667 44 30c0.666992 -6.66699 10.334 -14 29.001 -22c16.667 -7.33301 29 -11 37 -11c10 0.666992 25 5.66699 45 15c18 8.66699 32 17 42 25
c44.667 36 86.334 75 125.001 117c2 -8.66699 7.33301 -17.834 16 -27.501s17 -14.5 25 -14.5c4.66699 2 11 16.333 19 43c1.33301 4 3.33301 10.333 6 19c-6 3.33301 -10.667 8.16602 -14 14.499s-6.33301 12.5 -9 18.5c29.333 38.667 50.333 75.334 63 110.001
c0 2.66699 2.83301 11.834 8.5 27.501s8.83398 25.5 9.50098 29.5c6 6.66699 14.333 11.334 25 14.001c5.33301 1.33301 8 3.33301 8 6c0.666992 12.667 4.33398 32.334 11.001 59.001c0.666992 2 2.33398 9.33301 5.00098 22c0 4.66699 -2 7 -6 7
c-5.33301 0 -15.333 -4.66699 -30 -14c0 14 -2.33301 23 -7 27s-14.334 6 -29.001 6c-31.333 -0.666992 -65 -11.667 -101 -33c-32.667 -18.667 -60 -41.667 -82 -69c-19.333 24 -31.666 36 -36.999 36c-4 0 -13 -11.667 -27 -35c-9.33301 -2.66699 -14 -6 -14 -10
c0 -2 4.66699 -10.333 14 -25c11.333 -18 17.333 -27.667 18 -29zM91.9951 76.998l0.00195312 8c-0.666992 4 -1 6.33301 -1 7c0 33.333 21.667 81.333 65 144l9 13h7c20.667 0 42 17.667 64 53c29.333 48 55 76 77 84c5.33301 1.33301 10.666 2 15.999 2
c23.333 0 34.666 -7.33301 33.999 -22c-2 -39.333 -11 -73 -27 -101c-32.667 -58.667 -71.667 -108.334 -117 -149.001c-37.333 -33.333 -68 -50.666 -92 -51.999c-2 0 -4 -0.333008 -6 -1c-4.66699 -0.666992 -8 -1 -10 -1c-10.667 0 -17 5 -19 15z" />
    <glyph glyph-name="section" unicode="&#xa7;" horiz-adv-x="401" 
d="M131 -6c-14.667 -18.667 -24.333 -30.001 -29 -34.001c-10.667 -8.66699 -24.334 -13 -41.001 -13c3.33301 0 -6.16699 0.666992 -28.5 2s-37.166 3.66602 -44.499 6.99902c-10.667 4.66699 -21.334 14.667 -32.001 30c-14.667 16.667 -26.334 25 -35.001 25
c-3.33301 0 -6.33301 -1.33301 -9 -4c-10 -3.33301 -23.333 -10 -40 -20c-4 -4 -7 -13.667 -9 -29c0 -35.333 24.667 -59 74 -71c9.33301 -5.33301 32.333 -8 69 -8c36 0 59 2.66699 69 8c42.667 23.333 85 58.666 127 105.999c10 11.333 15.333 19.333 16 24
c6 40 9 78 9 114c0 40 -3.66699 79.667 -11 119c4.66699 -3.33301 11.334 -5 20.001 -5c23.333 0 49 9 77 27c30.667 19.333 48 39.666 52 60.999c6.66699 10 13.667 22.333 21 37c2.66699 5.33301 4 13.666 4 24.999c0 26 -1 65.167 -3 117.5s-3 91.5 -3 117.5
c0 4 0.333008 8.66699 1 14v9c8.66699 90.667 31.334 156.334 68.001 197.001c3.33301 4.66699 8 7 14 7l5 -1h8c21.333 -0.666992 33.333 -10.667 36 -30c2.66699 -10.667 6 -18 10 -22c10 -10 15 -20.333 15 -31c0 -2 -0.5 -5.33301 -1.5 -10s-1.5 -8 -1.5 -10
c0 -3.33301 1.33301 -6 4 -8c7.33301 -6.66699 15 -10 23 -10c16 0 25.333 9 28 27c0.666992 4.66699 4 21 10 49c4.66699 22.667 7 38.334 7 47.001c0 17.333 -9.66699 33.333 -29 48c-21.333 12 -46.666 18 -75.999 18c-21.333 0 -44 -2 -68 -6l-6 -1
c-6.66699 -1.33301 -14.667 -6 -24 -14c-40.667 -37.333 -68 -77.666 -82 -120.999c-8.66699 -27.333 -15.334 -76 -20.001 -146l-2 -30c-56 -10 -104 -34 -144 -72c-25.333 -24 -42 -45.333 -50 -64s-12 -44.667 -12 -78c0 -35.333 7.83301 -87.666 23.5 -156.999
s23.5 -121.666 23.5 -156.999c0 -30 -4.33301 -58 -13 -84zM324.001 464.999c2 -12 3.00098 -22.666 3.00098 -31.999c0 -44.667 -14.333 -83.334 -43 -116.001c-14 -6.66699 -28.667 -10 -44 -10c-9.33301 0 -16.333 1.66699 -21 5l-2 2c-14.667 14.667 -22 24 -22 28
s2.33301 10.667 7 20l3 6c9.33301 18.667 17.666 32 24.999 40c2 2 15 11.667 39 29l7 5c22.667 20 36.667 30 42 30c3.33301 0 5.33301 -2.33301 6 -7zM231.002 529c20.667 0 31.999 -4.66797 33.999 -14.001v-2l1 -3c0 -7.33301 -3.33301 -15.666 -10 -24.999
c-9.33301 -13.333 -14.333 -21 -15 -23c-26 -20 -41.333 -30 -46 -30c-3.33301 0 -5 4 -5 12c0.666992 26 14.334 54.333 41.001 85z" />
    <glyph glyph-name="dieresis" unicode="&#xa8;" horiz-adv-x="408" 
d="M287 534c6 -6 17.999 -9.00195 35.999 -9.00195c13.333 0 20.333 1 21 3c8 2 14.667 9.33301 20 22c2.66699 6 7.33398 17.333 14.001 34c9.33301 23.333 14 38 14 44c0 4.66699 -4.66699 9.33398 -14 14.001c-0.666992 0.666992 -1.33398 1 -2.00098 1
c-11.333 6 -21.666 9 -30.999 9c-15.333 0 -27.333 -8 -36 -24c-16 -29.333 -24 -57.666 -24 -84.999c0 -4.66699 0.666992 -7.66699 2 -9zM561.999 669.998h-7.99805c-2 0.666992 -4.33301 1 -7 1c-43.333 0 -74 -25.333 -92 -76l-18 -60c18.667 -2.66699 29.667 -4 33 -4
c5.33301 0 16.166 4.66699 32.499 14s26.166 22 29.499 38c6 28 17.667 53 35 75c3.33301 4 5 7 5 9c-0.666992 1.33301 -4 2.33301 -10 3zM302.001 274.998c-37.333 -9.33301 -60.998 -14.001 -70.998 -14.001c-7.33301 0 -11 1.66699 -11 5c0 4 6.66699 11 20 21
c2.66699 2 4.66699 5 6 9c1.33301 6.66699 8.33301 16.334 21 29.001c9.33301 9.33301 26.666 25 51.999 47s45 33 59 33c11.333 0 17 -5.66699 17 -17c0 -6.66699 -2.33301 -14.667 -7 -24c-24.667 -48 -53.334 -77.667 -86.001 -89zM419.003 298.997
c35.333 56 52.9961 99.6719 52.9961 131.005s-19.333 52 -58 62c-18 0 -44.833 -11.833 -80.5 -35.5s-69.167 -51.167 -100.5 -82.5l-72 -79c-8 -8.66699 -13.667 -13.334 -17 -14.001c-7.33301 -2.66699 -18.833 -11.834 -34.5 -27.501s-23.5 -26.834 -23.5 -33.501
c0 -2 0.666992 -3.33301 2 -4v0c0.666992 -0.666992 1 -1.33398 1 -2.00098c0 -4.66699 -9.33301 -19.334 -28 -44.001c-11.333 -15.333 -19.666 -27 -24.999 -35c-18.667 -29.333 -28 -60.666 -28 -93.999c0 -32.667 24.333 -49 73 -49c23.333 0 81.666 19.667 174.999 59
c66 28 107 51 123 69c5.33301 4.66699 12.333 12.667 21 24c2.66699 5.33301 5.33398 14.666 8.00098 27.999c0 2 -0.666992 3 -2 3c-2 0 -9 -4.5 -21 -13.5s-19.667 -14.167 -23 -15.5c-11.333 -4.66699 -31 -14.667 -59 -30c-22.667 -12.667 -36.667 -20 -42 -22l-5 -2
c-51.333 -20.667 -89.666 -31 -114.999 -31c-31.333 0 -46.666 10.333 -45.999 31c0.666992 16 4.33398 29.667 11.001 41c2 3.33301 11.333 14.333 28 33l24 28h14c6 -0.666992 11 -1 15 -1c110 0 187.333 35.333 232 106z" />
    <glyph glyph-name="dieresis" unicode="&#x401;" horiz-adv-x="408" 
d="M287 534c6 -6 17.999 -9.00195 35.999 -9.00195c13.333 0 20.333 1 21 3c8 2 14.667 9.33301 20 22c2.66699 6 7.33398 17.333 14.001 34c9.33301 23.333 14 38 14 44c0 4.66699 -4.66699 9.33398 -14 14.001c-0.666992 0.666992 -1.33398 1 -2.00098 1
c-11.333 6 -21.666 9 -30.999 9c-15.333 0 -27.333 -8 -36 -24c-16 -29.333 -24 -57.666 -24 -84.999c0 -4.66699 0.666992 -7.66699 2 -9zM561.999 669.998h-7.99805c-2 0.666992 -4.33301 1 -7 1c-43.333 0 -74 -25.333 -92 -76l-18 -60c18.667 -2.66699 29.667 -4 33 -4
c5.33301 0 16.166 4.66699 32.499 14s26.166 22 29.499 38c6 28 17.667 53 35 75c3.33301 4 5 7 5 9c-0.666992 1.33301 -4 2.33301 -10 3zM302.001 274.998c-37.333 -9.33301 -60.998 -14.001 -70.998 -14.001c-7.33301 0 -11 1.66699 -11 5c0 4 6.66699 11 20 21
c2.66699 2 4.66699 5 6 9c1.33301 6.66699 8.33301 16.334 21 29.001c9.33301 9.33301 26.666 25 51.999 47s45 33 59 33c11.333 0 17 -5.66699 17 -17c0 -6.66699 -2.33301 -14.667 -7 -24c-24.667 -48 -53.334 -77.667 -86.001 -89zM419.003 298.997
c35.333 56 52.9961 99.6719 52.9961 131.005s-19.333 52 -58 62c-18 0 -44.833 -11.833 -80.5 -35.5s-69.167 -51.167 -100.5 -82.5l-72 -79c-8 -8.66699 -13.667 -13.334 -17 -14.001c-7.33301 -2.66699 -18.833 -11.834 -34.5 -27.501s-23.5 -26.834 -23.5 -33.501
c0 -2 0.666992 -3.33301 2 -4v0c0.666992 -0.666992 1 -1.33398 1 -2.00098c0 -4.66699 -9.33301 -19.334 -28 -44.001c-11.333 -15.333 -19.666 -27 -24.999 -35c-18.667 -29.333 -28 -60.666 -28 -93.999c0 -32.667 24.333 -49 73 -49c23.333 0 81.666 19.667 174.999 59
c66 28 107 51 123 69c5.33301 4.66699 12.333 12.667 21 24c2.66699 5.33301 5.33398 14.666 8.00098 27.999c0 2 -0.666992 3 -2 3c-2 0 -9 -4.5 -21 -13.5s-19.667 -14.167 -23 -15.5c-11.333 -4.66699 -31 -14.667 -59 -30c-22.667 -12.667 -36.667 -20 -42 -22l-5 -2
c-51.333 -20.667 -89.666 -31 -114.999 -31c-31.333 0 -46.666 10.333 -45.999 31c0.666992 16 4.33398 29.667 11.001 41c2 3.33301 11.333 14.333 28 33l24 28h14c6 -0.666992 11 -1 15 -1c110 0 187.333 35.333 232 106z" />
    <glyph glyph-name="copyright" unicode="&#xa9;" horiz-adv-x="1665" 
 />
    <glyph glyph-name="ordfeminine" unicode="&#xaa;" 
d="M350 503c24 0 36 -11 36 -33c0 -22.667 -12 -34 -36 -34s-36 11.333 -36 34c0 22 12 33 36 33z" />
    <glyph glyph-name="ordfeminine" unicode="&#x404;" 
d="M350 503c24 0 36 -11 36 -33c0 -22.667 -12 -34 -36 -34s-36 11.333 -36 34c0 22 12 33 36 33z" />
    <glyph glyph-name="guillemotleft" unicode="&#xab;" horiz-adv-x="485" 
d="M101 253c10.667 7.33301 26.4951 15.6689 47.4951 25.002s35.833 16.666 44.5 21.999c24.667 18.667 61.667 38.667 111 60c43.333 31.333 65 51.666 65 60.999c0 2.66699 -1.66699 5.33398 -5 8.00098h-1c-1.33301 0.666992 -2.33301 1 -3 1
c-13.333 0 -47.666 -14 -102.999 -42c-6 -3.33301 -13.833 -9.66602 -23.5 -18.999s-17.5 -15.666 -23.5 -18.999c-25.333 -14 -71 -38 -137 -72l-12 -6c-16.667 -8.66699 -26.667 -14 -30 -16c-14 -10 -22.667 -22.667 -26 -38c0 -1.33301 -0.333008 -2.66602 -1 -3.99902
v-4c0 -12.667 17.333 -21.334 52 -26.001c22.667 -3.33301 63 -5.33301 121 -6c30 -0.666992 53.333 -4 70 -10c8 -2.66699 14.333 -4 19 -4c10 0.666992 20.667 4.66699 32 12s17 15.666 17 24.999c0 6.66699 -2.33301 11.667 -7 15s-7 5.33301 -7 6
c0.666992 0.666992 2 1 4 1c4.66699 0 13.667 -1 27 -3c30.667 -8.66699 55.334 -13 74.001 -13c32.667 0 49 14.333 49 43c0 7.33301 -24.667 13.666 -74 18.999c-40 4 -75.667 6 -107 6h-7c-4 -0.666992 -7.33301 -1 -10 -1h-18
c16.667 14.667 32.334 24.334 47.001 29.001c10.667 4.66699 19.334 9.66699 26.001 15c4 4 12.5 8.16699 25.5 12.5s21.833 8.5 26.5 12.5c15.333 9.33301 36 19.333 62 30c3.33301 0.666992 9.33301 3.5 18 8.5s15.834 7.5 21.501 7.5s15.167 3.83301 28.5 11.5
s22.5 12.167 27.5 13.5s7.83301 6.33301 8.5 15c0 1.33301 0.333008 2.66602 1 3.99902v3c0 9.33301 -4.33301 14 -13 14c-6 0 -17.333 -4 -34 -12c-30.667 -14 -84.667 -40.667 -162 -80l-116 -67c-26 -14.667 -39 -25.334 -39 -32.001s8.66699 -13 26 -19
c-16.667 3.33301 -41.667 7 -75 11c-12 1.33301 -17.667 2 -17 2z" />
    <glyph glyph-name="logicalnot" unicode="&#xac;" horiz-adv-x="336" 
d="M337 300c-50 -8 -104.665 -13.001 -163.998 -15.001c-28 -0.666992 -46.667 -2.33398 -56 -5.00098c-26.667 -6.66699 -50.334 -24.667 -71.001 -54c-4 -5.33301 -6 -9.66602 -6 -12.999c0 -6 7 -9 21 -9c16.667 0 43 3.33301 79 10
c3.33301 0.666992 6 1.33398 8 2.00098c67.333 12.667 120.666 19 159.999 19c8.66699 0 13 -22 13 -66c2 -12 8 -21.167 18 -27.5l29 -18.5c-3.33301 47.333 -5.33301 88 -6 122v32c-0.666992 16 -5 24 -13 24h-5c-2.66699 -0.666992 -5 -1 -7 -1z" />
    <glyph glyph-name="minus" unicode="&#xad;" horiz-adv-x="642" 
d="M314 322c-50.667 4.66699 -97.333 7 -140 7c-22.667 0 -41.334 -5.66699 -56.001 -17c-10.667 -8.66699 -22.667 -24 -36 -46l-1 -1v-2c0 -8.66699 18.667 -12.667 56 -12l219 3c22.667 0 63.334 1 122.001 3c38 2 57 16 57 42c0 11.333 -4.66699 17 -14 17
c-2 0 -6.33301 -0.333008 -13 -1c-15.333 -1.33301 -32 -2 -50 -2c-30.667 0 -78.667 3 -144 9z" />
    <glyph glyph-name="minus" unicode="&#x2212;" horiz-adv-x="642" 
d="M314 322c-50.667 4.66699 -97.333 7 -140 7c-22.667 0 -41.334 -5.66699 -56.001 -17c-10.667 -8.66699 -22.667 -24 -36 -46l-1 -1v-2c0 -8.66699 18.667 -12.667 56 -12l219 3c22.667 0 63.334 1 122.001 3c38 2 57 16 57 42c0 11.333 -4.66699 17 -14 17
c-2 0 -6.33301 -0.333008 -13 -1c-15.333 -1.33301 -32 -2 -50 -2c-30.667 0 -78.667 3 -144 9z" />
    <glyph glyph-name="registered" unicode="&#xae;" horiz-adv-x="615" 
 />
    <glyph glyph-name="macron" unicode="&#xaf;" 
d="M350 503c24 0 36 -11 36 -33c0 -22.667 -12 -34 -36 -34s-36 11.333 -36 34c0 22 12 33 36 33z" />
    <glyph glyph-name="macron" unicode="&#x407;" 
d="M350 503c24 0 36 -11 36 -33c0 -22.667 -12 -34 -36 -34s-36 11.333 -36 34c0 22 12 33 36 33z" />
    <glyph glyph-name="macron" unicode="&#x2c9;" 
d="M350 503c24 0 36 -11 36 -33c0 -22.667 -12 -34 -36 -34s-36 11.333 -36 34c0 22 12 33 36 33z" />
    <glyph glyph-name="degree" unicode="&#xb0;" horiz-adv-x="425" 
d="M382 646c-7.33301 -1.33301 -16 -2.00098 -26 -2.00098c-6 0 -10 2.33301 -12 7l-1 2c-1.33301 1.33301 -2 3 -2 5c0 4.66699 3.66699 13.667 11 27c11.333 20.667 18.666 35.334 21.999 44.001c22.667 2.66699 37.334 5 44.001 7c16 4 29 11.333 39 22l22 25l2 2
c18.667 -5.33301 28 -14 28 -26c0 -14.667 -6.5 -33.5 -19.5 -56.5s-25.167 -37.5 -36.5 -43.5s-35 -10.333 -71 -13zM210 610.999c0 -8 6.66699 -16.668 20 -26.001c20 -10.667 42.333 -16 67 -16c16 0 41 2.33301 75 7c41.333 5.33301 79 23 113 53l70 63
c22.667 26.667 40.667 52 54 76c6 10.667 9.33301 18.334 10 23.001c0 17.333 -13.333 31 -40 41c-22 8 -42.333 12 -61 12c-28 -0.666992 -67 -9.66699 -117 -27c-28 -10 -46 -15 -54 -15c-14.667 0 -24.667 -2.83301 -30 -8.5s-10 -16.5 -14 -32.5s-20 -42.333 -48 -79
c-30 -39.333 -45 -63 -45 -71z" />
    <glyph glyph-name="plusminus" unicode="&#xb1;" horiz-adv-x="420" 
d="M164 187c-50.667 4.66699 -97.333 7 -140 7c-22.667 0 -41.334 -5.66699 -56.001 -17c-10.667 -8.66699 -22.667 -24 -36 -46l-1 -1v-2c0 -8.66699 18.667 -12.667 56 -12l219 3c22.667 0 63.334 1 122.001 3c38 2 57 16 57 42c0 11.333 -4.66699 17 -14 17
c-2 0 -6.33301 -0.333008 -13 -1c-15.333 -1.33301 -32 -2 -50 -2c-30.667 0 -78.667 3 -144 9zM1.00098 394c-5.33301 -6 -8.00195 -11.999 -8.00195 -17.999c0 -11.333 11.333 -17 34 -17c2 0 7.66699 0.333008 17 1c27.333 2 46 3 56 3c12.667 0 19 -2 19 -6
c0 -1.33301 -0.666992 -3 -2 -5c-23.333 -64.667 -35 -101.667 -35 -111c0 -4.66699 1.33301 -8 4 -10c1.33301 -6 7.33301 -9 18 -9c6.66699 0 23.667 1.66699 51 5h5c0.666992 -0.666992 1.66699 -1 3 -1c4.66699 0 8.33398 3 11.001 9l4 8c20 36 35.333 67.667 46 95
c6 15.333 12.667 23 20 23c27.333 1.33301 68.333 5.33301 123 12c12.667 1.33301 27 6 43 14c2.66699 1.33301 6.66699 2.66602 12 3.99902c9.33301 1.33301 14 7 14 17c0 14.667 3.66699 25 11 31c-40 0 -87.333 -1.66699 -142 -5c-10.667 -0.666992 -18.667 -1 -24 -1
c-6.66699 0 -10 1 -10 3s1 4 3 6l26 43c34 56 51 88.667 51 98c0 0.666992 -0.333008 1.66699 -1 3v3c-5.33301 6.66699 -10.666 10 -15.999 10s-13.333 -1.66699 -24 -5c-5.33301 2 -10.333 3 -15 3c-18 0 -39.667 -16.333 -65 -49c-4.66699 -6 -21 -30 -49 -72l-28 -42
c-15.333 3.33301 -29.333 5 -42 5c-40 0 -76.667 -15 -110 -45z" />
    <glyph glyph-name="twosuperior" unicode="&#xb2;" 
d="M350 503c24 0 36 -11 36 -33c0 -22.667 -12 -34 -36 -34s-36 11.333 -36 34c0 22 12 33 36 33z" />
    <glyph glyph-name="twosuperior" unicode="&#x406;" 
d="M350 503c24 0 36 -11 36 -33c0 -22.667 -12 -34 -36 -34s-36 11.333 -36 34c0 22 12 33 36 33z" />
    <glyph glyph-name="threesuperior" unicode="&#xb3;" 
d="M350 503c24 0 36 -11 36 -33c0 -22.667 -12 -34 -36 -34s-36 11.333 -36 34c0 22 12 33 36 33z" />
    <glyph glyph-name="threesuperior" unicode="&#x456;" 
d="M350 503c24 0 36 -11 36 -33c0 -22.667 -12 -34 -36 -34s-36 11.333 -36 34c0 22 12 33 36 33z" />
    <glyph glyph-name="acute" unicode="&#xb4;" horiz-adv-x="444" 
d="M692 701c3.33301 5.33301 12.332 7.99902 26.999 7.99902c10.667 0 16 7.66699 16 23c0 8.66699 -2.33301 13 -7 13c-2.66699 0 -7 -1 -13 -3c-14.667 -1.33301 -39.334 -7.33301 -74.001 -18c-7.33301 -3.33301 -17 -6 -29 -8c-14 -2 -23.667 -4 -29 -6
c-18.667 -9.33301 -50 -21.666 -94 -36.999c-75.333 -18 -121.666 -40.667 -138.999 -68c-11.333 -17.333 -17 -29.333 -17 -36c0 -6 6.66699 -9 20 -9c18 0 39 6.33301 63 19c28.667 15.333 50.334 25.333 65.001 30c26 12.667 65.333 27.667 118 45
c41.333 13.333 72.333 29 93 47z" />
    <glyph glyph-name="acute" unicode="&#x491;" horiz-adv-x="444" 
d="M692 701c3.33301 5.33301 12.332 7.99902 26.999 7.99902c10.667 0 16 7.66699 16 23c0 8.66699 -2.33301 13 -7 13c-2.66699 0 -7 -1 -13 -3c-14.667 -1.33301 -39.334 -7.33301 -74.001 -18c-7.33301 -3.33301 -17 -6 -29 -8c-14 -2 -23.667 -4 -29 -6
c-18.667 -9.33301 -50 -21.666 -94 -36.999c-75.333 -18 -121.666 -40.667 -138.999 -68c-11.333 -17.333 -17 -29.333 -17 -36c0 -6 6.66699 -9 20 -9c18 0 39 6.33301 63 19c28.667 15.333 50.334 25.333 65.001 30c26 12.667 65.333 27.667 118 45
c41.333 13.333 72.333 29 93 47z" />
    <glyph glyph-name="paragraph" unicode="&#xb6;" horiz-adv-x="533" 
d="M375 700c16.667 -19.333 25.001 -37.667 25.001 -55c0 -4.66699 -0.666992 -8.66699 -2 -12c-42.667 -68 -97.334 -102 -164.001 -102c-48 0 -91.333 13.333 -130 40c-26 18 -39 37.333 -39 58c0 36.667 32.333 65.667 97 87c40 13.333 80 20 120 20
c41.333 0 72.333 -12 93 -36zM420.001 686.999c-12 44 -48 70 -108 78c-2.66699 0 -7 0.333008 -13 1h-15c-42.667 0 -88.667 -7.66699 -138 -23c-89.333 -28 -134 -66.333 -134 -115c0 -33.333 22 -62 66 -86c48 -26 102 -39 162 -39c52 0 97 18.333 135 55l-202 -575
l27 -9l262 755l-25 9zM233.001 -36.001l27 -9l262 755l-25 9z" />
    <glyph glyph-name="periodcentered" unicode="&#xb7;" horiz-adv-x="228" 
d="M127 251c-4 -8.66699 -6.00098 -13.999 -6.00098 -15.999c0 -8.66699 6 -13 18 -13c24 0 39.667 6 47 18l8 9c20 22.667 30.333 43 31 61c0.666992 16 -5.66602 24 -18.999 24c-5.33301 0 -12.833 -3.33301 -22.5 -10s-17 -10.834 -22 -12.501s-8.83301 -4.5 -11.5 -8.5z
" />
    <glyph glyph-name="periodcentered" unicode="&#x2219;" horiz-adv-x="228" 
d="M127 251c-4 -8.66699 -6.00098 -13.999 -6.00098 -15.999c0 -8.66699 6 -13 18 -13c24 0 39.667 6 47 18l8 9c20 22.667 30.333 43 31 61c0.666992 16 -5.66602 24 -18.999 24c-5.33301 0 -12.833 -3.33301 -22.5 -10s-17 -10.834 -22 -12.501s-8.83301 -4.5 -11.5 -8.5z
" />
    <glyph glyph-name="cedilla" unicode="&#xb8;" horiz-adv-x="233" 
d="M157 30c-0.666992 2.66699 -2.66406 3.99805 -5.99707 3.99805c-8.66699 0 -22.334 -9.33301 -41.001 -28c-11.333 -11.333 -17 -24 -17 -38c0 -6 1.33301 -11.667 4 -17c25.333 -52 38 -87.667 38 -107c0 -14.667 -8 -36 -24 -64
c-4.66699 -12 -12.334 -25.333 -23.001 -40c-8 -5.33301 -15.5 -14.166 -22.5 -26.499l-20.5 -34.5c24 2 45.667 12 65 30l54 55c17.333 18 27.666 32.333 30.999 43c8.66699 30.667 13 52.667 13 66c0 18.667 -4 38.334 -12 59.001l-23 55c-1.33301 4 -4 11.333 -8 22z" />
    <glyph glyph-name="cedilla" unicode="&#x451;" horiz-adv-x="233" 
d="M157 30c-0.666992 2.66699 -2.66406 3.99805 -5.99707 3.99805c-8.66699 0 -22.334 -9.33301 -41.001 -28c-11.333 -11.333 -17 -24 -17 -38c0 -6 1.33301 -11.667 4 -17c25.333 -52 38 -87.667 38 -107c0 -14.667 -8 -36 -24 -64
c-4.66699 -12 -12.334 -25.333 -23.001 -40c-8 -5.33301 -15.5 -14.166 -22.5 -26.499l-20.5 -34.5c24 2 45.667 12 65 30l54 55c17.333 18 27.666 32.333 30.999 43c8.66699 30.667 13 52.667 13 66c0 18.667 -4 38.334 -12 59.001l-23 55c-1.33301 4 -4 11.333 -8 22z" />
    <glyph glyph-name="onesuperior" unicode="&#xb9;" 
d="M350 503c24 0 36 -11 36 -33c0 -22.667 -12 -34 -36 -34s-36 11.333 -36 34c0 22 12 33 36 33z" />
    <glyph glyph-name="onesuperior" unicode="&#x2116;" 
d="M350 503c24 0 36 -11 36 -33c0 -22.667 -12 -34 -36 -34s-36 11.333 -36 34c0 22 12 33 36 33z" />
    <glyph glyph-name="guillemotright" unicode="&#xbb;" horiz-adv-x="564" 
d="M443 239l78.998 41.0039c40 21.333 60 37.666 60 48.999c0 6.66699 -6.33301 12.667 -19 18c-10 2.66699 -19.667 5.66699 -29 9c-24 12 -36.333 18 -37 18c-14.667 0 -31 7 -49 21c-8 6 -13 9 -15 9c-4.66699 0 -10 2.66699 -16 8c0 6 -7.66699 10.333 -23 13
c-8 1.33301 -15.333 2 -22 2c-16 0 -31.333 -3.66699 -46 -11c-18 -8.66699 -27 -20.334 -27 -35.001c0 -9.33301 5 -17 15 -23c6 -5.33301 43.667 -16.333 113 -33c18.667 -4.66699 35 -15 49 -31c-10.667 -4 -22.667 -9 -36 -15c-7.33301 -3.33301 -12 -5 -14 -5l-1 1
c0.666992 2 4 6 10 12c2.66699 2.66699 4 4.66699 4 6c-2 1.33301 -9 4 -21 8c-3.33301 1.33301 -9.33301 2.66602 -18 3.99902c-22 4 -42.667 9.66699 -62 17c-0.666992 6.66699 -6.66699 11.334 -18 14.001c-4 0 -6.66699 0.333008 -8 1
c-31.333 21.333 -80.333 50.666 -147 87.999c-2.66699 1.33301 -6.33398 2 -11.001 2c-14 0 -29.333 -5.66699 -46 -17c-18.667 -12.667 -28 -25.334 -28 -38.001c1.33301 -6 22 -15 62 -27c28.667 -8.66699 46.667 -15 54 -19c56.667 -21.333 98.667 -40 126 -56
c-37.333 -16.667 -68.333 -25.667 -93 -27c-22 -9.33301 -51.333 -19.333 -88 -30c-8.66699 -2.66699 -23 -4 -43 -4c-27.333 -4 -46.666 -19.667 -57.999 -47h8c16.667 0 41.334 4.66699 74.001 14l76 22c26 2.66699 63.667 9 113 19c10 3.33301 21.667 6.66602 35 9.99902
c-66.667 -41.333 -100 -67.666 -100 -78.999c0.666992 -2.66699 3 -4 7 -4c4.66699 0 11.834 0.666992 21.501 2s16.5 2.5 20.5 3.5s11.333 5.16699 22 12.5c35.333 26 77.333 51.667 126 77z" />
    <glyph glyph-name="onequarter" unicode="&#xbc;" horiz-adv-x="851" 
d="M662 205c-3.33301 -3.33301 -17.6689 -6.66699 -43.002 -10c-18 -2.66699 -53 -8.66699 -105 -18c-11.333 -2 -32.333 -6.33301 -63 -13c-16 -4 -25 -6 -27 -6l-38 -3c-25.333 -2 -43.666 -3 -54.999 -3c-8.66699 0 -13 1 -13 3l110 82l60 45
c38.667 22 84.334 52 137.001 90l83 62.5c27.333 21 44 31.5 50 31.5c3.33301 0 5 -2 5 -6c0 -41.333 -11 -86 -33 -134c-12 -26 -34.667 -66.333 -68 -121zM615.997 -70.001c3.33301 56 36.002 125.672 98.002 209.005c1.33301 1.33301 4 2 8 2
c12.667 0 30.834 -2.5 54.501 -7.5s41.5 -7.5 53.5 -7.5c15.333 -0.666992 30.666 3 45.999 11c18.667 9.33301 28 21 28 35c0 4 -0.666992 7.66699 -2 11c-11.333 11.333 -53.333 17 -126 17h-6c-20 0 -30 2 -30 6c0 3.33301 2.33301 9.33301 7 18
c38 53.333 76.667 136 116 248l17 49c0 2.66699 -5.33301 7.66699 -16 15s-16.667 12 -18 14c-2 6.66699 -11 10 -27 10c-30.667 0 -56.334 -12.667 -77.001 -38c-12 -14.667 -43.667 -41.334 -95 -80.001c-23.333 -17.333 -58.333 -41.333 -105 -72
c-14 -6.66699 -34.167 -21.334 -60.5 -44.001s-48.5 -38.667 -66.5 -48c-5.33301 -2.66699 -23 -15.334 -53 -38.001c-28 -20 -63.333 -46.667 -106 -80c-9.33301 -7.33301 -22 -19 -38 -35c-4.66699 -4.66699 -7 -8.33398 -7 -11.001c0 -2 1.83301 -4.66699 5.5 -8
s5.5 -6 5.5 -8s-1 -4.33301 -3 -7s-3 -4.66699 -3 -6c0 -7.33301 10 -11 30 -11c11.333 0 54.333 6.66699 129 20c39.333 7.33301 71.666 12.666 96.999 15.999c2 0 24.667 2.66699 68 8c8 0.666992 23.333 2.66699 46 6l3 1c12.667 1.33301 20.334 2 23.001 2
s4 -0.666992 4 -2c0 -2 -6 -10.333 -18 -25l-17 -34c-32 -62 -48 -107.667 -48 -137c0 -1.33301 0.333008 -4 1 -8v-8c1.33301 -8.66699 10.666 -13 27.999 -13c10 4.66699 20 9 30 13c16 8 24 13.667 24 17zM137.999 870.004
c-5.33301 -7.33301 -8.00098 -18.667 -8.00098 -34c0 -8 2 -12 6 -12c1.33301 0 3 0.666992 5 2c17.333 14 31.666 23 42.999 27l10 2h5c6 0 9 -2 9 -6c0 -8 -16.667 -45.667 -50 -113l-58 -114c-24 -43.333 -45.333 -84 -64 -122
c-5.33301 -11.333 -12.333 -30.666 -21 -57.999c-7.33301 -24.667 -16.333 -52.667 -27 -84l-9 -27c-6 -18 -9 -29.333 -9 -34c0 -2.66699 0.666992 -4.33398 2 -5.00098c10.667 -2.66699 20.334 -4 29.001 -4l7 1h6c24.667 0 38.667 17.333 42 52
c4.66699 45.333 19.334 95 44.001 149c12 26.667 37 72.667 75 138c28 48.667 47.333 83.334 58 104.001c30 58.667 50.667 115.334 62 170.001c0 3.33301 -5 7.66602 -15 12.999l-4 3c-6 4.66699 -12 7 -18 7c-44.667 0 -78 -11 -100 -33c-7.33301 -6 -13 -11.667 -17 -17
c-1.33301 -2.66699 -2.33301 -4.33398 -3 -5.00098zM492.998 665.003l-215.001 -215c-34.667 -34.667 -69.334 -74 -104.001 -118l-187 -255c-25.333 -32.667 -38 -51.667 -38 -57c0 -2 0.666992 -3.66699 2 -5c3.33301 -7.33301 12.333 -11 27 -11
c18.667 0 44.334 6 77.001 18c35.333 17.333 53 36.333 53 57v2c-1.33301 8 -11.666 12.333 -30.999 13c112.667 140 209 252 289 336c71.333 74.667 151 148 239 220c16.667 17.333 25 32 25 44c0 11.333 -11.333 28.333 -34 51c-8 10.667 -17.333 16 -28 16
c-12.667 0 -30 -7 -52 -21c-16.667 -10.667 -25 -23 -25 -37c0 -3.33301 0.833008 -8.33301 2.5 -15s2.5 -11.667 2.5 -15s-1 -6 -3 -8z" />
    <glyph glyph-name="onequarter" unicode="&#x458;" horiz-adv-x="851" 
d="M662 205c-3.33301 -3.33301 -17.6689 -6.66699 -43.002 -10c-18 -2.66699 -53 -8.66699 -105 -18c-11.333 -2 -32.333 -6.33301 -63 -13c-16 -4 -25 -6 -27 -6l-38 -3c-25.333 -2 -43.666 -3 -54.999 -3c-8.66699 0 -13 1 -13 3l110 82l60 45
c38.667 22 84.334 52 137.001 90l83 62.5c27.333 21 44 31.5 50 31.5c3.33301 0 5 -2 5 -6c0 -41.333 -11 -86 -33 -134c-12 -26 -34.667 -66.333 -68 -121zM615.997 -70.001c3.33301 56 36.002 125.672 98.002 209.005c1.33301 1.33301 4 2 8 2
c12.667 0 30.834 -2.5 54.501 -7.5s41.5 -7.5 53.5 -7.5c15.333 -0.666992 30.666 3 45.999 11c18.667 9.33301 28 21 28 35c0 4 -0.666992 7.66699 -2 11c-11.333 11.333 -53.333 17 -126 17h-6c-20 0 -30 2 -30 6c0 3.33301 2.33301 9.33301 7 18
c38 53.333 76.667 136 116 248l17 49c0 2.66699 -5.33301 7.66699 -16 15s-16.667 12 -18 14c-2 6.66699 -11 10 -27 10c-30.667 0 -56.334 -12.667 -77.001 -38c-12 -14.667 -43.667 -41.334 -95 -80.001c-23.333 -17.333 -58.333 -41.333 -105 -72
c-14 -6.66699 -34.167 -21.334 -60.5 -44.001s-48.5 -38.667 -66.5 -48c-5.33301 -2.66699 -23 -15.334 -53 -38.001c-28 -20 -63.333 -46.667 -106 -80c-9.33301 -7.33301 -22 -19 -38 -35c-4.66699 -4.66699 -7 -8.33398 -7 -11.001c0 -2 1.83301 -4.66699 5.5 -8
s5.5 -6 5.5 -8s-1 -4.33301 -3 -7s-3 -4.66699 -3 -6c0 -7.33301 10 -11 30 -11c11.333 0 54.333 6.66699 129 20c39.333 7.33301 71.666 12.666 96.999 15.999c2 0 24.667 2.66699 68 8c8 0.666992 23.333 2.66699 46 6l3 1c12.667 1.33301 20.334 2 23.001 2
s4 -0.666992 4 -2c0 -2 -6 -10.333 -18 -25l-17 -34c-32 -62 -48 -107.667 -48 -137c0 -1.33301 0.333008 -4 1 -8v-8c1.33301 -8.66699 10.666 -13 27.999 -13c10 4.66699 20 9 30 13c16 8 24 13.667 24 17zM137.999 870.004
c-5.33301 -7.33301 -8.00098 -18.667 -8.00098 -34c0 -8 2 -12 6 -12c1.33301 0 3 0.666992 5 2c17.333 14 31.666 23 42.999 27l10 2h5c6 0 9 -2 9 -6c0 -8 -16.667 -45.667 -50 -113l-58 -114c-24 -43.333 -45.333 -84 -64 -122
c-5.33301 -11.333 -12.333 -30.666 -21 -57.999c-7.33301 -24.667 -16.333 -52.667 -27 -84l-9 -27c-6 -18 -9 -29.333 -9 -34c0 -2.66699 0.666992 -4.33398 2 -5.00098c10.667 -2.66699 20.334 -4 29.001 -4l7 1h6c24.667 0 38.667 17.333 42 52
c4.66699 45.333 19.334 95 44.001 149c12 26.667 37 72.667 75 138c28 48.667 47.333 83.334 58 104.001c30 58.667 50.667 115.334 62 170.001c0 3.33301 -5 7.66602 -15 12.999l-4 3c-6 4.66699 -12 7 -18 7c-44.667 0 -78 -11 -100 -33c-7.33301 -6 -13 -11.667 -17 -17
c-1.33301 -2.66699 -2.33301 -4.33398 -3 -5.00098zM492.998 665.003l-215.001 -215c-34.667 -34.667 -69.334 -74 -104.001 -118l-187 -255c-25.333 -32.667 -38 -51.667 -38 -57c0 -2 0.666992 -3.66699 2 -5c3.33301 -7.33301 12.333 -11 27 -11
c18.667 0 44.334 6 77.001 18c35.333 17.333 53 36.333 53 57v2c-1.33301 8 -11.666 12.333 -30.999 13c112.667 140 209 252 289 336c71.333 74.667 151 148 239 220c16.667 17.333 25 32 25 44c0 11.333 -11.333 28.333 -34 51c-8 10.667 -17.333 16 -28 16
c-12.667 0 -30 -7 -52 -21c-16.667 -10.667 -25 -23 -25 -37c0 -3.33301 0.833008 -8.33301 2.5 -15s2.5 -11.667 2.5 -15s-1 -6 -3 -8z" />
    <glyph glyph-name="onehalf" unicode="&#xbd;" horiz-adv-x="823" 
d="M759 415c-12 -38 -38.333 -75.335 -79 -112.002c-18 -16.667 -55 -45 -111 -85l-41 -30c-42.667 -31.333 -73.334 -55.666 -92.001 -72.999c-25.333 -24 -58.333 -60.333 -99 -109c-4.66699 -4.66699 -7 -9.66699 -7 -15c0 -6.66699 11.667 -20.667 35 -42
c6 -6 26.667 -9 62 -9c12 0 55.333 1 130 3l187 5c12.667 0.666992 23 -2 31 -8c4.66699 -4.66699 11.334 -7 20.001 -7c23.333 0.666992 43 16 59 46c4.66699 8.66699 7 16.334 7 23.001c0 20 -24.667 30 -74 30c-45.333 0 -95.333 -2.66699 -150 -8
c-34 -3.33301 -61.667 -5 -83 -5h-15c-6.66699 0.666992 -12.167 1 -16.5 1s-14.833 0.666992 -31.5 2c-50.667 3.33301 -76 6 -76 8c0.666992 2 3 4 7 6c0.666992 0.666992 2 1.66699 4 3c47.333 46.667 88.666 81 123.999 103
c33.333 20.667 83.666 60.334 150.999 119.001c16.667 13.333 34.334 28.666 53.001 45.999c23.333 26 48.666 59 75.999 99c9.33301 13.333 14.333 30 15 50c0.666992 16 -19.666 40.667 -60.999 74c-22.667 18 -38.334 27.667 -47.001 29h-8l-8 1
c-42.667 0 -100 -18.667 -172 -56c-10 -5.33301 -23.667 -15.333 -41 -30c-8.66699 -7.33301 -15 -12.333 -19 -15c-18.667 -16 -28 -33 -28 -51c0 -1.33301 0.333008 -3.33301 1 -6v-7c0 -32 12.333 -48 37 -48l5 1h5l3 1c12 2 19.667 5 23 9s5 12.333 5 25v8
c-0.666992 6 -1 10.333 -1 13c-2 8.66699 -3 15.667 -3 21c0 8.66699 3.66699 15 11 19c42.667 24.667 82.334 37 119.001 37h11c20.667 0 34.334 -3 41.001 -9c27.333 -24 41 -43 41 -57zM138 869.998c-5.33301 -7.33301 -8 -18.667 -8 -34c0 -8 2 -12 6 -12
c1.33301 0 3 0.666992 5 2c17.333 14 31.666 23 42.999 27l10 2h5c6 0 9 -2 9 -6c0 -8 -16.667 -45.667 -50 -113l-58 -114c-24 -43.333 -45.333 -84 -64 -122c-5.33301 -11.333 -12.333 -30.666 -21 -57.999c-7.33301 -24.667 -16.333 -52.667 -27 -84l-9 -27
c-6 -18 -9 -29.333 -9 -34c0 -2.66699 0.666992 -4.33398 2 -5.00098c8 -2.66699 16 -4 24 -4l7 1h6c24.667 0 38.667 17.333 42 52c4.66699 45.333 19.334 95 44.001 149c12 26.667 37 72.667 75 138c28 48.667 47.333 83.334 58 104.001
c30 58.667 50.667 115.334 62 170.001c0 3.33301 -5 7.66602 -15 12.999l-4 3c-6 4.66699 -11.667 7 -17 7c-3.33301 0 -10 -1 -20 -3c-30.667 0 -56 -10 -76 -30c-7.33301 -6 -13 -11.667 -17 -17c-1.33301 -2.66699 -2.33301 -4.33398 -3 -5.00098zM493 664.997
l-215.001 -215c-34.667 -34.667 -69.334 -74 -104.001 -118l-187 -255c-25.333 -32.667 -38 -51.667 -38 -57c0 -2 0.666992 -3.66699 2 -5c3.33301 -7.33301 12.333 -11 27 -11c18.667 0 44.334 6 77.001 18c35.333 17.333 53 36.333 53 57v2
c-1.33301 8 -11.666 12.333 -30.999 13c112.667 140 209 252 289 336c71.333 74.667 151 148 239 220c16.667 17.333 25 32 25 44c0 11.333 -11.333 28.333 -34 51c-8 10.667 -17.333 16 -28 16c-12.667 0 -30 -7 -52 -21c-16.667 -10.667 -25 -23 -25 -37
c0 -3.33301 0.833008 -8.33301 2.5 -15s2.5 -11.667 2.5 -15s-1 -6 -3 -8z" />
    <glyph glyph-name="onehalf" unicode="&#x405;" horiz-adv-x="823" 
d="M759 415c-12 -38 -38.333 -75.335 -79 -112.002c-18 -16.667 -55 -45 -111 -85l-41 -30c-42.667 -31.333 -73.334 -55.666 -92.001 -72.999c-25.333 -24 -58.333 -60.333 -99 -109c-4.66699 -4.66699 -7 -9.66699 -7 -15c0 -6.66699 11.667 -20.667 35 -42
c6 -6 26.667 -9 62 -9c12 0 55.333 1 130 3l187 5c12.667 0.666992 23 -2 31 -8c4.66699 -4.66699 11.334 -7 20.001 -7c23.333 0.666992 43 16 59 46c4.66699 8.66699 7 16.334 7 23.001c0 20 -24.667 30 -74 30c-45.333 0 -95.333 -2.66699 -150 -8
c-34 -3.33301 -61.667 -5 -83 -5h-15c-6.66699 0.666992 -12.167 1 -16.5 1s-14.833 0.666992 -31.5 2c-50.667 3.33301 -76 6 -76 8c0.666992 2 3 4 7 6c0.666992 0.666992 2 1.66699 4 3c47.333 46.667 88.666 81 123.999 103
c33.333 20.667 83.666 60.334 150.999 119.001c16.667 13.333 34.334 28.666 53.001 45.999c23.333 26 48.666 59 75.999 99c9.33301 13.333 14.333 30 15 50c0.666992 16 -19.666 40.667 -60.999 74c-22.667 18 -38.334 27.667 -47.001 29h-8l-8 1
c-42.667 0 -100 -18.667 -172 -56c-10 -5.33301 -23.667 -15.333 -41 -30c-8.66699 -7.33301 -15 -12.333 -19 -15c-18.667 -16 -28 -33 -28 -51c0 -1.33301 0.333008 -3.33301 1 -6v-7c0 -32 12.333 -48 37 -48l5 1h5l3 1c12 2 19.667 5 23 9s5 12.333 5 25v8
c-0.666992 6 -1 10.333 -1 13c-2 8.66699 -3 15.667 -3 21c0 8.66699 3.66699 15 11 19c42.667 24.667 82.334 37 119.001 37h11c20.667 0 34.334 -3 41.001 -9c27.333 -24 41 -43 41 -57zM138 869.998c-5.33301 -7.33301 -8 -18.667 -8 -34c0 -8 2 -12 6 -12
c1.33301 0 3 0.666992 5 2c17.333 14 31.666 23 42.999 27l10 2h5c6 0 9 -2 9 -6c0 -8 -16.667 -45.667 -50 -113l-58 -114c-24 -43.333 -45.333 -84 -64 -122c-5.33301 -11.333 -12.333 -30.666 -21 -57.999c-7.33301 -24.667 -16.333 -52.667 -27 -84l-9 -27
c-6 -18 -9 -29.333 -9 -34c0 -2.66699 0.666992 -4.33398 2 -5.00098c8 -2.66699 16 -4 24 -4l7 1h6c24.667 0 38.667 17.333 42 52c4.66699 45.333 19.334 95 44.001 149c12 26.667 37 72.667 75 138c28 48.667 47.333 83.334 58 104.001
c30 58.667 50.667 115.334 62 170.001c0 3.33301 -5 7.66602 -15 12.999l-4 3c-6 4.66699 -11.667 7 -17 7c-3.33301 0 -10 -1 -20 -3c-30.667 0 -56 -10 -76 -30c-7.33301 -6 -13 -11.667 -17 -17c-1.33301 -2.66699 -2.33301 -4.33398 -3 -5.00098zM493 664.997
l-215.001 -215c-34.667 -34.667 -69.334 -74 -104.001 -118l-187 -255c-25.333 -32.667 -38 -51.667 -38 -57c0 -2 0.666992 -3.66699 2 -5c3.33301 -7.33301 12.333 -11 27 -11c18.667 0 44.334 6 77.001 18c35.333 17.333 53 36.333 53 57v2
c-1.33301 8 -11.666 12.333 -30.999 13c112.667 140 209 252 289 336c71.333 74.667 151 148 239 220c16.667 17.333 25 32 25 44c0 11.333 -11.333 28.333 -34 51c-8 10.667 -17.333 16 -28 16c-12.667 0 -30 -7 -52 -21c-16.667 -10.667 -25 -23 -25 -37
c0 -3.33301 0.833008 -8.33301 2.5 -15s2.5 -11.667 2.5 -15s-1 -6 -3 -8z" />
    <glyph glyph-name="Agrave" unicode="&#xc0;" horiz-adv-x="815" 
d="M699 719c1.33301 -6 4.66895 -15.6641 10.002 -28.9971c12.667 -32.667 19 -56.334 19 -71.001c0 -12.667 -2.66699 -26 -8 -40c-4 -10 -6.66699 -27.333 -8 -52c-0.666992 -14 -2.33398 -29 -5.00098 -45l-37 -248c-6.66699 -44 -13.667 -66 -21 -66
c-8.66699 0 -19.334 8.33301 -32.001 25c-4 11.333 -17 31.666 -39 60.999c-32 33.333 -79.667 75 -143 125l98 122c5.33301 4 11.333 11.167 18 21.5s12 17.166 16 20.499c30.667 29.333 74.667 88 132 176zM773.003 433.003c2 28.667 6.99707 74.334 14.9971 137.001
c2.66699 20.667 6.33398 34 11.001 40c11.333 11.333 17 25.333 17 42v9c0.666992 5.33301 1 10 1 14c0 26.667 -0.666992 52 -2 76c-0.666992 7.33301 -1.33398 16 -2.00098 26c-3.33301 15.333 -17 28.666 -41 39.999c-14.667 6.66699 -25.334 10.334 -32.001 11.001
c-4 0 -11.333 -4.33301 -22 -13c-51.333 -40.667 -96 -94 -134 -160c-9.33301 -15.333 -19 -29.666 -29 -42.999c-13.333 -16 -36 -45 -68 -87c-33.333 -46 -63 -82.333 -89 -109c-8 7.33301 -22.667 19.666 -44 36.999l-3 2c-12 9.33301 -30.667 14 -56 14
c-8.66699 0 -13.667 -1.33301 -15 -4c-12 -16.667 -28 -27 -48 -31c-17.333 -5.33301 -26 -12.333 -26 -21c0 -3.33301 1.33301 -7 4 -11c0 -24 6.33301 -36 19 -36c33.333 0 51.333 -0.333008 54 -1c10 -2.66699 24 -13.667 42 -33
c-17.333 -24 -50.666 -64.333 -99.999 -121l-163 -165c-4 -4.66699 -8 -11.334 -12 -20.001c-6 -14 -12.667 -21 -20 -21c-12 0 -29.333 -15.667 -52 -47c-18.667 -32.667 -28 -53.667 -28 -63c-2 -3.33301 -3 -6 -3 -8s1.33301 -3 4 -3c-2.66699 0 1.33301 0.666992 12 2
c4.66699 0.666992 8.5 -0.166016 11.5 -2.49902s6.83301 -3.5 11.5 -3.5c4.66699 4 15.334 10 32.001 18c20.667 9.33301 32.334 16.666 35.001 21.999c18 31.333 51 76.666 99 135.999c21.333 26.667 44.333 53 69 79l51 54c26.667 26.667 60 63.334 100 110.001
c20 -10 52.667 -37.333 98 -82l21 -19c7.33301 -7.33301 29.666 -41 66.999 -101l8 -12c4.66699 -6 7.66699 -9.33301 9 -10c5.33301 -2 15.666 -14.5 30.999 -37.5s25.333 -34.5 30 -34.5c2.66699 0 8.33398 2.33301 17.001 7c26 14.667 44.667 28 56 40
c14.667 16 23.334 36.667 26.001 62c0.666992 6 2.66699 35 6 87c2.66699 18 6.33398 45 11.001 81l11 130c0 2.66699 1.66699 6.5 5 11.5s5 8.83301 5 11.5z" />
    <glyph glyph-name="Agrave" unicode="&#x410;" horiz-adv-x="815" 
d="M699 719c1.33301 -6 4.66895 -15.6641 10.002 -28.9971c12.667 -32.667 19 -56.334 19 -71.001c0 -12.667 -2.66699 -26 -8 -40c-4 -10 -6.66699 -27.333 -8 -52c-0.666992 -14 -2.33398 -29 -5.00098 -45l-37 -248c-6.66699 -44 -13.667 -66 -21 -66
c-8.66699 0 -19.334 8.33301 -32.001 25c-4 11.333 -17 31.666 -39 60.999c-32 33.333 -79.667 75 -143 125l98 122c5.33301 4 11.333 11.167 18 21.5s12 17.166 16 20.499c30.667 29.333 74.667 88 132 176zM773.003 433.003c2 28.667 6.99707 74.334 14.9971 137.001
c2.66699 20.667 6.33398 34 11.001 40c11.333 11.333 17 25.333 17 42v9c0.666992 5.33301 1 10 1 14c0 26.667 -0.666992 52 -2 76c-0.666992 7.33301 -1.33398 16 -2.00098 26c-3.33301 15.333 -17 28.666 -41 39.999c-14.667 6.66699 -25.334 10.334 -32.001 11.001
c-4 0 -11.333 -4.33301 -22 -13c-51.333 -40.667 -96 -94 -134 -160c-9.33301 -15.333 -19 -29.666 -29 -42.999c-13.333 -16 -36 -45 -68 -87c-33.333 -46 -63 -82.333 -89 -109c-8 7.33301 -22.667 19.666 -44 36.999l-3 2c-12 9.33301 -30.667 14 -56 14
c-8.66699 0 -13.667 -1.33301 -15 -4c-12 -16.667 -28 -27 -48 -31c-17.333 -5.33301 -26 -12.333 -26 -21c0 -3.33301 1.33301 -7 4 -11c0 -24 6.33301 -36 19 -36c33.333 0 51.333 -0.333008 54 -1c10 -2.66699 24 -13.667 42 -33
c-17.333 -24 -50.666 -64.333 -99.999 -121l-163 -165c-4 -4.66699 -8 -11.334 -12 -20.001c-6 -14 -12.667 -21 -20 -21c-12 0 -29.333 -15.667 -52 -47c-18.667 -32.667 -28 -53.667 -28 -63c-2 -3.33301 -3 -6 -3 -8s1.33301 -3 4 -3c-2.66699 0 1.33301 0.666992 12 2
c4.66699 0.666992 8.5 -0.166016 11.5 -2.49902s6.83301 -3.5 11.5 -3.5c4.66699 4 15.334 10 32.001 18c20.667 9.33301 32.334 16.666 35.001 21.999c18 31.333 51 76.666 99 135.999c21.333 26.667 44.333 53 69 79l51 54c26.667 26.667 60 63.334 100 110.001
c20 -10 52.667 -37.333 98 -82l21 -19c7.33301 -7.33301 29.666 -41 66.999 -101l8 -12c4.66699 -6 7.66699 -9.33301 9 -10c5.33301 -2 15.666 -14.5 30.999 -37.5s25.333 -34.5 30 -34.5c2.66699 0 8.33398 2.33301 17.001 7c26 14.667 44.667 28 56 40
c14.667 16 23.334 36.667 26.001 62c0.666992 6 2.66699 35 6 87c2.66699 18 6.33398 45 11.001 81l11 130c0 2.66699 1.66699 6.5 5 11.5s5 8.83301 5 11.5z" />
    <glyph glyph-name="Aacute" unicode="&#xc1;" horiz-adv-x="869" 
d="M236 114c-3.33301 -4.66699 -5 -8.00586 -5 -10.0059c0 -6 6.66699 -9 20 -9c12.667 0 25.667 1.66699 39 5l118 154l41 71c26 44.667 41 67 45 67c75.333 -4.66699 131.666 -17 168.999 -37c14.667 -6 33.667 -17 57 -33c5.33301 -6.66699 9.66602 -17 12.999 -31
c2.66699 -10.667 6 -23.334 10 -38.001c0.666992 -2.66699 -1.66602 -14.667 -6.99902 -36c-6 -23.333 -9 -37 -9 -41c0 -22.667 -10.667 -41.667 -32 -57c-17.333 -13.333 -38.333 -21.333 -63 -24c-35.333 -20.667 -101 -31 -197 -31c-64.667 0 -133.667 7.66699 -207 23
c-63.333 13.333 -107 28.333 -131 45c-7.33301 6.66699 -13.333 24 -18 52c-2 11.333 -3.66699 17.666 -5 18.999h-3c-1.33301 0.666992 -2.33301 1 -3 1c-2 0 -5.33301 -0.333008 -10 -1h-9c-10 0 -20.667 -10.667 -32 -32s-17 -37.666 -17 -48.999c0 -40 43 -72 129 -96
c46.667 -12.667 85 -20 115 -22c60 -3.33301 112 -4.66602 156 -3.99902c38 0.666992 93.667 7 167 19l38 7c10.667 0.666992 27 3.66699 49 9c46 21.333 81.333 41.666 106 60.999c16 12 33.167 34.5 51.5 67.5s27.5 62.167 27.5 87.5c0 16.667 -3.33301 36.334 -10 59.001
c-3.33301 18.667 -9.33301 39 -18 61c-16 10 -39 26 -69 48c-8.66699 8 -20.334 14.167 -35.001 18.5s-28.667 8.16602 -42 11.499c-30 8.66699 -70.333 17.334 -121 26.001l36 93c18 46.667 27 80 27 100s-8.66699 30 -26 30c-11.333 0 -21 -3.66699 -29 -11
c-14.667 -13.333 -26.334 -26.666 -35.001 -39.999c-3.33301 -5.33301 -7.66602 -21.333 -12.999 -48c-6.66699 -30.667 -11 -49 -13 -55c-9.33301 -27.333 -18.666 -45.666 -27.999 -54.999c-10 2.66699 -22.333 3.33398 -37 2.00098c-21.333 -2 -31 -3 -29 -3
c-12.667 0 -22 -2.33301 -28 -7c-45.333 -11.333 -72.333 -32 -81 -62c-3.33301 -2.66699 -3.33301 -7.66699 0 -15c6.66699 -13.333 14.667 -18.666 24 -15.999c0.666992 0 10.667 4.33301 30 13c14 6 24 9 30 9c2.66699 0 4.33398 -0.666992 5.00098 -2
c28 4.66699 42 2.33398 42 -6.99902c0 -7.33301 -18.333 -40.666 -55 -99.999c-30.667 -50 -52.667 -84 -66 -102zM1077 717.994l23.4971 13.502c15.667 9 23.5 21.167 23.5 36.5c0 14 -3.5 22.167 -10.5 24.5s-19.5 4.16602 -37.5 5.49902
c-46.667 -0.666992 -94 0.666016 -142 3.99902c-22 2 -54.333 4.66699 -97 8c-120.667 6.66699 -224 3 -310 -11l-77 -11c-34 -5.33301 -83.333 -29.333 -148 -72l-29 -42c-13.333 -20.667 -20 -34.667 -20 -42c0 -5.33301 3 -10.333 9 -15
c10.667 -10.667 21.334 -16 32.001 -16c8 0 22.667 10 44 30c11.333 10.667 20.333 25 27 43c4 11.333 8 18 12 20c30 14 70.667 22.333 122 25c6.66699 0 17.5 2.16699 32.5 6.5s26.5 6.5 34.5 6.5c19.333 0 48 1 86 3s66.667 3 86 3c38.667 0 102.334 -4 191.001 -12
c66.667 -6 103.334 -9 110.001 -9c-2.66699 0 -2 0.333008 2 1h17h19z" />
    <glyph glyph-name="Aacute" unicode="&#x411;" horiz-adv-x="869" 
d="M236 114c-3.33301 -4.66699 -5 -8.00586 -5 -10.0059c0 -6 6.66699 -9 20 -9c12.667 0 25.667 1.66699 39 5l118 154l41 71c26 44.667 41 67 45 67c75.333 -4.66699 131.666 -17 168.999 -37c14.667 -6 33.667 -17 57 -33c5.33301 -6.66699 9.66602 -17 12.999 -31
c2.66699 -10.667 6 -23.334 10 -38.001c0.666992 -2.66699 -1.66602 -14.667 -6.99902 -36c-6 -23.333 -9 -37 -9 -41c0 -22.667 -10.667 -41.667 -32 -57c-17.333 -13.333 -38.333 -21.333 -63 -24c-35.333 -20.667 -101 -31 -197 -31c-64.667 0 -133.667 7.66699 -207 23
c-63.333 13.333 -107 28.333 -131 45c-7.33301 6.66699 -13.333 24 -18 52c-2 11.333 -3.66699 17.666 -5 18.999h-3c-1.33301 0.666992 -2.33301 1 -3 1c-2 0 -5.33301 -0.333008 -10 -1h-9c-10 0 -20.667 -10.667 -32 -32s-17 -37.666 -17 -48.999c0 -40 43 -72 129 -96
c46.667 -12.667 85 -20 115 -22c60 -3.33301 112 -4.66602 156 -3.99902c38 0.666992 93.667 7 167 19l38 7c10.667 0.666992 27 3.66699 49 9c46 21.333 81.333 41.666 106 60.999c16 12 33.167 34.5 51.5 67.5s27.5 62.167 27.5 87.5c0 16.667 -3.33301 36.334 -10 59.001
c-3.33301 18.667 -9.33301 39 -18 61c-16 10 -39 26 -69 48c-8.66699 8 -20.334 14.167 -35.001 18.5s-28.667 8.16602 -42 11.499c-30 8.66699 -70.333 17.334 -121 26.001l36 93c18 46.667 27 80 27 100s-8.66699 30 -26 30c-11.333 0 -21 -3.66699 -29 -11
c-14.667 -13.333 -26.334 -26.666 -35.001 -39.999c-3.33301 -5.33301 -7.66602 -21.333 -12.999 -48c-6.66699 -30.667 -11 -49 -13 -55c-9.33301 -27.333 -18.666 -45.666 -27.999 -54.999c-10 2.66699 -22.333 3.33398 -37 2.00098c-21.333 -2 -31 -3 -29 -3
c-12.667 0 -22 -2.33301 -28 -7c-45.333 -11.333 -72.333 -32 -81 -62c-3.33301 -2.66699 -3.33301 -7.66699 0 -15c6.66699 -13.333 14.667 -18.666 24 -15.999c0.666992 0 10.667 4.33301 30 13c14 6 24 9 30 9c2.66699 0 4.33398 -0.666992 5.00098 -2
c28 4.66699 42 2.33398 42 -6.99902c0 -7.33301 -18.333 -40.666 -55 -99.999c-30.667 -50 -52.667 -84 -66 -102zM1077 717.994l23.4971 13.502c15.667 9 23.5 21.167 23.5 36.5c0 14 -3.5 22.167 -10.5 24.5s-19.5 4.16602 -37.5 5.49902
c-46.667 -0.666992 -94 0.666016 -142 3.99902c-22 2 -54.333 4.66699 -97 8c-120.667 6.66699 -224 3 -310 -11l-77 -11c-34 -5.33301 -83.333 -29.333 -148 -72l-29 -42c-13.333 -20.667 -20 -34.667 -20 -42c0 -5.33301 3 -10.333 9 -15
c10.667 -10.667 21.334 -16 32.001 -16c8 0 22.667 10 44 30c11.333 10.667 20.333 25 27 43c4 11.333 8 18 12 20c30 14 70.667 22.333 122 25c6.66699 0 17.5 2.16699 32.5 6.5s26.5 6.5 34.5 6.5c19.333 0 48 1 86 3s66.667 3 86 3c38.667 0 102.334 -4 191.001 -12
c66.667 -6 103.334 -9 110.001 -9c-2.66699 0 -2 0.333008 2 1h17h19z" />
    <glyph glyph-name="Acircumflex" unicode="&#xc2;" horiz-adv-x="839" 
d="M235 114c-3.33301 -4.66699 -5 -7.99707 -5 -9.99707c0 -6.66699 6.66699 -10 20 -10c12.667 0 25.667 2 39 6l118 153c35.333 47.333 54 71 56 71c36.667 -2.66699 70 -7 100 -13c74.667 -15.333 125.667 -55.666 153 -120.999c2 -4.66699 3 -10.334 3 -17.001
c0 -21.333 -9.66699 -39.666 -29 -54.999c-16.667 -13.333 -36.334 -21.333 -59.001 -24c-35.333 -20 -101 -30 -197 -30c-68 0 -137 7.33301 -207 22c-62.667 13.333 -106.334 28.666 -131.001 45.999c-7.33301 5.33301 -13.333 22.666 -18 51.999
c-2 11.333 -3.66699 17.666 -5 18.999h-3c-0.666992 0.666992 -1.33398 1 -2.00098 1c-2.66699 0 -6 -0.333008 -10 -1h-9c-10 0 -20.667 -10.667 -32 -32s-17 -37.666 -17 -48.999c0 -22.667 12 -42 36 -58c14 -9.33301 36 -19.333 66 -30c2 0 4.33301 -0.333008 7 -1h8
c11.333 2 19.666 -0.666992 24.999 -8c2 -4 4 -6.33301 6 -7c28 -7.33301 60 -12 96 -14c61.333 -3.33301 113 -4.66602 155 -3.99902c36.667 0.666992 92.334 7 167.001 19c9.33301 2 26.666 5 51.999 9c12 2 23.333 4.33301 34 7c46 21.333 81.667 41.333 107 60
c0.666992 0.666992 4.33398 5.66699 11.001 15c15.333 21.333 26.333 38 33 50c4.66699 8.66699 7 16 7 22c0.666992 2.66699 1 4.66699 1 6c0 49.333 -11.333 83.666 -34 102.999c-23.333 15.333 -44.666 30.666 -63.999 45.999c-26.667 22 -58.334 38.333 -95.001 49
c-21.333 6 -56.666 13 -105.999 21c96 6.66699 173.333 27.667 232 63c16.667 10 35 22.333 55 37c30 14 58 42.667 84 86c13.333 22 24.666 37.667 33.999 47c-3.33301 34.667 -10.333 61 -21 79c-19.333 32.667 -64.333 55 -135 67c-29.333 4.66699 -82.333 11 -159 19
c-7.33301 0 -14.666 1.33301 -21.999 4c-2.66699 0.666992 -4.66699 1 -6 1c-48 -0.666992 -88.333 -3.66699 -121 -9c-58 -9.33301 -100 -29.666 -126 -60.999c-11.333 -14 -26 -35 -44 -63c-1.33301 -2 -2 -3.33301 -2 -4c-3.33301 -4 -5 -7.33301 -5 -10
s2.33301 -4.33398 7 -5.00098c28 0 43.667 0.333008 47 1c6 1.33301 9.66699 3.33301 11 6c8 18 13.667 28.667 17 32c6.66699 8 17 13.667 31 17c43.333 9.33301 91.333 14 144 14c70.667 0 144 -11 220 -33c39.333 -11.333 59 -33.666 59 -66.999
c0 -26 -13.333 -51.333 -40 -76c-2.66699 -2.66699 -10.667 -7.66699 -24 -15c-34.667 -19.333 -83.334 -43.333 -146.001 -72c-2 -1.33301 -9.33301 -3 -22 -5c-16 -2.66699 -33.333 -6.66699 -52 -12c18.667 45.333 28 78.333 28 99c0 20 -9 30 -27 30
c-11.333 0 -21 -3.66699 -29 -11c-21.333 -18.667 -34.333 -34.334 -39 -47.001c-1.33301 -3.33301 -4.66602 -22.333 -9.99902 -57c-2.66699 -17.333 -9 -31 -19 -41c-25.333 6.66699 -45.666 10 -60.999 10c-12 0 -21 -2.33301 -27 -7l-51 -38
c-4 -2.66699 -6 -7.33398 -6 -14.001c0 -14.667 5 -22.667 15 -24c41.333 -6.66699 69 -10 83 -10c1.33301 -0.666992 2 -2 2 -4c0 -3.33301 -2.33301 -8 -7 -14c-43.333 -67.333 -91.666 -136 -144.999 -206z" />
    <glyph glyph-name="Acircumflex" unicode="&#x412;" horiz-adv-x="839" 
d="M235 114c-3.33301 -4.66699 -5 -7.99707 -5 -9.99707c0 -6.66699 6.66699 -10 20 -10c12.667 0 25.667 2 39 6l118 153c35.333 47.333 54 71 56 71c36.667 -2.66699 70 -7 100 -13c74.667 -15.333 125.667 -55.666 153 -120.999c2 -4.66699 3 -10.334 3 -17.001
c0 -21.333 -9.66699 -39.666 -29 -54.999c-16.667 -13.333 -36.334 -21.333 -59.001 -24c-35.333 -20 -101 -30 -197 -30c-68 0 -137 7.33301 -207 22c-62.667 13.333 -106.334 28.666 -131.001 45.999c-7.33301 5.33301 -13.333 22.666 -18 51.999
c-2 11.333 -3.66699 17.666 -5 18.999h-3c-0.666992 0.666992 -1.33398 1 -2.00098 1c-2.66699 0 -6 -0.333008 -10 -1h-9c-10 0 -20.667 -10.667 -32 -32s-17 -37.666 -17 -48.999c0 -22.667 12 -42 36 -58c14 -9.33301 36 -19.333 66 -30c2 0 4.33301 -0.333008 7 -1h8
c11.333 2 19.666 -0.666992 24.999 -8c2 -4 4 -6.33301 6 -7c28 -7.33301 60 -12 96 -14c61.333 -3.33301 113 -4.66602 155 -3.99902c36.667 0.666992 92.334 7 167.001 19c9.33301 2 26.666 5 51.999 9c12 2 23.333 4.33301 34 7c46 21.333 81.667 41.333 107 60
c0.666992 0.666992 4.33398 5.66699 11.001 15c15.333 21.333 26.333 38 33 50c4.66699 8.66699 7 16 7 22c0.666992 2.66699 1 4.66699 1 6c0 49.333 -11.333 83.666 -34 102.999c-23.333 15.333 -44.666 30.666 -63.999 45.999c-26.667 22 -58.334 38.333 -95.001 49
c-21.333 6 -56.666 13 -105.999 21c96 6.66699 173.333 27.667 232 63c16.667 10 35 22.333 55 37c30 14 58 42.667 84 86c13.333 22 24.666 37.667 33.999 47c-3.33301 34.667 -10.333 61 -21 79c-19.333 32.667 -64.333 55 -135 67c-29.333 4.66699 -82.333 11 -159 19
c-7.33301 0 -14.666 1.33301 -21.999 4c-2.66699 0.666992 -4.66699 1 -6 1c-48 -0.666992 -88.333 -3.66699 -121 -9c-58 -9.33301 -100 -29.666 -126 -60.999c-11.333 -14 -26 -35 -44 -63c-1.33301 -2 -2 -3.33301 -2 -4c-3.33301 -4 -5 -7.33301 -5 -10
s2.33301 -4.33398 7 -5.00098c28 0 43.667 0.333008 47 1c6 1.33301 9.66699 3.33301 11 6c8 18 13.667 28.667 17 32c6.66699 8 17 13.667 31 17c43.333 9.33301 91.333 14 144 14c70.667 0 144 -11 220 -33c39.333 -11.333 59 -33.666 59 -66.999
c0 -26 -13.333 -51.333 -40 -76c-2.66699 -2.66699 -10.667 -7.66699 -24 -15c-34.667 -19.333 -83.334 -43.333 -146.001 -72c-2 -1.33301 -9.33301 -3 -22 -5c-16 -2.66699 -33.333 -6.66699 -52 -12c18.667 45.333 28 78.333 28 99c0 20 -9 30 -27 30
c-11.333 0 -21 -3.66699 -29 -11c-21.333 -18.667 -34.333 -34.334 -39 -47.001c-1.33301 -3.33301 -4.66602 -22.333 -9.99902 -57c-2.66699 -17.333 -9 -31 -19 -41c-25.333 6.66699 -45.666 10 -60.999 10c-12 0 -21 -2.33301 -27 -7l-51 -38
c-4 -2.66699 -6 -7.33398 -6 -14.001c0 -14.667 5 -22.667 15 -24c41.333 -6.66699 69 -10 83 -10c1.33301 -0.666992 2 -2 2 -4c0 -3.33301 -2.33301 -8 -7 -14c-43.333 -67.333 -91.666 -136 -144.999 -206z" />
    <glyph glyph-name="Atilde" unicode="&#xc3;" horiz-adv-x="804" 
d="M339 439c8 1.33301 20.6709 21.3271 38.0039 59.9941c10.667 24.667 23.667 46.667 39 66l23 28c7.33301 12.667 19 31.334 35 56.001l31 69c18.667 2.66699 42.667 6.66699 72 12c22 4 74.667 6 158 6c34.667 0 61.334 -1 80.001 -3
c11.333 -2 19.166 -4.66699 23.499 -8s12.833 -6.33301 25.5 -9c26 -4.66699 40 -7 42 -7c20.667 0 37.667 1.66699 51 5c11.333 2.66699 22.333 5 33 7c8.66699 2.66699 14.167 6.33398 16.5 11.001s4.5 8.66699 6.5 12c3.33301 6 5 7.33301 5 4
c5.33301 14 7.33301 21 6 21c-3.33301 0.666992 -6 2 -8 4c-17.333 20 -50.333 31 -99 33c-31.333 1.33301 -63.333 2 -96 2c-40 0 -64.333 -0.333008 -73 -1c-26 -2 -50 -3.33301 -72 -4c-66 -2 -121.333 5.66699 -166 23c-2.66699 0.666992 -7.33398 3 -14.001 7
c-14 5.33301 -26 8 -36 8c-10.667 0 -21.667 -3.66699 -33 -11c-3.33301 -1.33301 -12.333 -7.66602 -27 -18.999s-32.334 -26.333 -53.001 -45c-10 -7.33301 -15 -18.666 -15 -33.999c0 -10 6 -14.333 18 -13l13 1c8 0.666992 14 1 18 1c6 0 9 -1 9 -3
c0 1.33301 -5.33301 -19 -16 -61c-5.33301 -20 -11.333 -38 -18 -54c-18 -41.333 -47.667 -95.666 -89 -162.999l-102 -162c-30.667 -45.333 -53.667 -82.333 -69 -111c-16.667 -25.333 -42.334 -67.666 -77.001 -126.999l-19 -36c4 -6 11 -9 21 -9c2 0 12 1.66699 30 5
c4 0.666992 11.333 2 22 4l28 39c33.333 47.333 58.333 87 75 119c57.333 110 111.666 202.333 162.999 277z" />
    <glyph glyph-name="Atilde" unicode="&#x413;" horiz-adv-x="804" 
d="M339 439c8 1.33301 20.6709 21.3271 38.0039 59.9941c10.667 24.667 23.667 46.667 39 66l23 28c7.33301 12.667 19 31.334 35 56.001l31 69c18.667 2.66699 42.667 6.66699 72 12c22 4 74.667 6 158 6c34.667 0 61.334 -1 80.001 -3
c11.333 -2 19.166 -4.66699 23.499 -8s12.833 -6.33301 25.5 -9c26 -4.66699 40 -7 42 -7c20.667 0 37.667 1.66699 51 5c11.333 2.66699 22.333 5 33 7c8.66699 2.66699 14.167 6.33398 16.5 11.001s4.5 8.66699 6.5 12c3.33301 6 5 7.33301 5 4
c5.33301 14 7.33301 21 6 21c-3.33301 0.666992 -6 2 -8 4c-17.333 20 -50.333 31 -99 33c-31.333 1.33301 -63.333 2 -96 2c-40 0 -64.333 -0.333008 -73 -1c-26 -2 -50 -3.33301 -72 -4c-66 -2 -121.333 5.66699 -166 23c-2.66699 0.666992 -7.33398 3 -14.001 7
c-14 5.33301 -26 8 -36 8c-10.667 0 -21.667 -3.66699 -33 -11c-3.33301 -1.33301 -12.333 -7.66602 -27 -18.999s-32.334 -26.333 -53.001 -45c-10 -7.33301 -15 -18.666 -15 -33.999c0 -10 6 -14.333 18 -13l13 1c8 0.666992 14 1 18 1c6 0 9 -1 9 -3
c0 1.33301 -5.33301 -19 -16 -61c-5.33301 -20 -11.333 -38 -18 -54c-18 -41.333 -47.667 -95.666 -89 -162.999l-102 -162c-30.667 -45.333 -53.667 -82.333 -69 -111c-16.667 -25.333 -42.334 -67.666 -77.001 -126.999l-19 -36c4 -6 11 -9 21 -9c2 0 12 1.66699 30 5
c4 0.666992 11.333 2 22 4l28 39c33.333 47.333 58.333 87 75 119c57.333 110 111.666 202.333 162.999 277z" />
    <glyph glyph-name="Adieresis" unicode="&#xc4;" horiz-adv-x="928" 
d="M494 476c-22.667 -52 -62.666 -117.667 -119.999 -197l-139 -184c-8.66699 -11.333 -18.667 -15.666 -30 -12.999c-10.667 1.33301 -26 6 -46 14c-8.66699 4.66699 -19.334 13.334 -32.001 26.001s-22.334 21.167 -29.001 25.5s-18.667 5.16602 -36 2.49902
c-13.333 -2 -24.666 -3 -33.999 -3c-18.667 -11.333 -28 -23.333 -28 -36c0 -17.333 17 -36.666 51 -57.999c26.667 -16.667 51.334 -28.334 74.001 -35.001c6 -2 16 -4.66699 30 -8c6 -0.666992 9 -3 9 -7c0 -2.66699 -1 -6 -3 -10c0 -10 5 -18 15 -24s20.333 -9 31 -9
c12 0 31.333 15 58 45c3.33301 4 15.666 6.66699 36.999 8c8.66699 0.666992 61.667 1 159 1h10c4.66699 0.666992 8.33398 1 11.001 1c8.66699 4.66699 29.667 8.66699 63 12c15.333 2 25 3.33301 29 4c7.33301 2 15.333 6.16699 24 12.5s19.334 10.166 32.001 11.499
c18 2 29.667 3.83301 35 5.5s20 9.16699 44 22.5c16 8.66699 30.333 18.334 43 29.001c21.333 17.333 40.666 29.333 57.999 36c7.33301 2.66699 18.666 11 33.999 25c44.667 40 68.667 74.333 72 103c6.66699 55.333 10 97 10 125c0 42.667 -5.66699 74 -17 94
c-7.33301 13.333 -25 37.666 -53 72.999c-15.333 20 -36.333 44.333 -63 73c-2.66699 6 -7.33398 13.667 -14.001 23l-24 19c-106 81.333 -207 130.333 -303 147c-7.33301 1.33301 -14.666 2 -21.999 2c-10 0 -24.667 -1.33301 -44 -4s-34 -4 -44 -4
c-7.33301 2 -16.333 -2.33301 -27 -13c-56.667 -21.333 -91.667 -44.333 -105 -69c-2.66699 -4.66699 -4.33398 -12.334 -5.00098 -23.001c-1.33301 -21.333 -1.33301 -50.666 0 -87.999c1.33301 -28.667 5.16602 -51 11.499 -67s19.5 -32.667 39.5 -50
c2 -1.33301 7 -8.33301 15 -21c5.33301 -8 12.333 -12 21 -12c16 15.333 24 30.666 24 45.999c0 10 -1.66699 20.667 -5 32c-5.33301 18.667 -8.33301 28.667 -9 30c0.666992 12.667 -0.333008 26.667 -3 42c-12.667 10 -17.667 36 -15 78
c1.33301 16 12.666 24.667 33.999 26c4.66699 2.66699 12.334 5.66699 23.001 9c44.667 0.666992 107.334 -5.66602 188.001 -18.999c62.667 -10.667 120.667 -43.334 174 -98.001c2 -2 10.333 -12.667 25 -32c63.333 -83.333 95 -141 95 -173
c0 -1.33301 1.33301 -4.33301 4 -9c6 -8 9 -22.667 9 -44c0 -16.667 -3 -46.334 -9 -89.001c-4.66699 -31.333 -31.667 -69.333 -81 -114c-14.667 -13.333 -42 -25.666 -82 -36.999c-5.33301 -1.33301 -19.5 -7.16602 -42.5 -17.499s-36.5 -15.5 -40.5 -15.5
c-20 0 -43.667 -3.33301 -71 -10c-36 -8.66699 -59.333 -13.667 -70 -15c-22 -2.66699 -45.667 -4 -71 -4c-38 0 -57 4.33301 -57 13c2.66699 4 12 16.667 28 38l136 180c19.333 25.333 44 64.333 74 117c30.667 55.333 54.667 94.666 72 117.999c20 28 30.333 43.333 31 46
c0 15.333 -6.66699 23 -20 23c-2 0 -4 -0.333008 -6 -1c-17.333 0 -37.166 -7.16699 -59.499 -21.5s-39.833 -29.5 -52.5 -45.5c-6 -7.33301 -10.333 -16.666 -13 -27.999c-3.33301 -15.333 -6 -25.333 -8 -30z" />
    <glyph glyph-name="Adieresis" unicode="&#x414;" horiz-adv-x="928" 
d="M494 476c-22.667 -52 -62.666 -117.667 -119.999 -197l-139 -184c-8.66699 -11.333 -18.667 -15.666 -30 -12.999c-10.667 1.33301 -26 6 -46 14c-8.66699 4.66699 -19.334 13.334 -32.001 26.001s-22.334 21.167 -29.001 25.5s-18.667 5.16602 -36 2.49902
c-13.333 -2 -24.666 -3 -33.999 -3c-18.667 -11.333 -28 -23.333 -28 -36c0 -17.333 17 -36.666 51 -57.999c26.667 -16.667 51.334 -28.334 74.001 -35.001c6 -2 16 -4.66699 30 -8c6 -0.666992 9 -3 9 -7c0 -2.66699 -1 -6 -3 -10c0 -10 5 -18 15 -24s20.333 -9 31 -9
c12 0 31.333 15 58 45c3.33301 4 15.666 6.66699 36.999 8c8.66699 0.666992 61.667 1 159 1h10c4.66699 0.666992 8.33398 1 11.001 1c8.66699 4.66699 29.667 8.66699 63 12c15.333 2 25 3.33301 29 4c7.33301 2 15.333 6.16699 24 12.5s19.334 10.166 32.001 11.499
c18 2 29.667 3.83301 35 5.5s20 9.16699 44 22.5c16 8.66699 30.333 18.334 43 29.001c21.333 17.333 40.666 29.333 57.999 36c7.33301 2.66699 18.666 11 33.999 25c44.667 40 68.667 74.333 72 103c6.66699 55.333 10 97 10 125c0 42.667 -5.66699 74 -17 94
c-7.33301 13.333 -25 37.666 -53 72.999c-15.333 20 -36.333 44.333 -63 73c-2.66699 6 -7.33398 13.667 -14.001 23l-24 19c-106 81.333 -207 130.333 -303 147c-7.33301 1.33301 -14.666 2 -21.999 2c-10 0 -24.667 -1.33301 -44 -4s-34 -4 -44 -4
c-7.33301 2 -16.333 -2.33301 -27 -13c-56.667 -21.333 -91.667 -44.333 -105 -69c-2.66699 -4.66699 -4.33398 -12.334 -5.00098 -23.001c-1.33301 -21.333 -1.33301 -50.666 0 -87.999c1.33301 -28.667 5.16602 -51 11.499 -67s19.5 -32.667 39.5 -50
c2 -1.33301 7 -8.33301 15 -21c5.33301 -8 12.333 -12 21 -12c16 15.333 24 30.666 24 45.999c0 10 -1.66699 20.667 -5 32c-5.33301 18.667 -8.33301 28.667 -9 30c0.666992 12.667 -0.333008 26.667 -3 42c-12.667 10 -17.667 36 -15 78
c1.33301 16 12.666 24.667 33.999 26c4.66699 2.66699 12.334 5.66699 23.001 9c44.667 0.666992 107.334 -5.66602 188.001 -18.999c62.667 -10.667 120.667 -43.334 174 -98.001c2 -2 10.333 -12.667 25 -32c63.333 -83.333 95 -141 95 -173
c0 -1.33301 1.33301 -4.33301 4 -9c6 -8 9 -22.667 9 -44c0 -16.667 -3 -46.334 -9 -89.001c-4.66699 -31.333 -31.667 -69.333 -81 -114c-14.667 -13.333 -42 -25.666 -82 -36.999c-5.33301 -1.33301 -19.5 -7.16602 -42.5 -17.499s-36.5 -15.5 -40.5 -15.5
c-20 0 -43.667 -3.33301 -71 -10c-36 -8.66699 -59.333 -13.667 -70 -15c-22 -2.66699 -45.667 -4 -71 -4c-38 0 -57 4.33301 -57 13c2.66699 4 12 16.667 28 38l136 180c19.333 25.333 44 64.333 74 117c30.667 55.333 54.667 94.666 72 117.999c20 28 30.333 43.333 31 46
c0 15.333 -6.66699 23 -20 23c-2 0 -4 -0.333008 -6 -1c-17.333 0 -37.166 -7.16699 -59.499 -21.5s-39.833 -29.5 -52.5 -45.5c-6 -7.33301 -10.333 -16.666 -13 -27.999c-3.33301 -15.333 -6 -25.333 -8 -30z" />
    </font>
</defs>
</svg>
